G04 Layer: TopLayer*
G04 EasyEDA Pro v2.2.45.4, 2026-01-19 12:49:56*
G04 Gerber Generator version 0.3*
G04 Scale: 100 percent, Rotated: No, Reflected: No*
G04 Dimensions in millimeters*
G04 Leading zeros omitted, absolute positions, 4 integers and 5 decimals*
G04 Generated by one-click*
%FSLAX45Y45*%
%MOMM*%
%ADD10C,0.29997*%
%ADD11R,0.8X0.9*%
%ADD12R,0.80648X0.86401*%
%ADD13R,1.0X1.39954*%
%ADD14R,0.21999X0.4*%
%ADD15R,0.4X0.21999*%
%ADD16R,0.4X0.28001*%
%ADD17C,0.62001*%
%ADD18C,0.2521*%
%ADD19C,0.254*%
G75*


G04 PolygonModel Start*
G54D10*
G01X8515706Y-4631893D02*
G01X8515706Y-371907D01*
G01X8575700Y-4631893D02*
G01X8575700Y-371907D01*
G01X8635695Y-4631893D02*
G01X8635695Y-371907D01*
G01X8695690Y-4631893D02*
G01X8695690Y-371907D01*
G01X8755685Y-4631893D02*
G01X8755685Y-371907D01*
G01X6525692Y-4661891D02*
G01X8485708Y-4661891D01*
G01X6525692Y-4721885D02*
G01X8485708Y-4721885D01*
G01X6525692Y-4781906D02*
G01X8485708Y-4781906D01*
G01X6525692Y-4841900D02*
G01X8485708Y-4841900D01*
G01X6525692Y-4901895D02*
G01X8485708Y-4901895D01*
G01X6525692Y-341909D02*
G01X8485708Y-341909D01*
G01X6525692Y-281915D02*
G01X8485708Y-281915D01*
G01X6525692Y-221894D02*
G01X8485708Y-221894D01*
G01X6525692Y-161900D02*
G01X8485708Y-161900D01*
G01X6525692Y-101905D02*
G01X8485708Y-101905D01*
G01X6495694Y-4631893D02*
G01X6495694Y-2501900D01*
G01X6495694Y-2501900D02*
G01X6435700Y-2441905D01*
G01X6435700Y-2441905D02*
G01X6435700Y-371907D01*
G01X6375705Y-4631893D02*
G01X6375705Y-2541905D01*
G01X6375705Y-2541905D02*
G01X6315710Y-2481910D01*
G01X6315710Y-2481910D02*
G01X6315710Y-371907D01*
G01X6435700Y-4631893D02*
G01X6435700Y-2521890D01*
G01X6435700Y-2521890D02*
G01X6375705Y-2461895D01*
G01X6375705Y-2461895D02*
G01X6375705Y-371907D01*
G01X6315710Y-4631893D02*
G01X6315710Y-2561895D01*
G01X6315710Y-2561895D02*
G01X6255690Y-2501900D01*
G01X6255690Y-2501900D02*
G01X6255690Y-371907D01*
G01X6495694Y-371907D02*
G01X6495694Y-2421890D01*
G01X6495694Y-2421890D02*
G01X6512204Y-2438400D01*
G01X6512204Y-2438400D02*
G01X6553200Y-2438400D01*
G01X6159500Y-2565400D02*
G01X6172200Y-2565400D01*
G01X6172200Y-2565400D02*
G01X6239205Y-2565400D01*
G01X6239205Y-2565400D02*
G01X6255690Y-2581910D01*
G01X6255690Y-2581910D02*
G01X6255690Y-4631893D01*

G04 Pad Start*
G54D11*
G01X4883302Y-2120900D03*
G01X4743298Y-2120900D03*
G54D12*
G01X4875936Y-2794000D03*
G01X4725264Y-2794000D03*
G54D13*
G01X809371Y-2514600D03*
G01X1019429Y-2514600D03*
G54D14*
G01X4787903Y-2429213D03*
G54D15*
G01X4847897Y-2439220D03*
G01X4847897Y-2489208D03*
G01X4847897Y-2539220D03*
G54D14*
G01X4787903Y-2549202D03*
G54D15*
G01X4727908Y-2539195D03*
G01X4727908Y-2489208D03*
G54D16*
G01X4727908Y-2439220D03*
G04 Pad End*

G04 Via Start*
G54D17*
G01X4648200Y-2362200D03*
G01X4813300Y-2298700D03*
G01X6013293Y-2235200D03*
G04 Via End*

G04 Track Start*
G54D19*
G01X4648200Y-2362200D02*
G01X4725220Y-2439220D01*
G01X4727908Y-2439220D01*
G01X4727956Y-2489200D02*
G01X4584700Y-2489200D01*
G01X4584700Y-2295398D01*
G01X4743196Y-2295398D01*
G01X887476Y-2514600D02*
G01X887476Y-2387600D01*
G01X4279900Y-2413000D01*
G01X4584700Y-2295398D01*
G01X4813300Y-2298700D02*
G01X4787903Y-2324097D01*
G01X4787903Y-2429213D01*
G01X4725264Y-2794000D02*
G01X1376807Y-2794000D01*
G01X1097407Y-2514600D01*
G01X1019429Y-2514600D02*
G01X1097407Y-2514600D01*
G01X4743298Y-2120900D02*
G01X4743298Y-2295472D01*
G01X809371Y-2514600D02*
G01X887349Y-2514600D01*
G01X4847895Y-2489200D02*
G01X4847895Y-2439213D01*
G01X4875936Y-2722829D02*
G01X4899228Y-2699537D01*
G01X4899228Y-2492553D01*
G01X4895875Y-2489200D01*
G01X4875936Y-2794000D02*
G01X4875936Y-2722829D01*
G01X4847895Y-2489200D02*
G01X4895875Y-2489200D01*
G01X4883302Y-2295474D02*
G01X4895875Y-2308047D01*
G01X4895875Y-2439213D01*
G01X4847895Y-2439213D02*
G01X4895875Y-2439213D01*
G01X4883302Y-2120900D02*
G01X4883302Y-2295472D01*
G54D10*
G01X6495694Y-371907D02*
G02X6525692Y-341909I29997J0D01*
G01X6435700Y-371907D02*
G02X6525692Y-281915I89992J0D01*
G01X6375705Y-371907D02*
G02X6525692Y-221894I149987J25D01*
G01X6315710Y-371907D02*
G02X6525692Y-161900I210007J0D01*
G01X6255690Y-371907D02*
G02X6525692Y-101905I270002J0D01*
G01X6495694Y-4631893D02*
G03X6525692Y-4661891I29997J0D01*
G01X6435700Y-4631893D02*
G03X6525692Y-4721885I89992J0D01*
G01X6375705Y-4631893D02*
G03X6525692Y-4781906I149987J-25D01*
G01X6315710Y-4631893D02*
G03X6525692Y-4841900I210007J0D01*
G01X6255690Y-4631893D02*
G03X6525692Y-4901895I270002J0D01*
G01X8515706Y-4631893D02*
G02X8485708Y-4661891I-29997J0D01*
G01X8575700Y-4631893D02*
G02X8485708Y-4721885I-89992J0D01*
G01X8635695Y-4631893D02*
G02X8485708Y-4781906I-149987J-25D01*
G01X8695690Y-4631893D02*
G02X8485708Y-4841900I-210007J0D01*
G01X8755710Y-4631893D02*
G02X8485708Y-4901895I-270002J0D01*
G01X8515706Y-371907D02*
G03X8485708Y-341909I-29997J0D01*
G01X8575700Y-371907D02*
G03X8485708Y-281915I-89992J0D01*
G01X8635695Y-371907D02*
G03X8485708Y-221894I-149987J25D01*
G01X8695690Y-371907D02*
G03X8485708Y-161900I-210007J0D01*
G01X8755710Y-371907D02*
G03X8485708Y-101905I-270002J0D01*
G04 Track End*

M02*

