G04 Layer: TopSilkscreenLayer*
G04 EasyEDA Pro v2.2.45.4, 2026-01-19 12:49:56*
G04 Gerber Generator version 0.3*
G04 Scale: 100 percent, Rotated: No, Reflected: No*
G04 Dimensions in millimeters*
G04 Leading zeros omitted, absolute positions, 4 integers and 5 decimals*
G04 Generated by one-click*
%FSLAX45Y45*%
%MOMM*%
%ADD10C,0.1524*%
%ADD11C,0.254*%
%ADD12C,0.6571*%
G75*


G04 Image Start*
G36*
G01X4751512Y-4978400D02*
G01X4637355Y-4978400D01*
G01X4637355Y-4864243D01*
G01X4696717Y-4864243D01*
G01X4746946Y-4864243D01*
G01X4746946Y-4814013D01*
G01X4696717Y-4814013D01*
G01X4696717Y-4864243D01*
G01X4696717Y-4864243D01*
G01X4637355Y-4864243D01*
G01X4637355Y-4809447D01*
G01X4692151Y-4809447D01*
G01X4692151Y-4759218D01*
G01X4751512Y-4759218D01*
G01X4751512Y-4809447D01*
G01X4801742Y-4809447D01*
G01X4801742Y-4759218D01*
G01X4801742Y-4759218D01*
G01X4751512Y-4759218D01*
G01X4692151Y-4759218D01*
G01X4527764Y-4759218D01*
G01X4527764Y-4754652D01*
G01X4806308Y-4754652D01*
G01X4911333Y-4754652D01*
G01X4911333Y-4704422D01*
G01X5025490Y-4704422D01*
G01X5025490Y-4754652D01*
G01X5080285Y-4754652D01*
G01X5080285Y-4809447D01*
G01X5080285Y-4809447D01*
G01X5135081Y-4809447D01*
G01X5135081Y-4919038D01*
G01X5240106Y-4919038D01*
G01X5240106Y-4868809D01*
G01X5185310Y-4868809D01*
G01X5185310Y-4704422D01*
G01X5130515Y-4704422D01*
G01X5130515Y-4649627D01*
G01X5080285Y-4649627D01*
G01X5080285Y-4704422D01*
G01X5025490Y-4704422D01*
G01X4911333Y-4704422D01*
G01X4806308Y-4704422D01*
G01X4806308Y-4754652D01*
G01X4806308Y-4754652D01*
G01X4527764Y-4754652D01*
G01X4527764Y-4699856D01*
G01X4641921Y-4699856D01*
G01X4692151Y-4699856D01*
G01X4692151Y-4649627D01*
G01X4970694Y-4649627D01*
G01X4970694Y-4699856D01*
G01X5020924Y-4699856D01*
G01X5020924Y-4649627D01*
G01X5020924Y-4649627D01*
G01X4970694Y-4649627D01*
G01X4692151Y-4649627D01*
G01X4641921Y-4649627D01*
G01X4641921Y-4699856D01*
G01X4641921Y-4699856D01*
G01X4527764Y-4699856D01*
G01X4527764Y-4645061D01*
G01X4582560Y-4645061D01*
G01X4806308Y-4645061D01*
G01X4911333Y-4645061D01*
G01X4911333Y-4540036D01*
G01X5025490Y-4540036D01*
G01X5025490Y-4645061D01*
G01X5075719Y-4645061D01*
G01X5075719Y-4590265D01*
G01X5185310Y-4590265D01*
G01X5185310Y-4540036D01*
G01X5130515Y-4540036D01*
G01X5130515Y-4485240D01*
G01X5080285Y-4485240D01*
G01X5080285Y-4540036D01*
G01X5080285Y-4540036D01*
G01X5025490Y-4540036D01*
G01X4911333Y-4540036D01*
G01X4861103Y-4540036D01*
G01X4861103Y-4594831D01*
G01X4806308Y-4594831D01*
G01X4806308Y-4645061D01*
G01X4806308Y-4645061D01*
G01X4582560Y-4645061D01*
G01X4582560Y-4590265D01*
G01X4746946Y-4590265D01*
G01X4746946Y-4535470D01*
G01X4801742Y-4535470D01*
G01X4801742Y-4485240D01*
G01X4970694Y-4485240D01*
G01X4970694Y-4535470D01*
G01X5020924Y-4535470D01*
G01X5020924Y-4485240D01*
G01X5020924Y-4485240D01*
G01X4970694Y-4485240D01*
G01X4801742Y-4485240D01*
G01X4696717Y-4485240D01*
G01X4696717Y-4540036D01*
G01X4637355Y-4540036D01*
G01X4637355Y-4485240D01*
G01X4587126Y-4485240D01*
G01X4587126Y-4540036D01*
G01X4363378Y-4540036D01*
G01X4363378Y-4480674D01*
G01X4422739Y-4480674D01*
G01X4582560Y-4480674D01*
G01X4806308Y-4480674D01*
G01X4856537Y-4480674D01*
G01X4856537Y-4430445D01*
G01X4915899Y-4430445D01*
G01X4915899Y-4480674D01*
G01X4966128Y-4480674D01*
G01X4966128Y-4430445D01*
G01X4966128Y-4430445D01*
G01X4915899Y-4430445D01*
G01X4856537Y-4430445D01*
G01X4806308Y-4430445D01*
G01X4806308Y-4480674D01*
G01X4806308Y-4480674D01*
G01X4582560Y-4480674D01*
G01X4582560Y-4430445D01*
G01X4527764Y-4430445D01*
G01X4527764Y-4375649D01*
G01X4587126Y-4375649D01*
G01X4587126Y-4425879D01*
G01X4637355Y-4425879D01*
G01X4637355Y-4375649D01*
G01X4637355Y-4375649D01*
G01X5025490Y-4375649D01*
G01X5025490Y-4480674D01*
G01X5075719Y-4480674D01*
G01X5075719Y-4430445D01*
G01X5135081Y-4430445D01*
G01X5135081Y-4480674D01*
G01X5189876Y-4480674D01*
G01X5189876Y-4535470D01*
G01X5244672Y-4535470D01*
G01X5244672Y-4645061D01*
G01X5244672Y-4645061D01*
G01X5294901Y-4645061D01*
G01X5573445Y-4645061D01*
G01X5623674Y-4645061D01*
G01X5623674Y-4594831D01*
G01X5573445Y-4594831D01*
G01X5573445Y-4645061D01*
G01X5573445Y-4645061D01*
G01X5294901Y-4645061D01*
G01X5294901Y-4590265D01*
G01X5349697Y-4590265D01*
G01X5349697Y-4535470D01*
G01X5409058Y-4535470D01*
G01X5409058Y-4590265D01*
G01X5459288Y-4590265D01*
G01X5518649Y-4590265D01*
G01X5568879Y-4590265D01*
G01X5568879Y-4540036D01*
G01X5683036Y-4540036D01*
G01X5683036Y-4699856D01*
G01X5842856Y-4699856D01*
G01X5842856Y-4540036D01*
G01X5842856Y-4540036D01*
G01X5683036Y-4540036D01*
G01X5568879Y-4540036D01*
G01X5568879Y-4480674D01*
G01X5678470Y-4480674D01*
G01X5678470Y-4430445D01*
G01X5737831Y-4430445D01*
G01X5737831Y-4480674D01*
G01X5842856Y-4480674D01*
G01X5842856Y-4430445D01*
G01X5842856Y-4430445D01*
G01X5737831Y-4430445D01*
G01X5678470Y-4430445D01*
G01X5518649Y-4430445D01*
G01X5518649Y-4590265D01*
G01X5518649Y-4590265D01*
G01X5459288Y-4590265D01*
G01X5459288Y-4371083D01*
G01X5514083Y-4371083D01*
G01X5514083Y-4316288D01*
G01X5573445Y-4316288D01*
G01X5573445Y-4371083D01*
G01X5623674Y-4371083D01*
G01X5623674Y-4316288D01*
G01X5737831Y-4316288D01*
G01X5737831Y-4371083D01*
G01X5842856Y-4371083D01*
G01X5842856Y-4266058D01*
G01X5788061Y-4266058D01*
G01X5788061Y-4211263D01*
G01X5847422Y-4211263D01*
G01X5847422Y-4261492D01*
G01X5902218Y-4261492D01*
G01X5902218Y-4375649D01*
G01X5847422Y-4375649D01*
G01X5847422Y-4425879D01*
G01X5902218Y-4425879D01*
G01X5902218Y-4590265D01*
G01X5902218Y-4590265D01*
G01X5952447Y-4590265D01*
G01X5952447Y-4535470D01*
G01X6007243Y-4535470D01*
G01X6007243Y-4425879D01*
G01X6062038Y-4425879D01*
G01X6062038Y-4266058D01*
G01X6011809Y-4266058D01*
G01X6011809Y-4375649D01*
G01X5952447Y-4375649D01*
G01X5952447Y-4206697D01*
G01X6007243Y-4206697D01*
G01X6007243Y-4156467D01*
G01X5902218Y-4156467D01*
G01X5902218Y-4211263D01*
G01X5847422Y-4211263D01*
G01X5788061Y-4211263D01*
G01X5737831Y-4211263D01*
G01X5737831Y-4266058D01*
G01X5568879Y-4266058D01*
G01X5568879Y-4097106D01*
G01X5628240Y-4097106D01*
G01X5628240Y-4206697D01*
G01X5678470Y-4206697D01*
G01X5678470Y-4151901D01*
G01X5792627Y-4151901D01*
G01X5792627Y-4206697D01*
G01X5842856Y-4206697D01*
G01X5842856Y-4101672D01*
G01X5733265Y-4101672D01*
G01X5733265Y-4046876D01*
G01X5678470Y-4046876D01*
G01X5678470Y-3992081D01*
G01X5628240Y-3992081D01*
G01X5628240Y-4046876D01*
G01X5568879Y-4046876D01*
G01X5568879Y-3992081D01*
G01X5514083Y-3992081D01*
G01X5514083Y-3932719D01*
G01X5573445Y-3932719D01*
G01X5573445Y-3987515D01*
G01X5623674Y-3987515D01*
G01X5623674Y-3937285D01*
G01X5683036Y-3937285D01*
G01X5683036Y-3987515D01*
G01X5737831Y-3987515D01*
G01X5737831Y-4042310D01*
G01X5737831Y-4042310D01*
G01X5788061Y-4042310D01*
G01X5788061Y-3937285D01*
G01X5683036Y-3937285D01*
G01X5623674Y-3937285D01*
G01X5623674Y-3932719D01*
G01X5678470Y-3932719D01*
G01X5678470Y-3882490D01*
G01X5623674Y-3882490D01*
G01X5623674Y-3827694D01*
G01X5573445Y-3827694D01*
G01X5573445Y-3882490D01*
G01X5459288Y-3882490D01*
G01X5459288Y-3823128D01*
G01X5518649Y-3823128D01*
G01X5568879Y-3823128D01*
G01X5568879Y-3718103D01*
G01X5518649Y-3718103D01*
G01X5518649Y-3823128D01*
G01X5518649Y-3823128D01*
G01X5459288Y-3823128D01*
G01X5459288Y-3663308D01*
G01X5628240Y-3663308D01*
G01X5628240Y-3713537D01*
G01X5678470Y-3713537D01*
G01X5678470Y-3663308D01*
G01X5678470Y-3663308D01*
G01X5628240Y-3663308D01*
G01X5459288Y-3663308D01*
G01X5459288Y-3658742D01*
G01X5623674Y-3658742D01*
G01X5623674Y-3608512D01*
G01X5568879Y-3608512D01*
G01X5568879Y-3498921D01*
G01X5463854Y-3498921D01*
G01X5463854Y-3549151D01*
G01X5518649Y-3549151D01*
G01X5518649Y-3608512D01*
G01X5409058Y-3608512D01*
G01X5409058Y-3663308D01*
G01X5299467Y-3663308D01*
G01X5299467Y-3713537D01*
G01X5409058Y-3713537D01*
G01X5409058Y-3772899D01*
G01X5354263Y-3772899D01*
G01X5354263Y-3823128D01*
G01X5409058Y-3823128D01*
G01X5409058Y-3882490D01*
G01X5354263Y-3882490D01*
G01X5354263Y-3932719D01*
G01X5409058Y-3932719D01*
G01X5409058Y-3987515D01*
G01X5463854Y-3987515D01*
G01X5463854Y-4042310D01*
G01X5518649Y-4042310D01*
G01X5518649Y-4266058D01*
G01X5463854Y-4266058D01*
G01X5463854Y-4320854D01*
G01X5294901Y-4320854D01*
G01X5294901Y-4266058D01*
G01X5244672Y-4266058D01*
G01X5244672Y-4430445D01*
G01X5135081Y-4430445D01*
G01X5075719Y-4430445D01*
G01X5075719Y-4375649D01*
G01X5075719Y-4375649D01*
G01X5025490Y-4375649D01*
G01X4637355Y-4375649D01*
G01X4587126Y-4375649D01*
G01X4527764Y-4375649D01*
G01X4477535Y-4375649D01*
G01X4477535Y-4430445D01*
G01X4422739Y-4430445D01*
G01X4422739Y-4480674D01*
G01X4422739Y-4480674D01*
G01X4363378Y-4480674D01*
G01X4363378Y-4375649D01*
G01X4258353Y-4375649D01*
G01X4258353Y-4425879D01*
G01X4313148Y-4425879D01*
G01X4313148Y-4485240D01*
G01X4253787Y-4485240D01*
G01X4253787Y-4430445D01*
G01X4203557Y-4430445D01*
G01X4203557Y-4540036D01*
G01X4089400Y-4540036D01*
G01X4089400Y-4480674D01*
G01X4144196Y-4480674D01*
G01X4144196Y-4266058D01*
G01X4203557Y-4266058D01*
G01X4203557Y-4371083D01*
G01X4253787Y-4371083D01*
G01X4253787Y-4320854D01*
G01X4422739Y-4320854D01*
G01X4422739Y-4371083D01*
G01X4472969Y-4371083D01*
G01X4532330Y-4371083D01*
G01X4582560Y-4371083D01*
G01X4582560Y-4320854D01*
G01X4696717Y-4320854D01*
G01X4696717Y-4371083D01*
G01X4746946Y-4371083D01*
G01X4746946Y-4320854D01*
G01X4746946Y-4320854D01*
G01X4696717Y-4320854D01*
G01X4582560Y-4320854D01*
G01X4532330Y-4320854D01*
G01X4532330Y-4371083D01*
G01X4532330Y-4371083D01*
G01X4472969Y-4371083D01*
G01X4472969Y-4320854D01*
G01X4472969Y-4320854D01*
G01X4422739Y-4320854D01*
G01X4253787Y-4320854D01*
G01X4253787Y-4316288D01*
G01X4308582Y-4316288D01*
G01X4308582Y-4266058D01*
G01X4308582Y-4266058D01*
G01X4203557Y-4266058D01*
G01X4144196Y-4266058D01*
G01X4144196Y-4211263D01*
G01X4367944Y-4211263D01*
G01X4367944Y-4261492D01*
G01X4472969Y-4261492D01*
G01X4472969Y-4211263D01*
G01X4472969Y-4211263D01*
G01X4367944Y-4211263D01*
G01X4144196Y-4211263D01*
G01X4144196Y-4206697D01*
G01X4203557Y-4206697D01*
G01X4253787Y-4206697D01*
G01X4253787Y-4156467D01*
G01X4203557Y-4156467D01*
G01X4203557Y-4206697D01*
G01X4203557Y-4206697D01*
G01X4144196Y-4206697D01*
G01X4144196Y-4151901D01*
G01X4198991Y-4151901D01*
G01X4198991Y-4097106D01*
G01X4253787Y-4097106D01*
G01X4253787Y-4046876D01*
G01X4198991Y-4046876D01*
G01X4198991Y-3992081D01*
G01X4089400Y-3992081D01*
G01X4089400Y-3932719D01*
G01X4144196Y-3932719D01*
G01X4144196Y-3877924D01*
G01X4203557Y-3877924D01*
G01X4203557Y-3932719D01*
G01X4313148Y-3932719D01*
G01X4313148Y-3992081D01*
G01X4258353Y-3992081D01*
G01X4258353Y-4042310D01*
G01X4313148Y-4042310D01*
G01X4313148Y-4101672D01*
G01X4258353Y-4101672D01*
G01X4258353Y-4151901D01*
G01X4313148Y-4151901D01*
G01X4313148Y-4206697D01*
G01X4363378Y-4206697D01*
G01X4363378Y-4156467D01*
G01X4477535Y-4156467D01*
G01X4477535Y-4206697D01*
G01X4532330Y-4206697D01*
G01X4532330Y-4261492D01*
G01X4582560Y-4261492D01*
G01X4582560Y-4206697D01*
G01X4641921Y-4206697D01*
G01X4641921Y-4266058D01*
G01X4587126Y-4266058D01*
G01X4587126Y-4316288D01*
G01X4587126Y-4316288D01*
G01X4692151Y-4316288D01*
G01X4692151Y-4261492D01*
G01X4746946Y-4261492D01*
G01X4746946Y-4206697D01*
G01X4801742Y-4206697D01*
G01X4801742Y-4156467D01*
G01X4861103Y-4156467D01*
G01X4861103Y-4316288D01*
G01X4915899Y-4316288D01*
G01X4915899Y-4371083D01*
G01X4966128Y-4371083D01*
G01X4966128Y-4316288D01*
G01X5020924Y-4316288D01*
G01X5020924Y-4261492D01*
G01X5020924Y-4261492D01*
G01X5080285Y-4261492D01*
G01X5080285Y-4371083D01*
G01X5185310Y-4371083D01*
G01X5185310Y-4320854D01*
G01X5130515Y-4320854D01*
G01X5130515Y-4261492D01*
G01X5240106Y-4261492D01*
G01X5240106Y-4211263D01*
G01X5299467Y-4211263D01*
G01X5299467Y-4261492D01*
G01X5349697Y-4261492D01*
G01X5409058Y-4261492D01*
G01X5459288Y-4261492D01*
G01X5459288Y-4211263D01*
G01X5409058Y-4211263D01*
G01X5409058Y-4261492D01*
G01X5409058Y-4261492D01*
G01X5349697Y-4261492D01*
G01X5349697Y-4211263D01*
G01X5349697Y-4211263D01*
G01X5299467Y-4211263D01*
G01X5240106Y-4211263D01*
G01X5185310Y-4211263D01*
G01X5185310Y-4156467D01*
G01X5135081Y-4156467D01*
G01X5135081Y-4211263D01*
G01X5020924Y-4211263D01*
G01X5020924Y-4156467D01*
G01X4970694Y-4156467D01*
G01X4970694Y-4266058D01*
G01X4911333Y-4266058D01*
G01X4911333Y-4156467D01*
G01X4861103Y-4156467D01*
G01X4801742Y-4156467D01*
G01X4801742Y-4097106D01*
G01X4856537Y-4097106D01*
G01X4856537Y-4046876D01*
G01X5025490Y-4046876D01*
G01X5025490Y-4151901D01*
G01X5075719Y-4151901D01*
G01X5075719Y-4046876D01*
G01X5075719Y-4046876D01*
G01X5025490Y-4046876D01*
G01X4856537Y-4046876D01*
G01X4856537Y-4042310D01*
G01X4911333Y-4042310D01*
G01X4911333Y-3992081D01*
G01X4856537Y-3992081D01*
G01X4856537Y-3937285D01*
G01X4746946Y-3937285D01*
G01X4746946Y-3882490D01*
G01X4861103Y-3882490D01*
G01X4861103Y-3932719D01*
G01X4911333Y-3932719D01*
G01X4911333Y-3882490D01*
G01X4911333Y-3882490D01*
G01X4861103Y-3882490D01*
G01X4746946Y-3882490D01*
G01X4696717Y-3882490D01*
G01X4696717Y-3937285D01*
G01X4637355Y-3937285D01*
G01X4637355Y-3882490D01*
G01X4582560Y-3882490D01*
G01X4582560Y-3827694D01*
G01X4641921Y-3827694D01*
G01X4641921Y-3877924D01*
G01X4692151Y-3877924D01*
G01X4692151Y-3827694D01*
G01X4692151Y-3827694D01*
G01X4806308Y-3827694D01*
G01X4806308Y-3877924D01*
G01X4856537Y-3877924D01*
G01X4856537Y-3827694D01*
G01X4856537Y-3827694D01*
G01X4915899Y-3827694D01*
G01X4915899Y-3877924D01*
G01X4970694Y-3877924D01*
G01X4970694Y-3937285D01*
G01X4915899Y-3937285D01*
G01X4915899Y-3987515D01*
G01X4970694Y-3987515D01*
G01X4970694Y-4042310D01*
G01X4970694Y-4042310D01*
G01X5020924Y-4042310D01*
G01X5020924Y-3937285D01*
G01X5080285Y-3937285D01*
G01X5080285Y-3987515D01*
G01X5135081Y-3987515D01*
G01X5135081Y-4097106D01*
G01X5189876Y-4097106D01*
G01X5189876Y-4151901D01*
G01X5244672Y-4151901D01*
G01X5244672Y-4206697D01*
G01X5244672Y-4206697D01*
G01X5294901Y-4206697D01*
G01X5294901Y-4151901D01*
G01X5349697Y-4151901D01*
G01X5349697Y-4101672D01*
G01X5409058Y-4101672D01*
G01X5409058Y-4151901D01*
G01X5459288Y-4151901D01*
G01X5459288Y-4101672D01*
G01X5459288Y-4101672D01*
G01X5409058Y-4101672D01*
G01X5349697Y-4101672D01*
G01X5240106Y-4101672D01*
G01X5240106Y-4042310D01*
G01X5299467Y-4042310D01*
G01X5354263Y-4042310D01*
G01X5354263Y-4097106D01*
G01X5404492Y-4097106D01*
G01X5404492Y-3992081D01*
G01X5299467Y-3992081D01*
G01X5299467Y-4042310D01*
G01X5299467Y-4042310D01*
G01X5240106Y-4042310D01*
G01X5240106Y-3992081D01*
G01X5185310Y-3992081D01*
G01X5185310Y-3882490D01*
G01X5135081Y-3882490D01*
G01X5135081Y-3937285D01*
G01X5080285Y-3937285D01*
G01X5020924Y-3937285D01*
G01X5020924Y-3827694D01*
G01X4915899Y-3827694D01*
G01X4856537Y-3827694D01*
G01X4806308Y-3827694D01*
G01X4692151Y-3827694D01*
G01X4641921Y-3827694D01*
G01X4582560Y-3827694D01*
G01X4532330Y-3827694D01*
G01X4532330Y-4042310D01*
G01X4582560Y-4042310D01*
G01X4582560Y-3987515D01*
G01X4696717Y-3987515D01*
G01X4696717Y-4046876D01*
G01X4641921Y-4046876D01*
G01X4641921Y-4097106D01*
G01X4751512Y-4097106D01*
G01X4751512Y-4156467D01*
G01X4582560Y-4156467D01*
G01X4582560Y-4101672D01*
G01X4532330Y-4101672D01*
G01X4532330Y-4156467D01*
G01X4477535Y-4156467D01*
G01X4363378Y-4156467D01*
G01X4363378Y-4151901D01*
G01X4472969Y-4151901D01*
G01X4472969Y-4101672D01*
G01X4418173Y-4101672D01*
G01X4418173Y-4042310D01*
G01X4472969Y-4042310D01*
G01X4472969Y-3992081D01*
G01X4363378Y-3992081D01*
G01X4363378Y-3882490D01*
G01X4422739Y-3882490D01*
G01X4422739Y-3932719D01*
G01X4472969Y-3932719D01*
G01X4472969Y-3882490D01*
G01X4472969Y-3882490D01*
G01X4422739Y-3882490D01*
G01X4363378Y-3882490D01*
G01X4253787Y-3882490D01*
G01X4253787Y-3827694D01*
G01X4144196Y-3827694D01*
G01X4144196Y-3772899D01*
G01X4258353Y-3772899D01*
G01X4258353Y-3823128D01*
G01X4308582Y-3823128D01*
G01X4308582Y-3772899D01*
G01X4308582Y-3772899D01*
G01X4258353Y-3772899D01*
G01X4144196Y-3772899D01*
G01X4144196Y-3663308D01*
G01X4203557Y-3663308D01*
G01X4203557Y-3768333D01*
G01X4253787Y-3768333D01*
G01X4253787Y-3713537D01*
G01X4313148Y-3713537D01*
G01X4313148Y-3768333D01*
G01X4313148Y-3768333D01*
G01X4367944Y-3768333D01*
G01X4367944Y-3877924D01*
G01X4418173Y-3877924D01*
G01X4418173Y-3823128D01*
G01X4527764Y-3823128D01*
G01X4527764Y-3772899D01*
G01X4587126Y-3772899D01*
G01X4587126Y-3823128D01*
G01X4637355Y-3823128D01*
G01X4637355Y-3772899D01*
G01X4637355Y-3772899D01*
G01X4587126Y-3772899D01*
G01X4527764Y-3772899D01*
G01X4527764Y-3713537D01*
G01X4582560Y-3713537D01*
G01X4582560Y-3663308D01*
G01X4422739Y-3663308D01*
G01X4422739Y-3713537D01*
G01X4477535Y-3713537D01*
G01X4477535Y-3772899D01*
G01X4418173Y-3772899D01*
G01X4418173Y-3718103D01*
G01X4363378Y-3718103D01*
G01X4363378Y-3663308D01*
G01X4203557Y-3663308D01*
G01X4144196Y-3663308D01*
G01X4144196Y-3608512D01*
G01X4089400Y-3608512D01*
G01X4089400Y-3553717D01*
G01X4422739Y-3553717D01*
G01X4422739Y-3603946D01*
G01X4472969Y-3603946D01*
G01X4472969Y-3553717D01*
G01X4472969Y-3553717D01*
G01X4422739Y-3553717D01*
G01X4089400Y-3553717D01*
G01X4089400Y-3498921D01*
G01X4148762Y-3498921D01*
G01X4148762Y-3549151D01*
G01X4198991Y-3549151D01*
G01X4198991Y-3498921D01*
G01X4198991Y-3498921D01*
G01X4148762Y-3498921D01*
G01X4089400Y-3498921D01*
G01X4089400Y-3494355D01*
G01X4144196Y-3494355D01*
G01X4144196Y-3444126D01*
G01X4089400Y-3444126D01*
G01X4089400Y-3384764D01*
G01X4148762Y-3384764D01*
G01X4148762Y-3439560D01*
G01X4308582Y-3439560D01*
G01X4308582Y-3384764D01*
G01X4477535Y-3384764D01*
G01X4477535Y-3444126D01*
G01X4313148Y-3444126D01*
G01X4313148Y-3498921D01*
G01X4258353Y-3498921D01*
G01X4258353Y-3549151D01*
G01X4363378Y-3549151D01*
G01X4363378Y-3494355D01*
G01X4477535Y-3494355D01*
G01X4477535Y-3549151D01*
G01X4532330Y-3549151D01*
G01X4532330Y-3603946D01*
G01X4587126Y-3603946D01*
G01X4587126Y-3658742D01*
G01X4641921Y-3658742D01*
G01X4641921Y-3768333D01*
G01X4751512Y-3768333D01*
G01X4751512Y-3823128D01*
G01X4801742Y-3823128D01*
G01X4861103Y-3823128D01*
G01X4911333Y-3823128D01*
G01X4911333Y-3772899D01*
G01X5080285Y-3772899D01*
G01X5080285Y-3877924D01*
G01X5130515Y-3877924D01*
G01X5130515Y-3827694D01*
G01X5244672Y-3827694D01*
G01X5244672Y-3987515D01*
G01X5294901Y-3987515D01*
G01X5294901Y-3877924D01*
G01X5349697Y-3877924D01*
G01X5349697Y-3827694D01*
G01X5349697Y-3827694D01*
G01X5244672Y-3827694D01*
G01X5130515Y-3827694D01*
G01X5130515Y-3823128D01*
G01X5240106Y-3823128D01*
G01X5240106Y-3772899D01*
G01X5240106Y-3772899D01*
G01X5080285Y-3772899D01*
G01X4911333Y-3772899D01*
G01X4861103Y-3772899D01*
G01X4861103Y-3823128D01*
G01X4861103Y-3823128D01*
G01X4801742Y-3823128D01*
G01X4801742Y-3768333D01*
G01X4856537Y-3768333D01*
G01X4856537Y-3718103D01*
G01X4801742Y-3718103D01*
G01X4801742Y-3663308D01*
G01X4861103Y-3663308D01*
G01X4861103Y-3713537D01*
G01X4915899Y-3713537D01*
G01X4915899Y-3768333D01*
G01X4915899Y-3768333D01*
G01X4966128Y-3768333D01*
G01X4966128Y-3718103D01*
G01X5025490Y-3718103D01*
G01X5025490Y-3768333D01*
G01X5075719Y-3768333D01*
G01X5075719Y-3718103D01*
G01X5075719Y-3718103D01*
G01X5025490Y-3718103D01*
G01X4966128Y-3718103D01*
G01X4966128Y-3713537D01*
G01X5135081Y-3713537D01*
G01X5185310Y-3713537D01*
G01X5185310Y-3663308D01*
G01X5135081Y-3663308D01*
G01X5135081Y-3713537D01*
G01X5135081Y-3713537D01*
G01X4966128Y-3713537D01*
G01X4966128Y-3663308D01*
G01X4861103Y-3663308D01*
G01X4801742Y-3663308D01*
G01X4801742Y-3603946D01*
G01X4856537Y-3603946D01*
G01X4915899Y-3603946D01*
G01X4970694Y-3603946D01*
G01X4970694Y-3658742D01*
G01X5020924Y-3658742D01*
G01X5189876Y-3658742D01*
G01X5294901Y-3658742D01*
G01X5294901Y-3608512D01*
G01X5240106Y-3608512D01*
G01X5240106Y-3553717D01*
G01X5299467Y-3553717D01*
G01X5299467Y-3603946D01*
G01X5404492Y-3603946D01*
G01X5404492Y-3553717D01*
G01X5404492Y-3553717D01*
G01X5299467Y-3553717D01*
G01X5240106Y-3553717D01*
G01X5189876Y-3553717D01*
G01X5189876Y-3658742D01*
G01X5189876Y-3658742D01*
G01X5020924Y-3658742D01*
G01X5020924Y-3549151D01*
G01X5075719Y-3549151D01*
G01X5075719Y-3498921D01*
G01X5135081Y-3498921D01*
G01X5135081Y-3549151D01*
G01X5185310Y-3549151D01*
G01X5185310Y-3498921D01*
G01X5185310Y-3498921D01*
G01X5135081Y-3498921D01*
G01X5075719Y-3498921D01*
G01X4970694Y-3498921D01*
G01X4970694Y-3553717D01*
G01X4915899Y-3553717D01*
G01X4915899Y-3603946D01*
G01X4915899Y-3603946D01*
G01X4856537Y-3603946D01*
G01X4856537Y-3498921D01*
G01X4806308Y-3498921D01*
G01X4806308Y-3553717D01*
G01X4746946Y-3553717D01*
G01X4746946Y-3494355D01*
G01X4801742Y-3494355D01*
G01X4801742Y-3389330D01*
G01X4915899Y-3389330D01*
G01X4915899Y-3439560D01*
G01X4966128Y-3439560D01*
G01X4966128Y-3389330D01*
G01X4966128Y-3389330D01*
G01X4915899Y-3389330D01*
G01X4801742Y-3389330D01*
G01X4801742Y-3384764D01*
G01X4911333Y-3384764D01*
G01X4911333Y-3334535D01*
G01X4856537Y-3334535D01*
G01X4856537Y-3279739D01*
G01X4806308Y-3279739D01*
G01X4806308Y-3334535D01*
G01X4746946Y-3334535D01*
G01X4746946Y-3275173D01*
G01X4801742Y-3275173D01*
G01X4801742Y-3224944D01*
G01X4915899Y-3224944D01*
G01X4915899Y-3329969D01*
G01X4966128Y-3329969D01*
G01X4966128Y-3275173D01*
G01X5025490Y-3275173D01*
G01X5025490Y-3334535D01*
G01X4970694Y-3334535D01*
G01X4970694Y-3384764D01*
G01X5025490Y-3384764D01*
G01X5025490Y-3439560D01*
G01X5025490Y-3439560D01*
G01X5080285Y-3439560D01*
G01X5080285Y-3494355D01*
G01X5130515Y-3494355D01*
G01X5130515Y-3439560D01*
G01X5185310Y-3439560D01*
G01X5185310Y-3279739D01*
G01X5135081Y-3279739D01*
G01X5135081Y-3334535D01*
G01X5075719Y-3334535D01*
G01X5075719Y-3275173D01*
G01X5130515Y-3275173D01*
G01X5130515Y-3170148D01*
G01X5025490Y-3170148D01*
G01X5025490Y-3224944D01*
G01X4915899Y-3224944D01*
G01X4801742Y-3224944D01*
G01X4746946Y-3224944D01*
G01X4746946Y-3170148D01*
G01X4637355Y-3170148D01*
G01X4637355Y-3165582D01*
G01X4751512Y-3165582D01*
G01X4801742Y-3165582D01*
G01X4801742Y-3115353D01*
G01X4751512Y-3115353D01*
G01X4751512Y-3165582D01*
G01X4751512Y-3165582D01*
G01X4637355Y-3165582D01*
G01X4637355Y-3115353D01*
G01X4587126Y-3115353D01*
G01X4587126Y-3220378D01*
G01X4641921Y-3220378D01*
G01X4641921Y-3275173D01*
G01X4696717Y-3275173D01*
G01X4696717Y-3334535D01*
G01X4641921Y-3334535D01*
G01X4641921Y-3384764D01*
G01X4751512Y-3384764D01*
G01X4751512Y-3444126D01*
G01X4696717Y-3444126D01*
G01X4696717Y-3498921D01*
G01X4641921Y-3498921D01*
G01X4641921Y-3549151D01*
G01X4696717Y-3549151D01*
G01X4696717Y-3608512D01*
G01X4637355Y-3608512D01*
G01X4637355Y-3553717D01*
G01X4582560Y-3553717D01*
G01X4582560Y-3498921D01*
G01X4527764Y-3498921D01*
G01X4527764Y-3444126D01*
G01X4587126Y-3444126D01*
G01X4587126Y-3494355D01*
G01X4637355Y-3494355D01*
G01X4637355Y-3444126D01*
G01X4637355Y-3444126D01*
G01X4587126Y-3444126D01*
G01X4527764Y-3444126D01*
G01X4527764Y-3439560D01*
G01X4582560Y-3439560D01*
G01X4582560Y-3389330D01*
G01X4527764Y-3389330D01*
G01X4527764Y-3279739D01*
G01X4587126Y-3279739D01*
G01X4587126Y-3329969D01*
G01X4637355Y-3329969D01*
G01X4637355Y-3279739D01*
G01X4637355Y-3279739D01*
G01X4587126Y-3279739D01*
G01X4527764Y-3279739D01*
G01X4527764Y-3005762D01*
G01X4641921Y-3005762D01*
G01X4641921Y-3110787D01*
G01X4692151Y-3110787D01*
G01X4806308Y-3110787D01*
G01X4861103Y-3110787D01*
G01X4861103Y-3165582D01*
G01X4911333Y-3165582D01*
G01X4911333Y-3115353D01*
G01X5135081Y-3115353D01*
G01X5135081Y-3165582D01*
G01X5185310Y-3165582D01*
G01X5185310Y-3115353D01*
G01X5185310Y-3115353D01*
G01X5135081Y-3115353D01*
G01X4911333Y-3115353D01*
G01X4911333Y-3060557D01*
G01X4970694Y-3060557D01*
G01X4970694Y-3110787D01*
G01X5020924Y-3110787D01*
G01X5020924Y-3060557D01*
G01X5020924Y-3060557D01*
G01X4970694Y-3060557D01*
G01X4911333Y-3060557D01*
G01X4806308Y-3060557D01*
G01X4806308Y-3110787D01*
G01X4806308Y-3110787D01*
G01X4692151Y-3110787D01*
G01X4692151Y-3005762D01*
G01X4692151Y-3005762D01*
G01X4641921Y-3005762D01*
G01X4527764Y-3005762D01*
G01X4527764Y-3001196D01*
G01X4637355Y-3001196D01*
G01X4637355Y-2946400D01*
G01X4806308Y-2946400D01*
G01X4806308Y-3001196D01*
G01X4911333Y-3001196D01*
G01X4911333Y-2946400D01*
G01X4970694Y-2946400D01*
G01X4970694Y-3001196D01*
G01X5130515Y-3001196D01*
G01X5130515Y-2946400D01*
G01X5189876Y-2946400D01*
G01X5189876Y-3055991D01*
G01X5349697Y-3055991D01*
G01X5349697Y-2946400D01*
G01X5409058Y-2946400D01*
G01X5409058Y-3060557D01*
G01X5354263Y-3060557D01*
G01X5354263Y-3115353D01*
G01X5244672Y-3115353D01*
G01X5244672Y-3165582D01*
G01X5299467Y-3165582D01*
G01X5299467Y-3224944D01*
G01X5244672Y-3224944D01*
G01X5244672Y-3444126D01*
G01X5189876Y-3444126D01*
G01X5189876Y-3494355D01*
G01X5294901Y-3494355D01*
G01X5294901Y-3384764D01*
G01X5354263Y-3384764D01*
G01X5354263Y-3494355D01*
G01X5459288Y-3494355D01*
G01X5459288Y-3444126D01*
G01X5404492Y-3444126D01*
G01X5404492Y-3279739D01*
G01X5463854Y-3279739D01*
G01X5463854Y-3329969D01*
G01X5514083Y-3329969D01*
G01X5573445Y-3329969D01*
G01X5623674Y-3329969D01*
G01X5623674Y-3279739D01*
G01X5573445Y-3279739D01*
G01X5573445Y-3329969D01*
G01X5573445Y-3329969D01*
G01X5514083Y-3329969D01*
G01X5514083Y-3279739D01*
G01X5514083Y-3279739D01*
G01X5463854Y-3279739D01*
G01X5404492Y-3279739D01*
G01X5404492Y-3275173D01*
G01X5459288Y-3275173D01*
G01X5459288Y-3224944D01*
G01X5518649Y-3224944D01*
G01X5518649Y-3275173D01*
G01X5568879Y-3275173D01*
G01X5568879Y-3224944D01*
G01X5568879Y-3224944D01*
G01X5518649Y-3224944D01*
G01X5459288Y-3224944D01*
G01X5349697Y-3224944D01*
G01X5349697Y-3165582D01*
G01X5463854Y-3165582D01*
G01X5463854Y-3220378D01*
G01X5514083Y-3220378D01*
G01X5514083Y-3165582D01*
G01X5568879Y-3165582D01*
G01X5568879Y-3055991D01*
G01X5683036Y-3055991D01*
G01X5683036Y-3170148D01*
G01X5573445Y-3170148D01*
G01X5573445Y-3220378D01*
G01X5683036Y-3220378D01*
G01X5683036Y-3334535D01*
G01X5628240Y-3334535D01*
G01X5628240Y-3389330D01*
G01X5568879Y-3389330D01*
G01X5568879Y-3334535D01*
G01X5518649Y-3334535D01*
G01X5518649Y-3389330D01*
G01X5463854Y-3389330D01*
G01X5463854Y-3439560D01*
G01X5573445Y-3439560D01*
G01X5573445Y-3494355D01*
G01X5628240Y-3494355D01*
G01X5628240Y-3603946D01*
G01X5678470Y-3603946D01*
G01X5678470Y-3549151D01*
G01X5733265Y-3549151D01*
G01X5733265Y-3498921D01*
G01X5678470Y-3498921D01*
G01X5678470Y-3384764D01*
G01X6066604Y-3384764D01*
G01X6066604Y-3494355D01*
G01X6121400Y-3494355D01*
G01X6121400Y-3553717D01*
G01X6062038Y-3553717D01*
G01X6062038Y-3498921D01*
G01X5897652Y-3498921D01*
G01X5897652Y-3444126D01*
G01X5792627Y-3444126D01*
G01X5792627Y-3608512D01*
G01X5737831Y-3608512D01*
G01X5737831Y-3718103D01*
G01X5683036Y-3718103D01*
G01X5683036Y-3772899D01*
G01X5628240Y-3772899D01*
G01X5628240Y-3823128D01*
G01X5792627Y-3823128D01*
G01X5792627Y-3877924D01*
G01X5842856Y-3877924D01*
G01X5842856Y-3823128D01*
G01X5897652Y-3823128D01*
G01X5897652Y-3768333D01*
G01X5952447Y-3768333D01*
G01X5952447Y-3718103D01*
G01X5842856Y-3718103D01*
G01X5842856Y-3658742D01*
G01X5952447Y-3658742D01*
G01X5952447Y-3608512D01*
G01X5842856Y-3608512D01*
G01X5842856Y-3549151D01*
G01X5957013Y-3549151D01*
G01X5957013Y-3603946D01*
G01X6121400Y-3603946D01*
G01X6121400Y-3663308D01*
G01X6066604Y-3663308D01*
G01X6066604Y-3718103D01*
G01X6011809Y-3718103D01*
G01X6011809Y-3768333D01*
G01X6121400Y-3768333D01*
G01X6121400Y-3827694D01*
G01X6066604Y-3827694D01*
G01X6066604Y-3932719D01*
G01X6121400Y-3932719D01*
G01X6121400Y-3992081D01*
G01X5952447Y-3992081D01*
G01X5952447Y-3937285D01*
G01X5897652Y-3937285D01*
G01X5897652Y-3882490D01*
G01X5847422Y-3882490D01*
G01X5847422Y-4042310D01*
G01X5902218Y-4042310D01*
G01X5902218Y-4097106D01*
G01X5952447Y-4097106D01*
G01X5952447Y-4042310D01*
G01X6011809Y-4042310D01*
G01X6011809Y-4097106D01*
G01X6062038Y-4097106D01*
G01X6062038Y-4042310D01*
G01X6121400Y-4042310D01*
G01X6121400Y-4101672D01*
G01X6066604Y-4101672D01*
G01X6066604Y-4206697D01*
G01X6121400Y-4206697D01*
G01X6121400Y-4485240D01*
G01X6066604Y-4485240D01*
G01X6066604Y-4594831D01*
G01X5957013Y-4594831D01*
G01X5957013Y-4649627D01*
G01X5902218Y-4649627D01*
G01X5902218Y-4699856D01*
G01X5957013Y-4699856D01*
G01X5957013Y-4759218D01*
G01X5792627Y-4759218D01*
G01X5792627Y-4814013D01*
G01X5733265Y-4814013D01*
G01X5733265Y-4759218D01*
G01X5683036Y-4759218D01*
G01X5683036Y-4868809D01*
G01X5623674Y-4868809D01*
G01X5623674Y-4814013D01*
G01X5568879Y-4814013D01*
G01X5568879Y-4759218D01*
G01X5518649Y-4759218D01*
G01X5518649Y-4864243D01*
G01X5573445Y-4864243D01*
G01X5573445Y-4978400D01*
G01X5514083Y-4978400D01*
G01X5514083Y-4923604D01*
G01X5463854Y-4923604D01*
G01X5463854Y-4978400D01*
G01X5404492Y-4978400D01*
G01X5404492Y-4919038D01*
G01X5459288Y-4919038D01*
G01X5459288Y-4868809D01*
G01X5404492Y-4868809D01*
G01X5404492Y-4754652D01*
G01X5514083Y-4754652D01*
G01X5514083Y-4649627D01*
G01X5409058Y-4649627D01*
G01X5409058Y-4704422D01*
G01X5349697Y-4704422D01*
G01X5349697Y-4649627D01*
G01X5299467Y-4649627D01*
G01X5299467Y-4704422D01*
G01X5244672Y-4704422D01*
G01X5244672Y-4754652D01*
G01X5299467Y-4754652D01*
G01X5299467Y-4814013D01*
G01X5244672Y-4814013D01*
G01X5244672Y-4864243D01*
G01X5299467Y-4864243D01*
G01X5299467Y-4919038D01*
G01X5354263Y-4919038D01*
G01X5354263Y-4978400D01*
G01X5294901Y-4978400D01*
G01X5294901Y-4923604D01*
G01X5244672Y-4923604D01*
G01X5244672Y-4978400D01*
G01X5075719Y-4978400D01*
G01X5075719Y-4868809D01*
G01X5025490Y-4868809D01*
G01X5025490Y-4923604D01*
G01X4966128Y-4923604D01*
G01X4966128Y-4809447D01*
G01X5020924Y-4809447D01*
G01X5020924Y-4759218D01*
G01X4915899Y-4759218D01*
G01X4915899Y-4814013D01*
G01X4861103Y-4814013D01*
G01X4861103Y-4864243D01*
G01X4915899Y-4864243D01*
G01X4915899Y-4978400D01*
G01X4856537Y-4978400D01*
G01X4856537Y-4868809D01*
G01X4751512Y-4868809D01*
G01X4751512Y-4978400D01*
G37*
G36*
G01X5733265Y-4590265D02*
G01X5792627Y-4590265D01*
G01X5792627Y-4649627D01*
G01X5733265Y-4649627D01*
G01X5733265Y-4590265D01*
G37*
G36*
G01X5354263Y-4485240D02*
G01X5294901Y-4485240D01*
G01X5294901Y-4425879D01*
G01X5349697Y-4425879D01*
G01X5349697Y-4371083D01*
G01X5409058Y-4371083D01*
G01X5409058Y-4430445D01*
G01X5354263Y-4430445D01*
G01X5354263Y-4485240D01*
G37*
G36*
G01X4746946Y-3987515D02*
G01X4806308Y-3987515D01*
G01X4806308Y-4046876D01*
G01X4746946Y-4046876D01*
G01X4746946Y-3987515D01*
G37*
G36*
G01X4371582Y-3334535D02*
G01X4195353Y-3334535D01*
G01X4194755Y-3332252D01*
G01X4194158Y-3329969D01*
G01X4180726Y-3329969D01*
G01X4180726Y-3325402D01*
G01X4171593Y-3325402D01*
G01X4171593Y-3320836D01*
G01X4162461Y-3320836D01*
G01X4162461Y-3316270D01*
G01X4153328Y-3316270D01*
G01X4153328Y-3311703D01*
G01X4144196Y-3311703D01*
G01X4144196Y-3307137D01*
G01X4139629Y-3307137D01*
G01X4139629Y-3302571D01*
G01X4135063Y-3302571D01*
G01X4135063Y-3298004D01*
G01X4130497Y-3298004D01*
G01X4130497Y-3293438D01*
G01X4125930Y-3293438D01*
G01X4125930Y-3288872D01*
G01X4121364Y-3288872D01*
G01X4121364Y-3284306D01*
G01X4116798Y-3284306D01*
G01X4116798Y-3279739D01*
G01X4113159Y-3279739D01*
G01X4112590Y-3277562D01*
G01X4112020Y-3275384D01*
G01X4109843Y-3274815D01*
G01X4107665Y-3274245D01*
G01X4107665Y-3266307D01*
G01X4105382Y-3265710D01*
G01X4103099Y-3265113D01*
G01X4103099Y-3257174D01*
G01X4100816Y-3256577D01*
G01X4098533Y-3255980D01*
G01X4098533Y-3243475D01*
G01X4096249Y-3242878D01*
G01X4093966Y-3242281D01*
G01X4093966Y-3229776D01*
G01X4091683Y-3229179D01*
G01X4089400Y-3228582D01*
G01X4089400Y-3083655D01*
G01X4148762Y-3083655D01*
G01X4148762Y-3197280D01*
G01X4151045Y-3197877D01*
G01X4153328Y-3198474D01*
G01X4153328Y-3220111D01*
G01X4155611Y-3220708D01*
G01X4157894Y-3221305D01*
G01X4157894Y-3229244D01*
G01X4160178Y-3229841D01*
G01X4162461Y-3230438D01*
G01X4162461Y-3238643D01*
G01X4167027Y-3238643D01*
G01X4167027Y-3242943D01*
G01X4169310Y-3243540D01*
G01X4171593Y-3244137D01*
G01X4171593Y-3247509D01*
G01X4173876Y-3248106D01*
G01X4176160Y-3248703D01*
G01X4176160Y-3252342D01*
G01X4180726Y-3252342D01*
G01X4180726Y-3256908D01*
G01X4185292Y-3256908D01*
G01X4185292Y-3261474D01*
G01X4194425Y-3261474D01*
G01X4194425Y-3266040D01*
G01X4203557Y-3266040D01*
G01X4203557Y-3270607D01*
G01X4225461Y-3270607D01*
G01X4226058Y-3272890D01*
G01X4226655Y-3275173D01*
G01X4226655Y-3275173D01*
G01X4340280Y-3275173D01*
G01X4340877Y-3272890D01*
G01X4341474Y-3270607D01*
G01X4363111Y-3270607D01*
G01X4363708Y-3268324D01*
G01X4364305Y-3266040D01*
G01X4372244Y-3266040D01*
G01X4372841Y-3263757D01*
G01X4373438Y-3261474D01*
G01X4381643Y-3261474D01*
G01X4381643Y-3256908D01*
G01X4386209Y-3256908D01*
G01X4386209Y-3253269D01*
G01X4388492Y-3252672D01*
G01X4390775Y-3252075D01*
G01X4390775Y-3248703D01*
G01X4393058Y-3248106D01*
G01X4395342Y-3247509D01*
G01X4395342Y-3243209D01*
G01X4399908Y-3243209D01*
G01X4399908Y-3238643D01*
G01X4404474Y-3238643D01*
G01X4404474Y-3229510D01*
G01X4409040Y-3229510D01*
G01X4409040Y-3220378D01*
G01X4413607Y-3220378D01*
G01X4413607Y-3198474D01*
G01X4415890Y-3197877D01*
G01X4418173Y-3197280D01*
G01X4418173Y-3083655D01*
G01X4415890Y-3083058D01*
G01X4413607Y-3082461D01*
G01X4413607Y-3060824D01*
G01X4411324Y-3060227D01*
G01X4409040Y-3059629D01*
G01X4409040Y-3051691D01*
G01X4406757Y-3051094D01*
G01X4404474Y-3050497D01*
G01X4404474Y-3042292D01*
G01X4399908Y-3042292D01*
G01X4399908Y-3037992D01*
G01X4397625Y-3037395D01*
G01X4395342Y-3036798D01*
G01X4395342Y-3033426D01*
G01X4393058Y-3032829D01*
G01X4390775Y-3032232D01*
G01X4390775Y-3028593D01*
G01X4386209Y-3028593D01*
G01X4386209Y-3024027D01*
G01X4381643Y-3024027D01*
G01X4381643Y-3019461D01*
G01X4372510Y-3019461D01*
G01X4372510Y-3014894D01*
G01X4363378Y-3014894D01*
G01X4363378Y-3010328D01*
G01X4341474Y-3010328D01*
G01X4340877Y-3008045D01*
G01X4340280Y-3005762D01*
G01X4226655Y-3005762D01*
G01X4226058Y-3008045D01*
G01X4225461Y-3010328D01*
G01X4203824Y-3010328D01*
G01X4203227Y-3012611D01*
G01X4202629Y-3014894D01*
G01X4194691Y-3014894D01*
G01X4194094Y-3017178D01*
G01X4193497Y-3019461D01*
G01X4185292Y-3019461D01*
G01X4185292Y-3024027D01*
G01X4180726Y-3024027D01*
G01X4180726Y-3027665D01*
G01X4178443Y-3028263D01*
G01X4176160Y-3028860D01*
G01X4176160Y-3032232D01*
G01X4173876Y-3032829D01*
G01X4171593Y-3033426D01*
G01X4171593Y-3037726D01*
G01X4167027Y-3037726D01*
G01X4167027Y-3042292D01*
G01X4162461Y-3042292D01*
G01X4162461Y-3051425D01*
G01X4157894Y-3051425D01*
G01X4157894Y-3060557D01*
G01X4153328Y-3060557D01*
G01X4153328Y-3082461D01*
G01X4151045Y-3083058D01*
G01X4148762Y-3083655D01*
G01X4089400Y-3083655D01*
G01X4089400Y-3052353D01*
G01X4091683Y-3051755D01*
G01X4093966Y-3051158D01*
G01X4093966Y-3037726D01*
G01X4098533Y-3037726D01*
G01X4098533Y-3028593D01*
G01X4103099Y-3028593D01*
G01X4103099Y-3019461D01*
G01X4107665Y-3019461D01*
G01X4107665Y-3010328D01*
G01X4112231Y-3010328D01*
G01X4112231Y-3001196D01*
G01X4116798Y-3001196D01*
G01X4116798Y-2996629D01*
G01X4121364Y-2996629D01*
G01X4121364Y-2992063D01*
G01X4125930Y-2992063D01*
G01X4125930Y-2987497D01*
G01X4130497Y-2987497D01*
G01X4130497Y-2982930D01*
G01X4135063Y-2982930D01*
G01X4135063Y-2978364D01*
G01X4139629Y-2978364D01*
G01X4139629Y-2973798D01*
G01X4144196Y-2973798D01*
G01X4144196Y-2970159D01*
G01X4146373Y-2969590D01*
G01X4148551Y-2969020D01*
G01X4149120Y-2966843D01*
G01X4149690Y-2964665D01*
G01X4157628Y-2964665D01*
G01X4158225Y-2962382D01*
G01X4158822Y-2960099D01*
G01X4166761Y-2960099D01*
G01X4167358Y-2957816D01*
G01X4167955Y-2955533D01*
G01X4180460Y-2955533D01*
G01X4181057Y-2953249D01*
G01X4181654Y-2950966D01*
G01X4194158Y-2950966D01*
G01X4194755Y-2948683D01*
G01X4195353Y-2946400D01*
G01X4371582Y-2946400D01*
G01X4372179Y-2948683D01*
G01X4372776Y-2950966D01*
G01X4386209Y-2950966D01*
G01X4386209Y-2955533D01*
G01X4395342Y-2955533D01*
G01X4395342Y-2960099D01*
G01X4404474Y-2960099D01*
G01X4404474Y-2964665D01*
G01X4413607Y-2964665D01*
G01X4413607Y-2969231D01*
G01X4422739Y-2969231D01*
G01X4422739Y-2973798D01*
G01X4427306Y-2973798D01*
G01X4427306Y-2978364D01*
G01X4431872Y-2978364D01*
G01X4431872Y-2982930D01*
G01X4436438Y-2982930D01*
G01X4436438Y-2987497D01*
G01X4441004Y-2987497D01*
G01X4441004Y-2992063D01*
G01X4445571Y-2992063D01*
G01X4445571Y-2996629D01*
G01X4450137Y-2996629D01*
G01X4450137Y-3001196D01*
G01X4453776Y-3001196D01*
G01X4454345Y-3003373D01*
G01X4454914Y-3005551D01*
G01X4457092Y-3006120D01*
G01X4459270Y-3006690D01*
G01X4459270Y-3014628D01*
G01X4461553Y-3015225D01*
G01X4463836Y-3015822D01*
G01X4463836Y-3023761D01*
G01X4466119Y-3024358D01*
G01X4468402Y-3024955D01*
G01X4468402Y-3037460D01*
G01X4470685Y-3038057D01*
G01X4472969Y-3038654D01*
G01X4472969Y-3051158D01*
G01X4475252Y-3051755D01*
G01X4477535Y-3052353D01*
G01X4477535Y-3228582D01*
G01X4475252Y-3229179D01*
G01X4472969Y-3229776D01*
G01X4472969Y-3243209D01*
G01X4468402Y-3243209D01*
G01X4468402Y-3252342D01*
G01X4463836Y-3252342D01*
G01X4463836Y-3261474D01*
G01X4459270Y-3261474D01*
G01X4459270Y-3270607D01*
G01X4454703Y-3270607D01*
G01X4454703Y-3279739D01*
G01X4450137Y-3279739D01*
G01X4450137Y-3284306D01*
G01X4445571Y-3284306D01*
G01X4445571Y-3288872D01*
G01X4441004Y-3288872D01*
G01X4441004Y-3293438D01*
G01X4436438Y-3293438D01*
G01X4436438Y-3298004D01*
G01X4431872Y-3298004D01*
G01X4431872Y-3302571D01*
G01X4427306Y-3302571D01*
G01X4427306Y-3307137D01*
G01X4423006Y-3307137D01*
G01X4422409Y-3309420D01*
G01X4421811Y-3311703D01*
G01X4418439Y-3311703D01*
G01X4417842Y-3313987D01*
G01X4417245Y-3316270D01*
G01X4409307Y-3316270D01*
G01X4408710Y-3318553D01*
G01X4408113Y-3320836D01*
G01X4400174Y-3320836D01*
G01X4399577Y-3323119D01*
G01X4398980Y-3325402D01*
G01X4386475Y-3325402D01*
G01X4385878Y-3327685D01*
G01X4385281Y-3329969D01*
G01X4372776Y-3329969D01*
G01X4372179Y-3332252D01*
G01X4371582Y-3334535D01*
G37*
G36*
G01X4367944Y-3224944D02*
G01X4198991Y-3224944D01*
G01X4198991Y-3055991D01*
G01X4367944Y-3055991D01*
G01X4367944Y-3224944D01*
G37*
G36*
G01X6015447Y-3334535D02*
G01X5839218Y-3334535D01*
G01X5838621Y-3332252D01*
G01X5838024Y-3329969D01*
G01X5824591Y-3329969D01*
G01X5824591Y-3325402D01*
G01X5815458Y-3325402D01*
G01X5815458Y-3320836D01*
G01X5806326Y-3320836D01*
G01X5806326Y-3316270D01*
G01X5797193Y-3316270D01*
G01X5797193Y-3311703D01*
G01X5788061Y-3311703D01*
G01X5788061Y-3307137D01*
G01X5783494Y-3307137D01*
G01X5783494Y-3302571D01*
G01X5778928Y-3302571D01*
G01X5778928Y-3298004D01*
G01X5774362Y-3298004D01*
G01X5774362Y-3293438D01*
G01X5769796Y-3293438D01*
G01X5769796Y-3288872D01*
G01X5765229Y-3288872D01*
G01X5765229Y-3284306D01*
G01X5760663Y-3284306D01*
G01X5760663Y-3279739D01*
G01X5757024Y-3279739D01*
G01X5756455Y-3277562D01*
G01X5755886Y-3275384D01*
G01X5753708Y-3274815D01*
G01X5751530Y-3274245D01*
G01X5751530Y-3266307D01*
G01X5749247Y-3265710D01*
G01X5746964Y-3265113D01*
G01X5746964Y-3257174D01*
G01X5744681Y-3256577D01*
G01X5742398Y-3255980D01*
G01X5742398Y-3243475D01*
G01X5740115Y-3242878D01*
G01X5737831Y-3242281D01*
G01X5737831Y-3229776D01*
G01X5735548Y-3229179D01*
G01X5733265Y-3228582D01*
G01X5733265Y-3083655D01*
G01X5792627Y-3083655D01*
G01X5792627Y-3197280D01*
G01X5794910Y-3197877D01*
G01X5797193Y-3198474D01*
G01X5797193Y-3220111D01*
G01X5799476Y-3220708D01*
G01X5801760Y-3221305D01*
G01X5801760Y-3229244D01*
G01X5804043Y-3229841D01*
G01X5806326Y-3230438D01*
G01X5806326Y-3238643D01*
G01X5810892Y-3238643D01*
G01X5810892Y-3242943D01*
G01X5813175Y-3243540D01*
G01X5815458Y-3244137D01*
G01X5815458Y-3247509D01*
G01X5817742Y-3248106D01*
G01X5820025Y-3248703D01*
G01X5820025Y-3252342D01*
G01X5824591Y-3252342D01*
G01X5824591Y-3256908D01*
G01X5829157Y-3256908D01*
G01X5829157Y-3261474D01*
G01X5838290Y-3261474D01*
G01X5838290Y-3266040D01*
G01X5847422Y-3266040D01*
G01X5847422Y-3270607D01*
G01X5869326Y-3270607D01*
G01X5869923Y-3272890D01*
G01X5870520Y-3275173D01*
G01X5870520Y-3275173D01*
G01X5984145Y-3275173D01*
G01X5984742Y-3272890D01*
G01X5985339Y-3270607D01*
G01X6006976Y-3270607D01*
G01X6007573Y-3268324D01*
G01X6008171Y-3266040D01*
G01X6016109Y-3266040D01*
G01X6016706Y-3263757D01*
G01X6017303Y-3261474D01*
G01X6025508Y-3261474D01*
G01X6025508Y-3256908D01*
G01X6030074Y-3256908D01*
G01X6030074Y-3253269D01*
G01X6032357Y-3252672D01*
G01X6034640Y-3252075D01*
G01X6034640Y-3248703D01*
G01X6036924Y-3248106D01*
G01X6039207Y-3247509D01*
G01X6039207Y-3243209D01*
G01X6043773Y-3243209D01*
G01X6043773Y-3238643D01*
G01X6048339Y-3238643D01*
G01X6048339Y-3229510D01*
G01X6052906Y-3229510D01*
G01X6052906Y-3220378D01*
G01X6057472Y-3220378D01*
G01X6057472Y-3198474D01*
G01X6059755Y-3197877D01*
G01X6062038Y-3197280D01*
G01X6062038Y-3083655D01*
G01X6059755Y-3083058D01*
G01X6057472Y-3082461D01*
G01X6057472Y-3060824D01*
G01X6055189Y-3060227D01*
G01X6052906Y-3059629D01*
G01X6052906Y-3051691D01*
G01X6050622Y-3051094D01*
G01X6048339Y-3050497D01*
G01X6048339Y-3042292D01*
G01X6043773Y-3042292D01*
G01X6043773Y-3037992D01*
G01X6041490Y-3037395D01*
G01X6039207Y-3036798D01*
G01X6039207Y-3033426D01*
G01X6036924Y-3032829D01*
G01X6034640Y-3032232D01*
G01X6034640Y-3028593D01*
G01X6030074Y-3028593D01*
G01X6030074Y-3024027D01*
G01X6025508Y-3024027D01*
G01X6025508Y-3019461D01*
G01X6016375Y-3019461D01*
G01X6016375Y-3014894D01*
G01X6007243Y-3014894D01*
G01X6007243Y-3010328D01*
G01X5985339Y-3010328D01*
G01X5984742Y-3008045D01*
G01X5984145Y-3005762D01*
G01X5870520Y-3005762D01*
G01X5869923Y-3008045D01*
G01X5869326Y-3010328D01*
G01X5847689Y-3010328D01*
G01X5847092Y-3012611D01*
G01X5846495Y-3014894D01*
G01X5838556Y-3014894D01*
G01X5837959Y-3017178D01*
G01X5837362Y-3019461D01*
G01X5829157Y-3019461D01*
G01X5829157Y-3024027D01*
G01X5824591Y-3024027D01*
G01X5824591Y-3027665D01*
G01X5822308Y-3028263D01*
G01X5820025Y-3028860D01*
G01X5820025Y-3032232D01*
G01X5817742Y-3032829D01*
G01X5815458Y-3033426D01*
G01X5815458Y-3037726D01*
G01X5810892Y-3037726D01*
G01X5810892Y-3042292D01*
G01X5806326Y-3042292D01*
G01X5806326Y-3051425D01*
G01X5801760Y-3051425D01*
G01X5801760Y-3060557D01*
G01X5797193Y-3060557D01*
G01X5797193Y-3082461D01*
G01X5794910Y-3083058D01*
G01X5792627Y-3083655D01*
G01X5733265Y-3083655D01*
G01X5733265Y-3052353D01*
G01X5735548Y-3051755D01*
G01X5737831Y-3051158D01*
G01X5737831Y-3037726D01*
G01X5742398Y-3037726D01*
G01X5742398Y-3028593D01*
G01X5746964Y-3028593D01*
G01X5746964Y-3019461D01*
G01X5751530Y-3019461D01*
G01X5751530Y-3010328D01*
G01X5756097Y-3010328D01*
G01X5756097Y-3001196D01*
G01X5760663Y-3001196D01*
G01X5760663Y-2996629D01*
G01X5765229Y-2996629D01*
G01X5765229Y-2992063D01*
G01X5769796Y-2992063D01*
G01X5769796Y-2987497D01*
G01X5774362Y-2987497D01*
G01X5774362Y-2982930D01*
G01X5778928Y-2982930D01*
G01X5778928Y-2978364D01*
G01X5783494Y-2978364D01*
G01X5783494Y-2973798D01*
G01X5788061Y-2973798D01*
G01X5788061Y-2970159D01*
G01X5790238Y-2969590D01*
G01X5792416Y-2969020D01*
G01X5792985Y-2966843D01*
G01X5793555Y-2964665D01*
G01X5801493Y-2964665D01*
G01X5802090Y-2962382D01*
G01X5802687Y-2960099D01*
G01X5810626Y-2960099D01*
G01X5811223Y-2957816D01*
G01X5811820Y-2955533D01*
G01X5824325Y-2955533D01*
G01X5824922Y-2953249D01*
G01X5825519Y-2950966D01*
G01X5838024Y-2950966D01*
G01X5838621Y-2948683D01*
G01X5839218Y-2946400D01*
G01X6015447Y-2946400D01*
G01X6016045Y-2948683D01*
G01X6016642Y-2950966D01*
G01X6030074Y-2950966D01*
G01X6030074Y-2955533D01*
G01X6039207Y-2955533D01*
G01X6039207Y-2960099D01*
G01X6048339Y-2960099D01*
G01X6048339Y-2964665D01*
G01X6057472Y-2964665D01*
G01X6057472Y-2969231D01*
G01X6066604Y-2969231D01*
G01X6066604Y-2973798D01*
G01X6071171Y-2973798D01*
G01X6071171Y-2978364D01*
G01X6075737Y-2978364D01*
G01X6075737Y-2982930D01*
G01X6080303Y-2982930D01*
G01X6080303Y-2987497D01*
G01X6084870Y-2987497D01*
G01X6084870Y-2992063D01*
G01X6089436Y-2992063D01*
G01X6089436Y-2996629D01*
G01X6094002Y-2996629D01*
G01X6094002Y-3001196D01*
G01X6097641Y-3001196D01*
G01X6098210Y-3003373D01*
G01X6098780Y-3005551D01*
G01X6100957Y-3006120D01*
G01X6103135Y-3006690D01*
G01X6103135Y-3014628D01*
G01X6105418Y-3015225D01*
G01X6107701Y-3015822D01*
G01X6107701Y-3023761D01*
G01X6109984Y-3024358D01*
G01X6112267Y-3024955D01*
G01X6112267Y-3037460D01*
G01X6114551Y-3038057D01*
G01X6116834Y-3038654D01*
G01X6116834Y-3051158D01*
G01X6119117Y-3051755D01*
G01X6121400Y-3052353D01*
G01X6121400Y-3228582D01*
G01X6119117Y-3229179D01*
G01X6116834Y-3229776D01*
G01X6116834Y-3243209D01*
G01X6112267Y-3243209D01*
G01X6112267Y-3252342D01*
G01X6107701Y-3252342D01*
G01X6107701Y-3261474D01*
G01X6103135Y-3261474D01*
G01X6103135Y-3270607D01*
G01X6098569Y-3270607D01*
G01X6098569Y-3279739D01*
G01X6094002Y-3279739D01*
G01X6094002Y-3284306D01*
G01X6089436Y-3284306D01*
G01X6089436Y-3288872D01*
G01X6084870Y-3288872D01*
G01X6084870Y-3293438D01*
G01X6080303Y-3293438D01*
G01X6080303Y-3298004D01*
G01X6075737Y-3298004D01*
G01X6075737Y-3302571D01*
G01X6071171Y-3302571D01*
G01X6071171Y-3307137D01*
G01X6066871Y-3307137D01*
G01X6066274Y-3309420D01*
G01X6065677Y-3311703D01*
G01X6062305Y-3311703D01*
G01X6061707Y-3313987D01*
G01X6061110Y-3316270D01*
G01X6053172Y-3316270D01*
G01X6052575Y-3318553D01*
G01X6051978Y-3320836D01*
G01X6044039Y-3320836D01*
G01X6043442Y-3323119D01*
G01X6042845Y-3325402D01*
G01X6030340Y-3325402D01*
G01X6029743Y-3327685D01*
G01X6029146Y-3329969D01*
G01X6016642Y-3329969D01*
G01X6016045Y-3332252D01*
G01X6015447Y-3334535D01*
G37*
G36*
G01X6011809Y-3224944D02*
G01X5842856Y-3224944D01*
G01X5842856Y-3055991D01*
G01X6011809Y-3055991D01*
G01X6011809Y-3224944D01*
G37*
G36*
G01X4371582Y-4978400D02*
G01X4195353Y-4978400D01*
G01X4194755Y-4976117D01*
G01X4194158Y-4973834D01*
G01X4180726Y-4973834D01*
G01X4180726Y-4969267D01*
G01X4171593Y-4969267D01*
G01X4171593Y-4964701D01*
G01X4162461Y-4964701D01*
G01X4162461Y-4960135D01*
G01X4153328Y-4960135D01*
G01X4153328Y-4955569D01*
G01X4144196Y-4955569D01*
G01X4144196Y-4951002D01*
G01X4139629Y-4951002D01*
G01X4139629Y-4946436D01*
G01X4135063Y-4946436D01*
G01X4135063Y-4941870D01*
G01X4130497Y-4941870D01*
G01X4130497Y-4937303D01*
G01X4125930Y-4937303D01*
G01X4125930Y-4932737D01*
G01X4121364Y-4932737D01*
G01X4121364Y-4928171D01*
G01X4116798Y-4928171D01*
G01X4116798Y-4923604D01*
G01X4113159Y-4923604D01*
G01X4112590Y-4921427D01*
G01X4112020Y-4919249D01*
G01X4109843Y-4918680D01*
G01X4107665Y-4918110D01*
G01X4107665Y-4910172D01*
G01X4105382Y-4909575D01*
G01X4103099Y-4908978D01*
G01X4103099Y-4901039D01*
G01X4100816Y-4900442D01*
G01X4098533Y-4899845D01*
G01X4098533Y-4887340D01*
G01X4096249Y-4886743D01*
G01X4093966Y-4886146D01*
G01X4093966Y-4873642D01*
G01X4091683Y-4873045D01*
G01X4089400Y-4872447D01*
G01X4089400Y-4727520D01*
G01X4148762Y-4727520D01*
G01X4148762Y-4841145D01*
G01X4151045Y-4841742D01*
G01X4153328Y-4842339D01*
G01X4153328Y-4863976D01*
G01X4155611Y-4864573D01*
G01X4157894Y-4865171D01*
G01X4157894Y-4873109D01*
G01X4160178Y-4873706D01*
G01X4162461Y-4874303D01*
G01X4162461Y-4882508D01*
G01X4167027Y-4882508D01*
G01X4167027Y-4886808D01*
G01X4169310Y-4887405D01*
G01X4171593Y-4888002D01*
G01X4171593Y-4891374D01*
G01X4173876Y-4891971D01*
G01X4176160Y-4892568D01*
G01X4176160Y-4896207D01*
G01X4180726Y-4896207D01*
G01X4180726Y-4900773D01*
G01X4185292Y-4900773D01*
G01X4185292Y-4905339D01*
G01X4194425Y-4905339D01*
G01X4194425Y-4909906D01*
G01X4203557Y-4909906D01*
G01X4203557Y-4914472D01*
G01X4225461Y-4914472D01*
G01X4226058Y-4916755D01*
G01X4226655Y-4919038D01*
G01X4226655Y-4919038D01*
G01X4340280Y-4919038D01*
G01X4340877Y-4916755D01*
G01X4341474Y-4914472D01*
G01X4363111Y-4914472D01*
G01X4363708Y-4912189D01*
G01X4364305Y-4909906D01*
G01X4372244Y-4909906D01*
G01X4372841Y-4907622D01*
G01X4373438Y-4905339D01*
G01X4381643Y-4905339D01*
G01X4381643Y-4900773D01*
G01X4386209Y-4900773D01*
G01X4386209Y-4897135D01*
G01X4388492Y-4896537D01*
G01X4390775Y-4895940D01*
G01X4390775Y-4892568D01*
G01X4393058Y-4891971D01*
G01X4395342Y-4891374D01*
G01X4395342Y-4887074D01*
G01X4399908Y-4887074D01*
G01X4399908Y-4882508D01*
G01X4404474Y-4882508D01*
G01X4404474Y-4873375D01*
G01X4409040Y-4873375D01*
G01X4409040Y-4864243D01*
G01X4413607Y-4864243D01*
G01X4413607Y-4842339D01*
G01X4415890Y-4841742D01*
G01X4418173Y-4841145D01*
G01X4418173Y-4727520D01*
G01X4415890Y-4726923D01*
G01X4413607Y-4726326D01*
G01X4413607Y-4704689D01*
G01X4411324Y-4704092D01*
G01X4409040Y-4703495D01*
G01X4409040Y-4695556D01*
G01X4406757Y-4694959D01*
G01X4404474Y-4694362D01*
G01X4404474Y-4686157D01*
G01X4399908Y-4686157D01*
G01X4399908Y-4681857D01*
G01X4397625Y-4681260D01*
G01X4395342Y-4680663D01*
G01X4395342Y-4677291D01*
G01X4393058Y-4676694D01*
G01X4390775Y-4676097D01*
G01X4390775Y-4672458D01*
G01X4386209Y-4672458D01*
G01X4386209Y-4667892D01*
G01X4381643Y-4667892D01*
G01X4381643Y-4663326D01*
G01X4372510Y-4663326D01*
G01X4372510Y-4658760D01*
G01X4363378Y-4658760D01*
G01X4363378Y-4654193D01*
G01X4341474Y-4654193D01*
G01X4340877Y-4651910D01*
G01X4340280Y-4649627D01*
G01X4226655Y-4649627D01*
G01X4226058Y-4651910D01*
G01X4225461Y-4654193D01*
G01X4203824Y-4654193D01*
G01X4203227Y-4656476D01*
G01X4202629Y-4658760D01*
G01X4194691Y-4658760D01*
G01X4194094Y-4661043D01*
G01X4193497Y-4663326D01*
G01X4185292Y-4663326D01*
G01X4185292Y-4667892D01*
G01X4180726Y-4667892D01*
G01X4180726Y-4671531D01*
G01X4178443Y-4672128D01*
G01X4176160Y-4672725D01*
G01X4176160Y-4676097D01*
G01X4173876Y-4676694D01*
G01X4171593Y-4677291D01*
G01X4171593Y-4681591D01*
G01X4167027Y-4681591D01*
G01X4167027Y-4686157D01*
G01X4162461Y-4686157D01*
G01X4162461Y-4695290D01*
G01X4157894Y-4695290D01*
G01X4157894Y-4704422D01*
G01X4153328Y-4704422D01*
G01X4153328Y-4726326D01*
G01X4151045Y-4726923D01*
G01X4148762Y-4727520D01*
G01X4089400Y-4727520D01*
G01X4089400Y-4696218D01*
G01X4091683Y-4695621D01*
G01X4093966Y-4695024D01*
G01X4093966Y-4681591D01*
G01X4098533Y-4681591D01*
G01X4098533Y-4672458D01*
G01X4103099Y-4672458D01*
G01X4103099Y-4663326D01*
G01X4107665Y-4663326D01*
G01X4107665Y-4654193D01*
G01X4112231Y-4654193D01*
G01X4112231Y-4645061D01*
G01X4116798Y-4645061D01*
G01X4116798Y-4640494D01*
G01X4121364Y-4640494D01*
G01X4121364Y-4635928D01*
G01X4125930Y-4635928D01*
G01X4125930Y-4631362D01*
G01X4130497Y-4631362D01*
G01X4130497Y-4626796D01*
G01X4135063Y-4626796D01*
G01X4135063Y-4622229D01*
G01X4139629Y-4622229D01*
G01X4139629Y-4617663D01*
G01X4144196Y-4617663D01*
G01X4144196Y-4614024D01*
G01X4146373Y-4613455D01*
G01X4148551Y-4612886D01*
G01X4149120Y-4610708D01*
G01X4149690Y-4608530D01*
G01X4157628Y-4608530D01*
G01X4158225Y-4606247D01*
G01X4158822Y-4603964D01*
G01X4166761Y-4603964D01*
G01X4167358Y-4601681D01*
G01X4167955Y-4599398D01*
G01X4180460Y-4599398D01*
G01X4181057Y-4597115D01*
G01X4181654Y-4594831D01*
G01X4194158Y-4594831D01*
G01X4194755Y-4592548D01*
G01X4195353Y-4590265D01*
G01X4371582Y-4590265D01*
G01X4372179Y-4592548D01*
G01X4372776Y-4594831D01*
G01X4386209Y-4594831D01*
G01X4386209Y-4599398D01*
G01X4395342Y-4599398D01*
G01X4395342Y-4603964D01*
G01X4404474Y-4603964D01*
G01X4404474Y-4608530D01*
G01X4413607Y-4608530D01*
G01X4413607Y-4613097D01*
G01X4422739Y-4613097D01*
G01X4422739Y-4617663D01*
G01X4427306Y-4617663D01*
G01X4427306Y-4622229D01*
G01X4431872Y-4622229D01*
G01X4431872Y-4626796D01*
G01X4436438Y-4626796D01*
G01X4436438Y-4631362D01*
G01X4441004Y-4631362D01*
G01X4441004Y-4635928D01*
G01X4445571Y-4635928D01*
G01X4445571Y-4640494D01*
G01X4450137Y-4640494D01*
G01X4450137Y-4645061D01*
G01X4453776Y-4645061D01*
G01X4454345Y-4647238D01*
G01X4454914Y-4649416D01*
G01X4457092Y-4649985D01*
G01X4459270Y-4650555D01*
G01X4459270Y-4658493D01*
G01X4461553Y-4659090D01*
G01X4463836Y-4659687D01*
G01X4463836Y-4667626D01*
G01X4466119Y-4668223D01*
G01X4468402Y-4668820D01*
G01X4468402Y-4681325D01*
G01X4470685Y-4681922D01*
G01X4472969Y-4682519D01*
G01X4472969Y-4695024D01*
G01X4475252Y-4695621D01*
G01X4477535Y-4696218D01*
G01X4477535Y-4872447D01*
G01X4475252Y-4873045D01*
G01X4472969Y-4873642D01*
G01X4472969Y-4887074D01*
G01X4468402Y-4887074D01*
G01X4468402Y-4896207D01*
G01X4463836Y-4896207D01*
G01X4463836Y-4905339D01*
G01X4459270Y-4905339D01*
G01X4459270Y-4914472D01*
G01X4454703Y-4914472D01*
G01X4454703Y-4923604D01*
G01X4450137Y-4923604D01*
G01X4450137Y-4928171D01*
G01X4445571Y-4928171D01*
G01X4445571Y-4932737D01*
G01X4441004Y-4932737D01*
G01X4441004Y-4937303D01*
G01X4436438Y-4937303D01*
G01X4436438Y-4941870D01*
G01X4431872Y-4941870D01*
G01X4431872Y-4946436D01*
G01X4427306Y-4946436D01*
G01X4427306Y-4951002D01*
G01X4423006Y-4951002D01*
G01X4422409Y-4953285D01*
G01X4421811Y-4955569D01*
G01X4418439Y-4955569D01*
G01X4417842Y-4957852D01*
G01X4417245Y-4960135D01*
G01X4409307Y-4960135D01*
G01X4408710Y-4962418D01*
G01X4408113Y-4964701D01*
G01X4400174Y-4964701D01*
G01X4399577Y-4966984D01*
G01X4398980Y-4969267D01*
G01X4386475Y-4969267D01*
G01X4385878Y-4971551D01*
G01X4385281Y-4973834D01*
G01X4372776Y-4973834D01*
G01X4372179Y-4976117D01*
G01X4371582Y-4978400D01*
G37*
G36*
G01X4367944Y-4868809D02*
G01X4198991Y-4868809D01*
G01X4198991Y-4699856D01*
G01X4367944Y-4699856D01*
G01X4367944Y-4868809D01*
G37*
G36*
G01X6062038Y-4645061D02*
G01X6121400Y-4645061D01*
G01X6121400Y-4978400D01*
G01X5952447Y-4978400D01*
G01X5952447Y-4923604D01*
G01X5897652Y-4923604D01*
G01X5897652Y-4868809D01*
G01X5847422Y-4868809D01*
G01X5847422Y-4978400D01*
G01X5733265Y-4978400D01*
G01X5733265Y-4864243D01*
G01X5842856Y-4864243D01*
G01X5842856Y-4809447D01*
G01X5902218Y-4809447D01*
G01X5902218Y-4864243D01*
G01X5957013Y-4864243D01*
G01X5957013Y-4919038D01*
G01X6062038Y-4919038D01*
G01X6062038Y-4759218D01*
G01X6007243Y-4759218D01*
G01X6007243Y-4699856D01*
G01X6062038Y-4699856D01*
G01X6062038Y-4645061D01*
G37*
G36*
G01X5683036Y-3005762D02*
G01X5459288Y-3005762D01*
G01X5459288Y-2946400D01*
G01X5683036Y-2946400D01*
G01X5683036Y-3005762D01*
G37*
G36*
G01X5299467Y-3005762D02*
G01X5240106Y-3005762D01*
G01X5240106Y-2946400D01*
G01X5299467Y-2946400D01*
G01X5299467Y-3005762D01*
G37*
G36*
G01X5354263Y-3334535D02*
G01X5294901Y-3334535D01*
G01X5294901Y-3275173D01*
G01X5354263Y-3275173D01*
G01X5354263Y-3334535D01*
G37*
G36*
G01X4751512Y-3718103D02*
G01X4692151Y-3718103D01*
G01X4692151Y-3658742D01*
G01X4751512Y-3658742D01*
G01X4751512Y-3718103D01*
G37*
G36*
G01X4148762Y-4101672D02*
G01X4089400Y-4101672D01*
G01X4089400Y-4042310D01*
G01X4148762Y-4042310D01*
G01X4148762Y-4101672D01*
G37*
G36*
G01X4587126Y-4978400D02*
G01X4527764Y-4978400D01*
G01X4527764Y-4919038D01*
G01X4587126Y-4919038D01*
G01X4587126Y-4978400D01*
G37*
G36*
G01X5683036Y-4978400D02*
G01X5623674Y-4978400D01*
G01X5623674Y-4919038D01*
G01X5683036Y-4919038D01*
G01X5683036Y-4978400D01*
G37*
G36*
G01X717448Y-4638029D02*
G01X714856Y-4638315D01*
G01X712263Y-4638600D01*
G01X339811Y-4638428D01*
G01X339055Y-4637759D01*
G01X338300Y-4637090D01*
G01X337478Y-4636582D01*
G01X336657Y-4636074D01*
G01X329752Y-4635949D01*
G01X322847Y-4635825D01*
G01X320711Y-4633495D01*
G01X313996Y-4633185D01*
G01X310960Y-4631122D01*
G01X310858Y-4630401D01*
G01X310755Y-4629681D01*
G01X306219Y-4629522D01*
G01X305178Y-4629346D01*
G01X304137Y-4629170D01*
G01X303926Y-4628049D01*
G01X303716Y-4626927D01*
G01X298974Y-4626927D01*
G01X298303Y-4626073D01*
G01X297631Y-4625220D01*
G01X297631Y-4624335D01*
G01X293418Y-4624335D01*
G01X292122Y-4623039D01*
G01X292122Y-4621827D01*
G01X290170Y-4621607D01*
G01X288218Y-4621386D01*
G01X287190Y-4620256D01*
G01X286161Y-4619126D01*
G01X284507Y-4618218D01*
G01X283288Y-4617677D01*
G01X282070Y-4617135D01*
G01X281549Y-4616254D01*
G01X281029Y-4615373D01*
G01X279697Y-4615076D01*
G01X278365Y-4614778D01*
G01X278067Y-4613725D01*
G01X277770Y-4612672D01*
G01X276049Y-4612672D01*
G01X275271Y-4611895D01*
G01X275271Y-4610081D01*
G01X273297Y-4610081D01*
G01X272502Y-4609286D01*
G01X271706Y-4608490D01*
G01X271706Y-4607546D01*
G01X270410Y-4607327D01*
G01X269114Y-4607108D01*
G01X268871Y-4606698D01*
G01X268628Y-4606288D01*
G01X267871Y-4605890D01*
G01X267115Y-4605493D01*
G01X266668Y-4604423D01*
G01X266220Y-4603353D01*
G01X265377Y-4603142D01*
G01X264534Y-4602930D01*
G01X264081Y-4601846D01*
G01X263628Y-4600762D01*
G01X262785Y-4600550D01*
G01X261942Y-4600339D01*
G01X261050Y-4598204D01*
G01X260545Y-4597785D01*
G01X260040Y-4597367D01*
G01X260040Y-4596214D01*
G01X258903Y-4595543D01*
G01X257766Y-4594873D01*
G01X257364Y-4593973D01*
G01X256962Y-4593072D01*
G01X256314Y-4592516D01*
G01X255665Y-4591960D01*
G01X255295Y-4591949D01*
G01X254925Y-4591938D01*
G01X254531Y-4590914D01*
G01X254531Y-4589347D01*
G01X253235Y-4589347D01*
G01X251939Y-4588051D01*
G01X251939Y-4586362D01*
G01X250306Y-4585078D01*
G01X249826Y-4584151D01*
G01X249346Y-4583223D01*
G01X249346Y-4581248D01*
G01X247803Y-4581248D01*
G01X246981Y-4580171D01*
G01X246160Y-4579094D01*
G01X245809Y-4577195D01*
G01X245458Y-4575297D01*
G01X243503Y-4574782D01*
G01X242865Y-4573106D01*
G01X242865Y-4569585D01*
G01X241594Y-4569585D01*
G01X240933Y-4568876D01*
G01X240273Y-4568167D01*
G01X240273Y-4563501D01*
G01X239174Y-4563295D01*
G01X238076Y-4563089D01*
G01X237882Y-4562368D01*
G01X237689Y-4561647D01*
G01X237685Y-4559307D01*
G01X237680Y-4556967D01*
G01X236745Y-4556483D01*
G01X235810Y-4556000D01*
G01X235001Y-4554612D01*
G01X234191Y-4553224D01*
G01X233954Y-4549865D01*
G01X233716Y-4546506D01*
G01X232723Y-4545619D01*
G01X231730Y-4544732D01*
G01X231492Y-4542823D01*
G01X231254Y-4540913D01*
G01X231226Y-4536116D01*
G01X231199Y-4531318D01*
G01X229176Y-4528802D01*
G01X228600Y-4523061D01*
G01X228709Y-4282224D01*
G01X368600Y-4282224D01*
G01X368600Y-4499931D01*
G01X427254Y-4499931D01*
G01X427254Y-4282224D01*
G01X427254Y-4282224D01*
G01X474567Y-4282224D01*
G01X474567Y-4499931D01*
G01X531855Y-4499931D01*
G01X532292Y-4498190D01*
G01X532278Y-4439045D01*
G01X532263Y-4379901D01*
G01X532456Y-4378837D01*
G01X532649Y-4377772D01*
G01X534517Y-4376807D01*
G01X534517Y-4366759D01*
G01X535447Y-4364536D01*
G01X537110Y-4364118D01*
G01X537110Y-4359977D01*
G01X538406Y-4358681D01*
G01X539702Y-4358681D01*
G01X539706Y-4356899D01*
G01X540375Y-4354492D01*
G01X541314Y-4353937D01*
G01X542253Y-4353382D01*
G01X542451Y-4352597D01*
G01X542648Y-4351813D01*
G01X544037Y-4349934D01*
G01X544843Y-4349934D01*
G01X545564Y-4348881D01*
G01X546284Y-4347828D01*
G01X547280Y-4347018D01*
G01X548776Y-4347018D01*
G01X548776Y-4345846D01*
G01X549197Y-4345271D01*
G01X549618Y-4344695D01*
G01X550724Y-4344469D01*
G01X551830Y-4344243D01*
G01X552179Y-4342847D01*
G01X554998Y-4340811D01*
G01X556140Y-4340626D01*
G01X557281Y-4340441D01*
G01X558516Y-4338348D01*
G01X559520Y-4338148D01*
G01X560523Y-4337947D01*
G01X563278Y-4337947D01*
G01X563652Y-4336077D01*
G01X565724Y-4335355D01*
G01X574692Y-4335355D01*
G01X575763Y-4334187D01*
G01X576834Y-4333019D01*
G01X582491Y-4332992D01*
G01X588149Y-4332966D01*
G01X590602Y-4334144D01*
G01X590926Y-4334750D01*
G01X591250Y-4335355D01*
G01X599276Y-4335355D01*
G01X599782Y-4335549D01*
G01X600288Y-4335744D01*
G01X601650Y-4337947D01*
G01X604796Y-4337947D01*
G01X605656Y-4338274D01*
G01X606517Y-4338601D01*
G01X606883Y-4339570D01*
G01X607248Y-4340539D01*
G01X608846Y-4340539D01*
G01X611695Y-4341918D01*
G01X611913Y-4342645D01*
G01X612108Y-4343536D01*
G01X612304Y-4344426D01*
G01X613881Y-4344426D01*
G01X614727Y-4344812D01*
G01X615573Y-4345197D01*
G01X615915Y-4346909D01*
G01X618103Y-4347700D01*
G01X618436Y-4348898D01*
G01X618769Y-4350096D01*
G01X618771Y-4350444D01*
G01X618772Y-4350793D01*
G01X619914Y-4351740D01*
G01X621055Y-4352688D01*
G01X621249Y-4353885D01*
G01X621442Y-4355082D01*
G01X622700Y-4355914D01*
G01X623957Y-4356746D01*
G01X623957Y-4361289D01*
G01X624955Y-4361488D01*
G01X625952Y-4361688D01*
G01X626253Y-4362533D01*
G01X626554Y-4363379D01*
G01X627475Y-4365018D01*
G01X627709Y-4369025D01*
G01X627944Y-4373032D01*
G01X628940Y-4373922D01*
G01X629937Y-4374813D01*
G01X629937Y-4374813D01*
G01X630387Y-4380225D01*
G01X630439Y-4499931D01*
G01X688656Y-4499931D01*
G01X689361Y-4499182D01*
G01X690065Y-4498432D01*
G01X690052Y-4423454D01*
G01X690039Y-4348476D01*
G01X689080Y-4347354D01*
G01X688121Y-4346233D01*
G01X688116Y-4345735D01*
G01X688111Y-4345236D01*
G01X687708Y-4344102D01*
G01X687306Y-4342969D01*
G01X686763Y-4342121D01*
G01X686482Y-4338009D01*
G01X686201Y-4333897D01*
G01X686189Y-4332577D01*
G01X686177Y-4331257D01*
G01X685609Y-4330729D01*
G01X685042Y-4330202D01*
G01X683584Y-4328876D01*
G01X683584Y-4324745D01*
G01X681714Y-4324371D01*
G01X680992Y-4322300D01*
G01X680992Y-4318590D01*
G01X679037Y-4318199D01*
G01X678399Y-4316523D01*
G01X678399Y-4313325D01*
G01X676532Y-4313325D01*
G01X674835Y-4311101D01*
G01X674835Y-4310633D01*
G01X672242Y-4308092D01*
G01X672242Y-4306883D01*
G01X671562Y-4306407D01*
G01X670882Y-4305930D01*
G01X669326Y-4303641D01*
G01X669326Y-4301663D01*
G01X667511Y-4301663D01*
G01X666733Y-4300885D01*
G01X666733Y-4299071D01*
G01X664743Y-4299071D01*
G01X663347Y-4298110D01*
G01X661950Y-4297150D01*
G01X661759Y-4296652D01*
G01X661569Y-4296155D01*
G01X660370Y-4296155D01*
G01X659177Y-4295094D01*
G01X657984Y-4294033D01*
G01X657984Y-4292591D01*
G01X655845Y-4292591D01*
G01X655067Y-4291814D01*
G01X655067Y-4290000D01*
G01X653366Y-4289995D01*
G01X651664Y-4289991D01*
G01X650200Y-4289599D01*
G01X649680Y-4288503D01*
G01X649160Y-4287408D01*
G01X646090Y-4287408D01*
G01X645093Y-4287060D01*
G01X644096Y-4286713D01*
G01X643781Y-4285810D01*
G01X643467Y-4284908D01*
G01X639026Y-4284587D01*
G01X635948Y-4283180D01*
G01X635948Y-4282224D01*
G01X634570Y-4282212D01*
G01X633193Y-4282200D01*
G01X629048Y-4281917D01*
G01X624903Y-4281634D01*
G01X624511Y-4281324D01*
G01X624119Y-4281013D01*
G01X622417Y-4280614D01*
G01X620715Y-4280216D01*
G01X620355Y-4279633D01*
G01X613302Y-4279633D01*
G01X612901Y-4280281D01*
G01X597608Y-4280281D01*
G01X595484Y-4278661D01*
G01X595160Y-4278661D01*
G01X594954Y-4279309D01*
G01X594748Y-4279957D01*
G01X594203Y-4280238D01*
G01X593658Y-4280518D01*
G01X590110Y-4280970D01*
G01X589692Y-4281317D01*
G01X589274Y-4281664D01*
G01X583769Y-4282003D01*
G01X578265Y-4282342D01*
G01X578265Y-4283074D01*
G01X577319Y-4283774D01*
G01X576374Y-4284473D01*
G01X570974Y-4284866D01*
G01X569516Y-4285574D01*
G01X569516Y-4286390D01*
G01X569006Y-4286899D01*
G01X568497Y-4287408D01*
G01X565691Y-4287408D01*
G01X565050Y-4288493D01*
G01X564410Y-4289579D01*
G01X563358Y-4289789D01*
G01X562305Y-4290000D01*
G01X560494Y-4290000D01*
G01X560279Y-4290974D01*
G01X560065Y-4291949D01*
G01X559465Y-4292270D01*
G01X558864Y-4292591D01*
G01X555257Y-4292591D01*
G01X555257Y-4294715D01*
G01X554779Y-4295398D01*
G01X554300Y-4296081D01*
G01X553523Y-4296276D01*
G01X552747Y-4296471D01*
G01X552352Y-4297424D01*
G01X551957Y-4298376D01*
G01X550691Y-4298883D01*
G01X549424Y-4299390D01*
G01X549424Y-4299948D01*
G01X548629Y-4300805D01*
G01X547835Y-4301663D01*
G01X546183Y-4301663D01*
G01X546183Y-4303236D01*
G01X545674Y-4303745D01*
G01X545165Y-4304254D01*
G01X543591Y-4304254D01*
G01X543591Y-4306228D01*
G01X542796Y-4307023D01*
G01X542000Y-4307818D01*
G01X540999Y-4307818D01*
G01X540999Y-4309143D01*
G01X540203Y-4309938D01*
G01X539408Y-4310734D01*
G01X535536Y-4310734D01*
G01X535027Y-4310225D01*
G01X534517Y-4309715D01*
G01X534517Y-4308142D01*
G01X533221Y-4308142D01*
G01X533201Y-4307008D01*
G01X532725Y-4306379D01*
G01X532249Y-4305750D01*
G01X532249Y-4301340D01*
G01X534517Y-4298830D01*
G01X534517Y-4293988D01*
G01X533221Y-4292815D01*
G01X533221Y-4287184D01*
G01X534517Y-4286012D01*
G01X534501Y-4284978D01*
G01X531902Y-4282224D01*
G01X474567Y-4282224D01*
G01X427254Y-4282224D01*
G01X368600Y-4282224D01*
G01X228709Y-4282224D01*
G01X228748Y-4195385D01*
G01X362119Y-4195385D01*
G01X362119Y-4217674D01*
G01X363072Y-4217864D01*
G01X364026Y-4218055D01*
G01X364367Y-4219282D01*
G01X364707Y-4220508D01*
G01X364709Y-4222345D01*
G01X364711Y-4224181D01*
G01X366979Y-4225583D01*
G01X366979Y-4226479D01*
G01X368276Y-4227173D01*
G01X368276Y-4228739D01*
G01X370578Y-4229832D01*
G01X370756Y-4230721D01*
G01X370934Y-4231611D01*
G01X371921Y-4231893D01*
G01X372907Y-4232176D01*
G01X373133Y-4232660D01*
G01X373358Y-4233143D01*
G01X373683Y-4233784D01*
G01X374008Y-4234424D01*
G01X374787Y-4234600D01*
G01X375567Y-4234777D01*
G01X376539Y-4236819D01*
G01X377516Y-4237006D01*
G01X378492Y-4237193D01*
G01X378812Y-4237911D01*
G01X379132Y-4238629D01*
G01X379930Y-4238814D01*
G01X380728Y-4238998D01*
G01X380916Y-4239796D01*
G01X381103Y-4240594D01*
G01X383682Y-4240801D01*
G01X386261Y-4241008D01*
G01X386844Y-4241247D01*
G01X387428Y-4241486D01*
G01X387614Y-4242417D01*
G01X387800Y-4243348D01*
G01X387800Y-4243348D01*
G01X407730Y-4243348D01*
G01X407920Y-4242395D01*
G01X408111Y-4241441D01*
G01X409338Y-4241101D01*
G01X410565Y-4240760D01*
G01X414217Y-4240756D01*
G01X415339Y-4238975D01*
G01X416454Y-4237922D01*
G01X417569Y-4236869D01*
G01X419036Y-4236869D01*
G01X419499Y-4235825D01*
G01X419963Y-4234781D01*
G01X420742Y-4234603D01*
G01X421522Y-4234424D01*
G01X421796Y-4233865D01*
G01X422069Y-4233305D01*
G01X422339Y-4232752D01*
G01X422609Y-4232199D01*
G01X423594Y-4231943D01*
G01X424580Y-4231688D01*
G01X424769Y-4230744D01*
G01X424958Y-4229801D01*
G01X426106Y-4229422D01*
G01X427254Y-4229043D01*
G01X427254Y-4227902D01*
G01X428268Y-4226716D01*
G01X429281Y-4225530D01*
G01X430819Y-4225530D01*
G01X430823Y-4223667D01*
G01X430828Y-4221804D01*
G01X431021Y-4221083D01*
G01X431214Y-4220362D01*
G01X432267Y-4220165D01*
G01X433320Y-4219967D01*
G01X433568Y-4214083D01*
G01X433815Y-4208198D01*
G01X433827Y-4204634D01*
G01X433315Y-4194112D01*
G01X431181Y-4192853D01*
G01X430828Y-4190703D01*
G01X430742Y-4189733D01*
G01X430657Y-4188763D01*
G01X429711Y-4188599D01*
G01X428766Y-4188436D01*
G01X428142Y-4186492D01*
G01X427313Y-4185520D01*
G01X427092Y-4183954D01*
G01X424832Y-4183197D01*
G01X424551Y-4182215D01*
G01X424269Y-4181234D01*
G01X423250Y-4180785D01*
G01X422231Y-4180336D01*
G01X421611Y-4178230D01*
G01X420474Y-4178230D01*
G01X419813Y-4177521D01*
G01X419153Y-4176812D01*
G01X419153Y-4174667D01*
G01X414436Y-4174667D01*
G01X413040Y-4173689D01*
G01X412834Y-4172237D01*
G01X409337Y-4172039D01*
G01X405841Y-4171841D01*
G01X405125Y-4171208D01*
G01X404408Y-4170575D01*
G01X402649Y-4169483D01*
G01X390648Y-4169483D01*
G01X390448Y-4170280D01*
G01X390248Y-4171077D01*
G01X389284Y-4171876D01*
G01X382696Y-4172237D01*
G01X382490Y-4173689D01*
G01X381094Y-4174667D01*
G01X379014Y-4174667D01*
G01X377144Y-4176449D01*
G01X375274Y-4178230D01*
G01X374117Y-4178230D01*
G01X373638Y-4179377D01*
G01X373159Y-4180524D01*
G01X372217Y-4180852D01*
G01X371276Y-4181180D01*
G01X370982Y-4182207D01*
G01X370687Y-4183233D01*
G01X369671Y-4183524D01*
G01X368655Y-4183816D01*
G01X368470Y-4184506D01*
G01X368284Y-4185196D01*
G01X368280Y-4185850D01*
G01X368276Y-4186503D01*
G01X367454Y-4187712D01*
G01X366632Y-4188921D01*
G01X364711Y-4188921D01*
G01X364711Y-4193415D01*
G01X364412Y-4194200D01*
G01X364114Y-4194986D01*
G01X363116Y-4195185D01*
G01X362119Y-4195385D01*
G01X228748Y-4195385D01*
G01X228769Y-4150179D01*
G01X229903Y-4148448D01*
G01X229903Y-4147152D01*
G01X231199Y-4146459D01*
G01X231246Y-4136277D01*
G01X231719Y-4133037D01*
G01X232723Y-4131947D01*
G01X233727Y-4130857D01*
G01X233956Y-4127654D01*
G01X234186Y-4124450D01*
G01X234799Y-4123671D01*
G01X235412Y-4122892D01*
G01X235412Y-4122190D01*
G01X237672Y-4120726D01*
G01X237681Y-4118134D01*
G01X237689Y-4115543D01*
G01X237882Y-4114822D01*
G01X238076Y-4114101D01*
G01X239174Y-4113895D01*
G01X240273Y-4113689D01*
G01X240273Y-4109580D01*
G01X240658Y-4108734D01*
G01X241043Y-4107889D01*
G01X241954Y-4107706D01*
G01X242865Y-4107524D01*
G01X242930Y-4104204D01*
G01X243376Y-4102601D01*
G01X244401Y-4102307D01*
G01X245425Y-4102014D01*
G01X245640Y-4101003D01*
G01X245855Y-4099992D01*
G01X246468Y-4098630D01*
G01X247081Y-4097267D01*
G01X249346Y-4096193D01*
G01X249351Y-4095501D01*
G01X249355Y-4094809D01*
G01X249548Y-4094088D01*
G01X249742Y-4093367D01*
G01X250840Y-4093161D01*
G01X251939Y-4092955D01*
G01X252003Y-4089949D01*
G01X252450Y-4088346D01*
G01X253491Y-4088048D01*
G01X254531Y-4087750D01*
G01X254531Y-4086270D01*
G01X255040Y-4085761D01*
G01X255550Y-4085251D01*
G01X257041Y-4085251D01*
G01X257239Y-4084010D01*
G01X257438Y-4082769D01*
G01X258010Y-4082267D01*
G01X258582Y-4081764D01*
G01X260040Y-4081320D01*
G01X260040Y-4080479D01*
G01X260712Y-4079626D01*
G01X261384Y-4078772D01*
G01X263605Y-4078772D01*
G01X263605Y-4076487D01*
G01X266504Y-4073589D01*
G01X268790Y-4073589D01*
G01X268790Y-4071368D01*
G01X269644Y-4070696D01*
G01X270497Y-4070025D01*
G01X271403Y-4070025D01*
G01X271804Y-4068891D01*
G01X273691Y-4067109D01*
G01X275271Y-4067109D01*
G01X275281Y-4065651D01*
G01X275558Y-4065214D01*
G01X275835Y-4064777D01*
G01X276918Y-4064555D01*
G01X278001Y-4064334D01*
G01X278378Y-4062741D01*
G01X279174Y-4062338D01*
G01X279970Y-4061935D01*
G01X281509Y-4061931D01*
G01X283048Y-4061926D01*
G01X283048Y-4060630D01*
G01X284345Y-4059334D01*
G01X286055Y-4059334D01*
G01X286486Y-4058767D01*
G01X286916Y-4058200D01*
G01X286937Y-4057113D01*
G01X287764Y-4056463D01*
G01X288591Y-4055813D01*
G01X292002Y-4055387D01*
G01X292357Y-4054448D01*
G01X292711Y-4053509D01*
G01X293572Y-4053182D01*
G01X294433Y-4052855D01*
G01X297365Y-4052855D01*
G01X297973Y-4052126D01*
G01X298582Y-4051397D01*
G01X298592Y-4051026D01*
G01X298603Y-4050656D01*
G01X299628Y-4050263D01*
G01X303804Y-4050263D01*
G01X304004Y-4049266D01*
G01X304203Y-4048268D01*
G01X304989Y-4047970D01*
G01X305775Y-4047671D01*
G01X311819Y-4047671D01*
G01X312208Y-4046123D01*
G01X313305Y-4045160D01*
G01X314403Y-4044197D01*
G01X321033Y-4043727D01*
G01X321998Y-4042864D01*
G01X322963Y-4042002D01*
G01X323826Y-4041730D01*
G01X324690Y-4041458D01*
G01X331959Y-4041282D01*
G01X339228Y-4041106D01*
G01X340870Y-4040125D01*
G01X342513Y-4039144D01*
G01X344619Y-4038918D01*
G01X346726Y-4038692D01*
G01X528207Y-4038646D01*
G01X709688Y-4038600D01*
G01X715025Y-4039269D01*
G01X718161Y-4041118D01*
G01X725096Y-4041253D01*
G01X732031Y-4041387D01*
G01X733864Y-4042243D01*
G01X735697Y-4043099D01*
G01X735889Y-4043410D01*
G01X736081Y-4043721D01*
G01X742862Y-4044183D01*
G01X744171Y-4045145D01*
G01X745479Y-4046107D01*
G01X745479Y-4047671D01*
G01X751474Y-4047736D01*
G01X752266Y-4047957D01*
G01X753059Y-4048178D01*
G01X753329Y-4049220D01*
G01X753599Y-4050263D01*
G01X758147Y-4050263D01*
G01X758942Y-4051058D01*
G01X759738Y-4051853D01*
G01X759738Y-4052766D01*
G01X764087Y-4053115D01*
G01X765247Y-4054546D01*
G01X765247Y-4055372D01*
G01X767047Y-4055597D01*
G01X768847Y-4055821D01*
G01X769966Y-4056804D01*
G01X771086Y-4057786D01*
G01X771474Y-4059334D01*
G01X773302Y-4059334D01*
G01X773811Y-4059843D01*
G01X774320Y-4060352D01*
G01X774320Y-4061836D01*
G01X776277Y-4062013D01*
G01X778233Y-4062190D01*
G01X778707Y-4062584D01*
G01X779181Y-4062977D01*
G01X779181Y-4064214D01*
G01X779991Y-4064463D01*
G01X780849Y-4064650D01*
G01X781707Y-4064837D01*
G01X782363Y-4065872D01*
G01X783018Y-4066906D01*
G01X784097Y-4067413D01*
G01X785176Y-4067919D01*
G01X785640Y-4068972D01*
G01X786103Y-4070025D01*
G01X786871Y-4070025D01*
G01X787725Y-4070696D01*
G01X788579Y-4071368D01*
G01X788579Y-4073550D01*
G01X789794Y-4073650D01*
G01X791009Y-4073751D01*
G01X791109Y-4074947D01*
G01X791208Y-4076143D01*
G01X792405Y-4076243D01*
G01X793602Y-4076342D01*
G01X793702Y-4077557D01*
G01X793803Y-4078772D01*
G01X795354Y-4078772D01*
G01X796157Y-4079138D01*
G01X796961Y-4079504D01*
G01X797361Y-4080470D01*
G01X797761Y-4081435D01*
G01X798634Y-4081740D01*
G01X799508Y-4082044D01*
G01X799876Y-4082853D01*
G01X800245Y-4083662D01*
G01X800245Y-4085251D01*
G01X801703Y-4085261D01*
G01X802141Y-4085539D01*
G01X802578Y-4085816D01*
G01X802801Y-4086910D01*
G01X803023Y-4088005D01*
G01X803717Y-4088106D01*
G01X804411Y-4088206D01*
G01X805106Y-4089043D01*
G01X805312Y-4091019D01*
G01X805519Y-4092995D01*
G01X806387Y-4093185D01*
G01X807255Y-4093376D01*
G01X808287Y-4094718D01*
G01X809319Y-4096060D01*
G01X809319Y-4096914D01*
G01X809958Y-4096914D01*
G01X811559Y-4099344D01*
G01X811982Y-4102025D01*
G01X813992Y-4102601D01*
G01X814439Y-4104204D01*
G01X814504Y-4107605D01*
G01X815505Y-4107605D01*
G01X816301Y-4108401D01*
G01X817096Y-4109196D01*
G01X817096Y-4113709D01*
G01X818064Y-4113922D01*
G01X819033Y-4114135D01*
G01X819280Y-4114515D01*
G01X819526Y-4114895D01*
G01X819851Y-4121995D01*
G01X821185Y-4122346D01*
G01X822101Y-4123075D01*
G01X823016Y-4123803D01*
G01X823282Y-4125180D01*
G01X823549Y-4126557D01*
G01X823563Y-4129214D01*
G01X823577Y-4131871D01*
G01X824006Y-4132130D01*
G01X824435Y-4132389D01*
G01X825221Y-4133469D01*
G01X826008Y-4134548D01*
G01X826121Y-4141885D01*
G01X826234Y-4149223D01*
G01X827417Y-4151004D01*
G01X828600Y-4152786D01*
G01X828600Y-4526363D01*
G01X828042Y-4527215D01*
G01X827483Y-4528068D01*
G01X826222Y-4528468D01*
G01X826115Y-4535839D01*
G01X826008Y-4543211D01*
G01X825474Y-4544006D01*
G01X824941Y-4544801D01*
G01X824259Y-4545516D01*
G01X823577Y-4546232D01*
G01X823569Y-4548594D01*
G01X823562Y-4550956D01*
G01X823018Y-4553296D01*
G01X821953Y-4554313D01*
G01X820889Y-4555330D01*
G01X819688Y-4555330D01*
G01X819688Y-4561443D01*
G01X819384Y-4562244D01*
G01X819079Y-4563045D01*
G01X818088Y-4563263D01*
G01X817096Y-4563481D01*
G01X817096Y-4567610D01*
G01X816711Y-4568456D01*
G01X816325Y-4569301D01*
G01X815414Y-4569483D01*
G01X814504Y-4569666D01*
G01X814504Y-4573106D01*
G01X814199Y-4573907D01*
G01X813894Y-4574708D01*
G01X812938Y-4574918D01*
G01X811981Y-4575128D01*
G01X811756Y-4576930D01*
G01X811531Y-4578731D01*
G01X810263Y-4580106D01*
G01X808995Y-4581482D01*
G01X808995Y-4582075D01*
G01X808041Y-4583119D01*
G01X807087Y-4584163D01*
G01X805430Y-4584163D01*
G01X805365Y-4587241D01*
G01X805144Y-4588033D01*
G01X804923Y-4588825D01*
G01X803880Y-4589095D01*
G01X802837Y-4589365D01*
G01X802837Y-4590914D01*
G01X802444Y-4591938D01*
G01X802074Y-4591949D01*
G01X801703Y-4591960D01*
G01X801044Y-4592516D01*
G01X800385Y-4593072D01*
G01X799963Y-4594097D01*
G01X799541Y-4595123D01*
G01X798616Y-4595506D01*
G01X797690Y-4595889D01*
G01X797479Y-4596849D01*
G01X797268Y-4597809D01*
G01X796467Y-4598113D01*
G01X795666Y-4598418D01*
G01X793764Y-4598418D01*
G01X793764Y-4600703D01*
G01X790864Y-4603601D01*
G01X788579Y-4603601D01*
G01X788579Y-4605503D01*
G01X788274Y-4606304D01*
G01X787970Y-4607105D01*
G01X786993Y-4607320D01*
G01X786016Y-4607534D01*
G01X785814Y-4608170D01*
G01X785612Y-4608807D01*
G01X784928Y-4609444D01*
G01X784244Y-4610081D01*
G01X783336Y-4610081D01*
G01X782728Y-4610810D01*
G01X782119Y-4611539D01*
G01X782109Y-4611909D01*
G01X782098Y-4612279D01*
G01X781073Y-4612672D01*
G01X779557Y-4612672D01*
G01X779339Y-4613664D01*
G01X779121Y-4614655D01*
G01X778320Y-4614960D01*
G01X777519Y-4615264D01*
G01X774320Y-4615264D01*
G01X774320Y-4617166D01*
G01X773005Y-4618078D01*
G01X771689Y-4618990D01*
G01X770493Y-4620039D01*
G01X769297Y-4621089D01*
G01X768163Y-4621414D01*
G01X767029Y-4621740D01*
G01X765319Y-4621744D01*
G01X765113Y-4622842D01*
G01X764907Y-4623940D01*
G01X764186Y-4624133D01*
G01X763464Y-4624326D01*
G01X761601Y-4624331D01*
G01X759738Y-4624335D01*
G01X759738Y-4625918D01*
G01X758297Y-4626927D01*
G01X753653Y-4626927D01*
G01X753447Y-4628025D01*
G01X753241Y-4629123D01*
G01X752519Y-4629317D01*
G01X751798Y-4629510D01*
G01X749442Y-4629514D01*
G01X747086Y-4629519D01*
G01X746708Y-4630346D01*
G01X746331Y-4631174D01*
G01X744854Y-4632171D01*
G01X743376Y-4633168D01*
G01X739824Y-4633336D01*
G01X736273Y-4633504D01*
G01X735610Y-4634137D01*
G01X734947Y-4634770D01*
G01X734152Y-4635303D01*
G01X733357Y-4635836D01*
G01X727067Y-4635948D01*
G01X720776Y-4636059D01*
G01X719112Y-4637044D01*
G01X717448Y-4638029D01*
G37*
G36*
G01X511785Y-3111812D02*
G01X507977Y-3112041D01*
G01X503876Y-3112378D01*
G01X499775Y-3112714D01*
G01X494648Y-3113283D01*
G01X489522Y-3113852D01*
G01X484395Y-3114600D01*
G01X479269Y-3115348D01*
G01X474435Y-3116229D01*
G01X469602Y-3117109D01*
G01X465061Y-3118103D01*
G01X460521Y-3119096D01*
G01X455248Y-3120403D01*
G01X449975Y-3121710D01*
G01X444409Y-3123324D01*
G01X438843Y-3124938D01*
G01X432545Y-3127041D01*
G01X426247Y-3129143D01*
G01X419363Y-3131857D01*
G01X412479Y-3134572D01*
G01X407352Y-3136834D01*
G01X402226Y-3139096D01*
G01X395781Y-3142262D01*
G01X389336Y-3145429D01*
G01X383712Y-3148520D01*
G01X378088Y-3151611D01*
G01X372727Y-3154892D01*
G01X367366Y-3158173D01*
G01X361670Y-3161969D01*
G01X355974Y-3165766D01*
G01X352150Y-3168561D01*
G01X348325Y-3171356D01*
G01X344663Y-3174197D01*
G01X341001Y-3177038D01*
G01X337925Y-3179595D01*
G01X334849Y-3182153D01*
G01X330678Y-3185804D01*
G01X326507Y-3189455D01*
G01X321597Y-3194077D01*
G01X316687Y-3198699D01*
G01X312258Y-3203365D01*
G01X307829Y-3208031D01*
G01X304932Y-3211254D01*
G01X302035Y-3214476D01*
G01X299523Y-3217406D01*
G01X297011Y-3220336D01*
G01X293203Y-3225170D01*
G01X289395Y-3230004D01*
G01X286414Y-3234026D01*
G01X283433Y-3238049D01*
G01X280106Y-3242962D01*
G01X276779Y-3247875D01*
G01X274491Y-3251537D01*
G01X272203Y-3255199D01*
G01X269374Y-3260033D01*
G01X266544Y-3264867D01*
G01X264572Y-3268455D01*
G01X262600Y-3272043D01*
G01X258690Y-3280027D01*
G01X254780Y-3288012D01*
G01X254050Y-3289770D01*
G01X253321Y-3291527D01*
G01X251819Y-3295026D01*
G01X250317Y-3298524D01*
G01X248012Y-3304547D01*
G01X245708Y-3310570D01*
G01X244233Y-3314965D01*
G01X242759Y-3319360D01*
G01X241114Y-3324780D01*
G01X239469Y-3330199D01*
G01X237883Y-3336352D01*
G01X236297Y-3342504D01*
G01X235126Y-3347937D01*
G01X233955Y-3353370D01*
G01X232924Y-3359363D01*
G01X231893Y-3365356D01*
G01X231460Y-3368286D01*
G01X231026Y-3371215D01*
G01X230432Y-3376342D01*
G01X229839Y-3381469D01*
G01X229358Y-3386743D01*
G01X228877Y-3392016D01*
G01X228739Y-3406771D01*
G01X228600Y-3421526D01*
G01X228929Y-3427425D01*
G01X229257Y-3433325D01*
G01X229849Y-3439770D01*
G01X230441Y-3446216D01*
G01X231168Y-3451636D01*
G01X231895Y-3457056D01*
G01X232927Y-3463061D01*
G01X233959Y-3469067D01*
G01X235138Y-3474634D01*
G01X236317Y-3480200D01*
G01X237883Y-3486353D01*
G01X239450Y-3492505D01*
G01X241378Y-3498873D01*
G01X243307Y-3505241D01*
G01X245210Y-3510660D01*
G01X247114Y-3516078D01*
G01X249340Y-3521723D01*
G01X251567Y-3527368D01*
G01X254357Y-3533667D01*
G01X257146Y-3539966D01*
G01X259914Y-3545499D01*
G01X262682Y-3551031D01*
G01X265734Y-3556539D01*
G01X268786Y-3562047D01*
G01X271231Y-3566094D01*
G01X273675Y-3570142D01*
G01X274796Y-3571900D01*
G01X275917Y-3573658D01*
G01X279139Y-3578492D01*
G01X282362Y-3583326D01*
G01X285891Y-3588160D01*
G01X289420Y-3592994D01*
G01X291473Y-3595630D01*
G01X293526Y-3598267D01*
G01X296923Y-3602369D01*
G01X300321Y-3606470D01*
G01X303524Y-3610132D01*
G01X306726Y-3613795D01*
G01X311264Y-3618607D01*
G01X315802Y-3623420D01*
G01X322250Y-3629489D01*
G01X328698Y-3635558D01*
G01X333092Y-3639303D01*
G01X337486Y-3643048D01*
G01X341587Y-3646317D01*
G01X345688Y-3649586D01*
G01X350229Y-3652956D01*
G01X354769Y-3656325D01*
G01X361800Y-3661023D01*
G01X368830Y-3665720D01*
G01X373957Y-3668797D01*
G01X379083Y-3671873D01*
G01X383770Y-3674447D01*
G01X388457Y-3677020D01*
G01X395063Y-3680313D01*
G01X401669Y-3683605D01*
G01X406634Y-3685806D01*
G01X411600Y-3688008D01*
G01X416140Y-3689823D01*
G01X420681Y-3691638D01*
G01X424196Y-3692955D01*
G01X427711Y-3694272D01*
G01X430787Y-3695315D01*
G01X433863Y-3696359D01*
G01X437820Y-3696485D01*
G01X441777Y-3696612D01*
G01X443679Y-3696119D01*
G01X445581Y-3695626D01*
G01X447182Y-3694847D01*
G01X448782Y-3694068D01*
G01X450257Y-3692595D01*
G01X451733Y-3691122D01*
G01X452677Y-3689345D01*
G01X453622Y-3687569D01*
G01X454042Y-3685766D01*
G01X454463Y-3683963D01*
G01X454304Y-3655031D01*
G01X454145Y-3626099D01*
G01X454063Y-3626003D01*
G01X453981Y-3625907D01*
G01X448463Y-3626794D01*
G01X442944Y-3627682D01*
G01X438990Y-3628130D01*
G01X435035Y-3628578D01*
G01X430055Y-3628916D01*
G01X425075Y-3629253D01*
G01X417605Y-3629085D01*
G01X410135Y-3628918D01*
G01X406180Y-3628444D01*
G01X402226Y-3627970D01*
G01X400029Y-3627528D01*
G01X397832Y-3627086D01*
G01X394341Y-3626219D01*
G01X390850Y-3625353D01*
G01X387490Y-3624164D01*
G01X384130Y-3622975D01*
G01X381900Y-3621917D01*
G01X379669Y-3620859D01*
G01X377030Y-3619366D01*
G01X374391Y-3617872D01*
G01X371488Y-3615700D01*
G01X368586Y-3613528D01*
G01X366194Y-3611171D01*
G01X363801Y-3608814D01*
G01X362176Y-3606763D01*
G01X360550Y-3604713D01*
G01X358909Y-3602184D01*
G01X357268Y-3599655D01*
G01X355967Y-3596910D01*
G01X354667Y-3594166D01*
G01X353443Y-3591236D01*
G01X352219Y-3588306D01*
G01X350756Y-3585259D01*
G01X349292Y-3582212D01*
G01X346507Y-3577354D01*
G01X343721Y-3572496D01*
G01X341792Y-3569561D01*
G01X339862Y-3566626D01*
G01X337972Y-3563990D01*
G01X336083Y-3561353D01*
G01X333312Y-3558053D01*
G01X330542Y-3554754D01*
G01X328081Y-3552472D01*
G01X325620Y-3550190D01*
G01X322032Y-3548032D01*
G01X318445Y-3545874D01*
G01X316248Y-3544206D01*
G01X314051Y-3542538D01*
G01X311939Y-3540311D01*
G01X309827Y-3538085D01*
G01X309180Y-3536828D01*
G01X308533Y-3535572D01*
G01X308512Y-3534253D01*
G01X308490Y-3532935D01*
G01X309032Y-3532132D01*
G01X309574Y-3531329D01*
G01X311373Y-3530452D01*
G01X313172Y-3529576D01*
G01X315955Y-3529100D01*
G01X318738Y-3528623D01*
G01X323718Y-3528772D01*
G01X328698Y-3528921D01*
G01X331481Y-3529686D01*
G01X334263Y-3530451D01*
G01X336021Y-3531079D01*
G01X337779Y-3531706D01*
G01X340708Y-3533174D01*
G01X343638Y-3534642D01*
G01X346421Y-3536547D01*
G01X349203Y-3538452D01*
G01X351108Y-3539985D01*
G01X353012Y-3541518D01*
G01X355520Y-3543965D01*
G01X358029Y-3546411D01*
G01X360063Y-3548755D01*
G01X362097Y-3551099D01*
G01X364207Y-3553913D01*
G01X366318Y-3556727D01*
G01X368429Y-3560066D01*
G01X370539Y-3563404D01*
G01X372589Y-3566187D01*
G01X374639Y-3568970D01*
G01X376802Y-3571526D01*
G01X378964Y-3574082D01*
G01X381836Y-3576692D01*
G01X384707Y-3579301D01*
G01X386875Y-3580892D01*
G01X389043Y-3582483D01*
G01X391240Y-3583839D01*
G01X393437Y-3585196D01*
G01X396220Y-3586500D01*
G01X399003Y-3587805D01*
G01X401587Y-3588714D01*
G01X404171Y-3589623D01*
G01X406558Y-3590232D01*
G01X408945Y-3590842D01*
G01X413160Y-3591405D01*
G01X417376Y-3591968D01*
G01X421434Y-3591968D01*
G01X425492Y-3591968D01*
G01X429977Y-3591392D01*
G01X434462Y-3590816D01*
G01X436608Y-3590365D01*
G01X438754Y-3589913D01*
G01X442461Y-3588876D01*
G01X446167Y-3587839D01*
G01X447778Y-3587250D01*
G01X449389Y-3586660D01*
G01X452395Y-3585473D01*
G01X455400Y-3584286D01*
G01X455527Y-3584081D01*
G01X455654Y-3583875D01*
G01X456117Y-3580964D01*
G01X456580Y-3578052D01*
G01X457577Y-3574097D01*
G01X458573Y-3570142D01*
G01X459631Y-3567212D01*
G01X460688Y-3564283D01*
G01X462433Y-3560663D01*
G01X464179Y-3557044D01*
G01X466031Y-3554218D01*
G01X467883Y-3551392D01*
G01X470149Y-3548692D01*
G01X472415Y-3545992D01*
G01X473622Y-3544959D01*
G01X474830Y-3543925D01*
G01X474706Y-3543820D01*
G01X474582Y-3543715D01*
G01X469447Y-3543083D01*
G01X464311Y-3542451D01*
G01X458168Y-3541440D01*
G01X452025Y-3540429D01*
G01X449096Y-3539847D01*
G01X446167Y-3539264D01*
G01X440689Y-3537941D01*
G01X435211Y-3536619D01*
G01X430582Y-3535267D01*
G01X425954Y-3533915D01*
G01X420681Y-3532002D01*
G01X415408Y-3530089D01*
G01X411746Y-3528472D01*
G01X408084Y-3526855D01*
G01X405172Y-3525396D01*
G01X402259Y-3523937D01*
G01X399268Y-3522239D01*
G01X396276Y-3520540D01*
G01X393832Y-3518982D01*
G01X391387Y-3517424D01*
G01X388897Y-3515677D01*
G01X386407Y-3513930D01*
G01X385089Y-3512887D01*
G01X383770Y-3511844D01*
G01X380841Y-3509354D01*
G01X377912Y-3506863D01*
G01X375103Y-3504079D01*
G01X372295Y-3501294D01*
G01X370093Y-3498804D01*
G01X367890Y-3496314D01*
G01X365449Y-3493091D01*
G01X363007Y-3489868D01*
G01X360620Y-3486206D01*
G01X358232Y-3482544D01*
G01X356553Y-3479533D01*
G01X354874Y-3476522D01*
G01X353253Y-3473088D01*
G01X351633Y-3469653D01*
G01X349939Y-3465405D01*
G01X348246Y-3461157D01*
G01X346898Y-3457013D01*
G01X345550Y-3452868D01*
G01X344382Y-3448370D01*
G01X343215Y-3443872D01*
G01X342193Y-3438745D01*
G01X341172Y-3433618D01*
G01X340587Y-3429516D01*
G01X340002Y-3425415D01*
G01X339563Y-3421167D01*
G01X339123Y-3416919D01*
G01X338773Y-3411938D01*
G01X338423Y-3406958D01*
G01X338398Y-3396704D01*
G01X338373Y-3386450D01*
G01X338890Y-3382143D01*
G01X339408Y-3377837D01*
G01X340136Y-3373683D01*
G01X340865Y-3369530D01*
G01X341862Y-3365539D01*
G01X342859Y-3361547D01*
G01X343789Y-3358618D01*
G01X344720Y-3355688D01*
G01X346629Y-3350856D01*
G01X348537Y-3346025D01*
G01X350154Y-3342800D01*
G01X351771Y-3339575D01*
G01X353238Y-3336938D01*
G01X354705Y-3334301D01*
G01X357715Y-3329760D01*
G01X360725Y-3325219D01*
G01X363821Y-3321410D01*
G01X366917Y-3317602D01*
G01X367982Y-3316360D01*
G01X369048Y-3315118D01*
G01X368440Y-3313577D01*
G01X367833Y-3312035D01*
G01X366944Y-3309106D01*
G01X366055Y-3306176D01*
G01X365334Y-3302953D01*
G01X364613Y-3299731D01*
G01X364016Y-3295629D01*
G01X363420Y-3291527D01*
G01X363140Y-3286374D01*
G01X362861Y-3281220D01*
G01X363128Y-3275827D01*
G01X363395Y-3270434D01*
G01X363846Y-3266918D01*
G01X364296Y-3263402D01*
G01X364895Y-3260180D01*
G01X365494Y-3256957D01*
G01X366232Y-3253881D01*
G01X366970Y-3250805D01*
G01X367866Y-3247728D01*
G01X368762Y-3244652D01*
G01X370368Y-3240191D01*
G01X371975Y-3235730D01*
G01X373039Y-3235504D01*
G01X374103Y-3235277D01*
G01X379376Y-3235322D01*
G01X384649Y-3235367D01*
G01X388750Y-3236133D01*
G01X392852Y-3236899D01*
G01X397539Y-3238208D01*
G01X402226Y-3239517D01*
G01X407206Y-3241382D01*
G01X412186Y-3243248D01*
G01X415994Y-3244934D01*
G01X419802Y-3246620D01*
G01X425221Y-3249356D01*
G01X430641Y-3252092D01*
G01X435004Y-3254604D01*
G01X439367Y-3257115D01*
G01X441888Y-3258628D01*
G01X444409Y-3260141D01*
G01X449338Y-3263354D01*
G01X454266Y-3266568D01*
G01X457540Y-3265661D01*
G01X460814Y-3264753D01*
G01X464036Y-3263985D01*
G01X467258Y-3263216D01*
G01X471945Y-3262228D01*
G01X476632Y-3261240D01*
G01X481027Y-3260502D01*
G01X485421Y-3259764D01*
G01X490694Y-3259022D01*
G01X495966Y-3258281D01*
G01X500068Y-3257843D01*
G01X504169Y-3257406D01*
G01X511346Y-3256954D01*
G01X518523Y-3256503D01*
G01X529362Y-3256503D01*
G01X540200Y-3256503D01*
G01X547377Y-3256954D01*
G01X554555Y-3257406D01*
G01X558656Y-3257843D01*
G01X562757Y-3258281D01*
G01X568030Y-3259022D01*
G01X573303Y-3259764D01*
G01X577697Y-3260502D01*
G01X582091Y-3261240D01*
G01X586840Y-3262240D01*
G01X591589Y-3263240D01*
G01X594603Y-3263979D01*
G01X597617Y-3264717D01*
G01X601036Y-3265639D01*
G01X604455Y-3266561D01*
G01X607920Y-3264220D01*
G01X611385Y-3261879D01*
G01X615193Y-3259523D01*
G01X619001Y-3257167D01*
G01X622517Y-3255137D01*
G01X626032Y-3253107D01*
G01X627936Y-3252061D01*
G01X629840Y-3251014D01*
G01X634820Y-3248517D01*
G01X639800Y-3246020D01*
G01X641558Y-3245238D01*
G01X643315Y-3244457D01*
G01X647592Y-3242735D01*
G01X651868Y-3241013D01*
G01X656234Y-3239558D01*
G01X660599Y-3238102D01*
G01X663528Y-3237364D01*
G01X666458Y-3236626D01*
G01X670119Y-3235964D01*
G01X673781Y-3235302D01*
G01X679201Y-3235290D01*
G01X684620Y-3235277D01*
G01X685680Y-3235503D01*
G01X686740Y-3235729D01*
G01X687396Y-3237407D01*
G01X688051Y-3239086D01*
G01X689059Y-3242015D01*
G01X690067Y-3244945D01*
G01X691226Y-3249017D01*
G01X692385Y-3253089D01*
G01X693394Y-3258099D01*
G01X694404Y-3263109D01*
G01X694931Y-3267064D01*
G01X695459Y-3271020D01*
G01X695452Y-3280688D01*
G01X695445Y-3290356D01*
G01X694925Y-3294018D01*
G01X694405Y-3297680D01*
G01X693821Y-3300610D01*
G01X693238Y-3303539D01*
G01X692509Y-3306247D01*
G01X691780Y-3308955D01*
G01X690740Y-3312029D01*
G01X689700Y-3315104D01*
G01X692585Y-3318550D01*
G01X695471Y-3321996D01*
G01X697249Y-3324340D01*
G01X699027Y-3326684D01*
G01X700790Y-3329321D01*
G01X702553Y-3331957D01*
G01X704360Y-3334964D01*
G01X706168Y-3337971D01*
G01X708031Y-3341703D01*
G01X709895Y-3345434D01*
G01X711273Y-3348657D01*
G01X712651Y-3351879D01*
G01X714243Y-3356643D01*
G01X715835Y-3361406D01*
G01X716838Y-3365578D01*
G01X717841Y-3369750D01*
G01X718445Y-3373120D01*
G01X719050Y-3376489D01*
G01X719479Y-3379954D01*
G01X719909Y-3383420D01*
G01X720240Y-3389476D01*
G01X720572Y-3395532D01*
G01X720385Y-3401831D01*
G01X720198Y-3408130D01*
G01X719900Y-3412671D01*
G01X719603Y-3417212D01*
G01X719021Y-3422485D01*
G01X718439Y-3427759D01*
G01X717720Y-3432201D01*
G01X717001Y-3436643D01*
G01X716112Y-3440843D01*
G01X715223Y-3445044D01*
G01X714187Y-3448985D01*
G01X713151Y-3452925D01*
G01X711965Y-3456602D01*
G01X710779Y-3460278D01*
G01X708874Y-3465112D01*
G01X706969Y-3469946D01*
G01X704622Y-3474634D01*
G01X702275Y-3479321D01*
G01X701089Y-3481372D01*
G01X699903Y-3483423D01*
G01X697501Y-3487085D01*
G01X695098Y-3490747D01*
G01X692120Y-3494475D01*
G01X689143Y-3498204D01*
G01X686824Y-3500647D01*
G01X684506Y-3503091D01*
G01X682073Y-3505465D01*
G01X679640Y-3507840D01*
G01X676564Y-3510381D01*
G01X673488Y-3512923D01*
G01X670118Y-3515333D01*
G01X666748Y-3517743D01*
G01X662501Y-3520335D01*
G01X658255Y-3522927D01*
G01X652397Y-3525783D01*
G01X646538Y-3528638D01*
G01X643608Y-3529802D01*
G01X640679Y-3530967D01*
G01X636871Y-3532289D01*
G01X633062Y-3533611D01*
G01X630212Y-3534515D01*
G01X627362Y-3535419D01*
G01X625118Y-3536020D01*
G01X622874Y-3536622D01*
G01X619473Y-3537494D01*
G01X616072Y-3538366D01*
G01X611385Y-3539369D01*
G01X606698Y-3540373D01*
G01X600346Y-3541398D01*
G01X593995Y-3542423D01*
G01X588848Y-3543081D01*
G01X583702Y-3543739D01*
G01X583702Y-3543967D01*
G01X583702Y-3544194D01*
G01X584278Y-3544502D01*
G01X584854Y-3544810D01*
G01X587369Y-3547661D01*
G01X589884Y-3550513D01*
G01X591659Y-3553099D01*
G01X593433Y-3555686D01*
G01X595262Y-3559270D01*
G01X597092Y-3562854D01*
G01X598046Y-3565326D01*
G01X599001Y-3567798D01*
G01X599822Y-3570465D01*
G01X600644Y-3573132D01*
G01X601405Y-3576526D01*
G01X602166Y-3579920D01*
G01X602579Y-3582673D01*
G01X602993Y-3585426D01*
G01X603376Y-3589063D01*
G01X603760Y-3592701D01*
G01X603764Y-3611890D01*
G01X603768Y-3631080D01*
G01X603647Y-3657887D01*
G01X603526Y-3684693D01*
G01X604152Y-3686598D01*
G01X604778Y-3688502D01*
G01X605885Y-3690379D01*
G01X606991Y-3692255D01*
G01X608438Y-3693405D01*
G01X609886Y-3694555D01*
G01X611329Y-3695286D01*
G01X612773Y-3696018D01*
G01X614715Y-3696430D01*
G01X616658Y-3696841D01*
G01X618506Y-3696847D01*
G01X620354Y-3696852D01*
G01X622460Y-3696525D01*
G01X624567Y-3696198D01*
G01X629998Y-3694218D01*
G01X635429Y-3692239D01*
G01X640397Y-3690259D01*
G01X645366Y-3688279D01*
G01X650788Y-3685864D01*
G01X656209Y-3683449D01*
G01X662066Y-3680493D01*
G01X667922Y-3677537D01*
G01X671291Y-3675747D01*
G01X674660Y-3673956D01*
G01X678029Y-3672013D01*
G01X681398Y-3670070D01*
G01X685616Y-3667470D01*
G01X689834Y-3664870D01*
G01X690596Y-3664339D01*
G01X691358Y-3663809D01*
G01X695862Y-3660830D01*
G01X700366Y-3657851D01*
G01X705236Y-3654284D01*
G01X710106Y-3650718D01*
G01X715232Y-3646632D01*
G01X720359Y-3642545D01*
G01X725339Y-3638242D01*
G01X730319Y-3633938D01*
G01X734273Y-3630170D01*
G01X738228Y-3626402D01*
G01X739889Y-3624786D01*
G01X741549Y-3623170D01*
G01X745714Y-3618775D01*
G01X749878Y-3614381D01*
G01X754130Y-3609547D01*
G01X758382Y-3604713D01*
G01X762245Y-3599879D01*
G01X766108Y-3595045D01*
G01X769918Y-3589918D01*
G01X773727Y-3584791D01*
G01X777394Y-3579371D01*
G01X781062Y-3573951D01*
G01X783411Y-3570142D01*
G01X785760Y-3566333D01*
G01X787662Y-3563111D01*
G01X789563Y-3559888D01*
G01X792084Y-3555285D01*
G01X794605Y-3550681D01*
G01X796969Y-3545959D01*
G01X799333Y-3541237D01*
G01X802246Y-3534816D01*
G01X805158Y-3528396D01*
G01X807626Y-3522169D01*
G01X810094Y-3515943D01*
G01X811841Y-3510962D01*
G01X813588Y-3505982D01*
G01X815217Y-3500708D01*
G01X816846Y-3495435D01*
G01X818164Y-3490601D01*
G01X819481Y-3485767D01*
G01X820394Y-3481958D01*
G01X821308Y-3478149D01*
G01X822315Y-3473395D01*
G01X823322Y-3468641D01*
G01X824343Y-3462702D01*
G01X825364Y-3456763D01*
G01X826091Y-3451343D01*
G01X826817Y-3445923D01*
G01X827407Y-3439477D01*
G01X827996Y-3433032D01*
G01X828298Y-3427799D01*
G01X828600Y-3422567D01*
G01X828598Y-3413590D01*
G01X828597Y-3404614D01*
G01X828304Y-3398315D01*
G01X828011Y-3392016D01*
G01X827558Y-3386596D01*
G01X827106Y-3381176D01*
G01X826676Y-3377368D01*
G01X826245Y-3373559D01*
G01X825657Y-3369311D01*
G01X825069Y-3365063D01*
G01X824482Y-3361547D01*
G01X823896Y-3358032D01*
G01X822859Y-3352758D01*
G01X821821Y-3347485D01*
G01X820548Y-3342065D01*
G01X819274Y-3336645D01*
G01X817808Y-3331371D01*
G01X816343Y-3326098D01*
G01X814994Y-3321761D01*
G01X813645Y-3317423D01*
G01X811723Y-3311946D01*
G01X809800Y-3306469D01*
G01X807612Y-3300902D01*
G01X805423Y-3295336D01*
G01X803365Y-3290649D01*
G01X801307Y-3285961D01*
G01X797546Y-3278344D01*
G01X793785Y-3270727D01*
G01X791248Y-3266205D01*
G01X788712Y-3261683D01*
G01X785453Y-3256244D01*
G01X782193Y-3250805D01*
G01X777778Y-3244213D01*
G01X773363Y-3237621D01*
G01X769895Y-3232976D01*
G01X766428Y-3228331D01*
G01X763484Y-3224626D01*
G01X760540Y-3220922D01*
G01X758178Y-3218138D01*
G01X755817Y-3215355D01*
G01X752296Y-3211414D01*
G01X748774Y-3207474D01*
G01X745089Y-3203651D01*
G01X741405Y-3199828D01*
G01X737766Y-3196300D01*
G01X734127Y-3192773D01*
G01X731930Y-3190710D01*
G01X729733Y-3188648D01*
G01X725901Y-3185295D01*
G01X722069Y-3181942D01*
G01X717591Y-3178287D01*
G01X713114Y-3174632D01*
G01X708232Y-3170970D01*
G01X703350Y-3167308D01*
G01X698379Y-3163898D01*
G01X693408Y-3160488D01*
G01X687497Y-3156801D01*
G01X681586Y-3153114D01*
G01X677684Y-3150866D01*
G01X673781Y-3148618D01*
G01X669534Y-3146399D01*
G01X665286Y-3144179D01*
G01X658841Y-3141052D01*
G01X652397Y-3137925D01*
G01X647124Y-3135659D01*
G01X641851Y-3133393D01*
G01X635992Y-3131124D01*
G01X630133Y-3128856D01*
G01X623395Y-3126639D01*
G01X616658Y-3124422D01*
G01X612041Y-3123089D01*
G01X607423Y-3121757D01*
G01X603399Y-3120745D01*
G01X599374Y-3119733D01*
G01X594834Y-3118707D01*
G01X590293Y-3117681D01*
G01X585753Y-3116791D01*
G01X581212Y-3115901D01*
G01X576672Y-3115179D01*
G01X572131Y-3114458D01*
G01X566126Y-3113713D01*
G01X560120Y-3112969D01*
G01X556898Y-3112668D01*
G01X553676Y-3112368D01*
G01X546792Y-3111934D01*
G01X539908Y-3111500D01*
G01X527750Y-3111541D01*
G01X515593Y-3111582D01*
G01X511785Y-3111812D01*
G37*
G04 Image End*

G04 Text Start*
G36*
G01X2837180Y-3514436D02*
G01X2816860Y-3513974D01*
G01X2813166Y-3513051D01*
G01X2808086Y-3512127D01*
G01X2801158Y-3510742D01*
G01X2795154Y-3508894D01*
G01X2790536Y-3507047D01*
G01X2786842Y-3505200D01*
G01X2782686Y-3502891D01*
G01X2779453Y-3500582D01*
G01X2777144Y-3499196D01*
G01X2772526Y-3495502D01*
G01X2769754Y-3492731D01*
G01X2766984Y-3489498D01*
G01X2764674Y-3487189D01*
G01X2761904Y-3483494D01*
G01X2758671Y-3478876D01*
G01X2756362Y-3475182D01*
G01X2754514Y-3471487D01*
G01X2752667Y-3467331D01*
G01X2750820Y-3462713D01*
G01X2749434Y-3458556D01*
G01X2747587Y-3450244D01*
G01X2746664Y-3442854D01*
G01X2746202Y-3434080D01*
G01X2746664Y-3425306D01*
G01X2747587Y-3417916D01*
G01X2748419Y-3413760D01*
G01X2808547Y-3413760D01*
G01X2808547Y-3417916D01*
G01X2838104Y-3418378D01*
G01X2859924Y-3417916D01*
G01X2867198Y-3416531D01*
G01X2866736Y-3413298D01*
G01X2865813Y-3408680D01*
G01X2864427Y-3403600D01*
G01X2862580Y-3399444D01*
G01X2860733Y-3396211D01*
G01X2858886Y-3393902D01*
G01X2855653Y-3390669D01*
G01X2851034Y-3387898D01*
G01X2847340Y-3386513D01*
G01X2839951Y-3386051D01*
G01X2831638Y-3386513D01*
G01X2827020Y-3387898D01*
G01X2820554Y-3391131D01*
G01X2818707Y-3392978D01*
G01X2816860Y-3395287D01*
G01X2814551Y-3397596D01*
G01X2812704Y-3400367D01*
G01X2810856Y-3404524D01*
G01X2809471Y-3408680D01*
G01X2808547Y-3413760D01*
G01X2808547Y-3413760D01*
G01X2748419Y-3413760D01*
G01X2748511Y-3413298D01*
G01X2749896Y-3406833D01*
G01X2751744Y-3400829D01*
G01X2753591Y-3396673D01*
G01X2757747Y-3388360D01*
G01X2760518Y-3384204D01*
G01X2762827Y-3380971D01*
G01X2766522Y-3376353D01*
G01X2771140Y-3371734D01*
G01X2775758Y-3368040D01*
G01X2778991Y-3365269D01*
G01X2782224Y-3362960D01*
G01X2785456Y-3361113D01*
G01X2789151Y-3359266D01*
G01X2792384Y-3357880D01*
G01X2796078Y-3356494D01*
G01X2804391Y-3353724D01*
G01X2809471Y-3352338D01*
G01X2814089Y-3351414D01*
G01X2822402Y-3350491D01*
G01X2835794Y-3350029D01*
G01X2849187Y-3350491D01*
G01X2852420Y-3350953D01*
G01X2858424Y-3351414D01*
G01X2863966Y-3352338D01*
G01X2868584Y-3353262D01*
G01X2874587Y-3354647D01*
G01X2880129Y-3356494D01*
G01X2885209Y-3358342D01*
G01X2889827Y-3360651D01*
G01X2894446Y-3363422D01*
G01X2897678Y-3365731D01*
G01X2899987Y-3367116D01*
G01X2902296Y-3368964D01*
G01X2911533Y-3378200D01*
G01X2913842Y-3381433D01*
G01X2916613Y-3385589D01*
G01X2918922Y-3389284D01*
G01X2920769Y-3392978D01*
G01X2922616Y-3397596D01*
G01X2924464Y-3402676D01*
G01X2925849Y-3406833D01*
G01X2927696Y-3416993D01*
G01X2928620Y-3424382D01*
G01X2929082Y-3436389D01*
G01X2929082Y-3447011D01*
G01X2808086Y-3447011D01*
G01X2808547Y-3450244D01*
G01X2809471Y-3454862D01*
G01X2810394Y-3458556D01*
G01X2811780Y-3462251D01*
G01X2813166Y-3465484D01*
G01X2815013Y-3468254D01*
G01X2819631Y-3472873D01*
G01X2822864Y-3475182D01*
G01X2826558Y-3477029D01*
G01X2830253Y-3478414D01*
G01X2835794Y-3479338D01*
G01X2843646Y-3478876D01*
G01X2849649Y-3477491D01*
G01X2853806Y-3475644D01*
G01X2857038Y-3473796D01*
G01X2860271Y-3471487D01*
G01X2863966Y-3467793D01*
G01X2865928Y-3466061D01*
G01X2869046Y-3465484D01*
G01X2904606Y-3468716D01*
G01X2913842Y-3469640D01*
G01X2920307Y-3470102D01*
G01X2924002Y-3470448D01*
G01X2924926Y-3471487D01*
G01X2923078Y-3474720D01*
G01X2920307Y-3478876D01*
G01X2917998Y-3482109D01*
G01X2912456Y-3489036D01*
G01X2904606Y-3496887D01*
G01X2900911Y-3499658D01*
G01X2898602Y-3501506D01*
G01X2895369Y-3503353D01*
G01X2891674Y-3505200D01*
G01X2885209Y-3507971D01*
G01X2881514Y-3509356D01*
G01X2875973Y-3510742D01*
G01X2871354Y-3512127D01*
G01X2864889Y-3513051D01*
G01X2856576Y-3513974D01*
G01X2837180Y-3514436D01*
G37*
G36*
G01X2550391Y-3511666D02*
G01X2550391Y-3353724D01*
G01X2606733Y-3353724D01*
G01X2606733Y-3377738D01*
G01X2608580Y-3376814D01*
G01X2611351Y-3374044D01*
G01X2613660Y-3371273D01*
G01X2618278Y-3366654D01*
G01X2620587Y-3364807D01*
G01X2623820Y-3362036D01*
G01X2630747Y-3357418D01*
G01X2633518Y-3356033D01*
G01X2637213Y-3354647D01*
G01X2645526Y-3351876D01*
G01X2649220Y-3350953D01*
G01X2652453Y-3350491D01*
G01X2661227Y-3350029D01*
G01X2671849Y-3350491D01*
G01X2677391Y-3351414D01*
G01X2684780Y-3353262D01*
G01X2688474Y-3354647D01*
G01X2692169Y-3356494D01*
G01X2695402Y-3358342D01*
G01X2697711Y-3359727D01*
G01X2700020Y-3361574D01*
G01X2705562Y-3367116D01*
G01X2708794Y-3371734D01*
G01X2711104Y-3375429D01*
G01X2712489Y-3379124D01*
G01X2713874Y-3383280D01*
G01X2715260Y-3387898D01*
G01X2716184Y-3392054D01*
G01X2717107Y-3398520D01*
G01X2717569Y-3455786D01*
G01X2717569Y-3511666D01*
G01X2656609Y-3511666D01*
G01X2656609Y-3465022D01*
G01X2656147Y-3416993D01*
G01X2655686Y-3413760D01*
G01X2654762Y-3410066D01*
G01X2653376Y-3406371D01*
G01X2651529Y-3403600D01*
G01X2649220Y-3401291D01*
G01X2645987Y-3398982D01*
G01X2642293Y-3397596D01*
G01X2636751Y-3397134D01*
G01X2629362Y-3398058D01*
G01X2625206Y-3399906D01*
G01X2622434Y-3401291D01*
G01X2618740Y-3404062D01*
G01X2615969Y-3408218D01*
G01X2614122Y-3411913D01*
G01X2612736Y-3416993D01*
G01X2611813Y-3421611D01*
G01X2611351Y-3467331D01*
G01X2611351Y-3511666D01*
G01X2550391Y-3511666D01*
G37*
G36*
G01X1719118Y-3511666D02*
G01X1719118Y-3347258D01*
G01X1650769Y-3347258D01*
G01X1650769Y-3293687D01*
G01X1855816Y-3293687D01*
G01X1855816Y-3318164D01*
G01X1855354Y-3344949D01*
G01X1854893Y-3347258D01*
G01X1786544Y-3347258D01*
G01X1786544Y-3511666D01*
G01X1719118Y-3511666D01*
G37*
G36*
G01X1889991Y-3511666D02*
G01X1889991Y-3293687D01*
G01X1950951Y-3293687D01*
G01X1950951Y-3332942D01*
G01X1951297Y-3362267D01*
G01X1952336Y-3371734D01*
G01X1954646Y-3369887D01*
G01X1957878Y-3366654D01*
G01X1962496Y-3362960D01*
G01X1967114Y-3359727D01*
G01X1970809Y-3357418D01*
G01X1974504Y-3355571D01*
G01X1979122Y-3353724D01*
G01X1982816Y-3352338D01*
G01X1992053Y-3350491D01*
G01X2000366Y-3350029D01*
G01X2011449Y-3350491D01*
G01X2016991Y-3351414D01*
G01X2021147Y-3352338D01*
G01X2025766Y-3353724D01*
G01X2029922Y-3355571D01*
G01X2034078Y-3357880D01*
G01X2037773Y-3360189D01*
G01X2040544Y-3362498D01*
G01X2042853Y-3364807D01*
G01X2046547Y-3369426D01*
G01X2048856Y-3372658D01*
G01X2050704Y-3376353D01*
G01X2052089Y-3379586D01*
G01X2053474Y-3383280D01*
G01X2054860Y-3387898D01*
G01X2055784Y-3392054D01*
G01X2056707Y-3399444D01*
G01X2057169Y-3456247D01*
G01X2057169Y-3511666D01*
G01X1996209Y-3511666D01*
G01X1996209Y-3465484D01*
G01X1995747Y-3417916D01*
G01X1995286Y-3414222D01*
G01X1994362Y-3410527D01*
G01X1992976Y-3406833D01*
G01X1991129Y-3403600D01*
G01X1988820Y-3401291D01*
G01X1985587Y-3398982D01*
G01X1981893Y-3397596D01*
G01X1976351Y-3397134D01*
G01X1968962Y-3398058D01*
G01X1964344Y-3399906D01*
G01X1961573Y-3401291D01*
G01X1958340Y-3404062D01*
G01X1955569Y-3408218D01*
G01X1953722Y-3411913D01*
G01X1952336Y-3416531D01*
G01X1951413Y-3420687D01*
G01X1950951Y-3466869D01*
G01X1950951Y-3511666D01*
G01X1889991Y-3511666D01*
G37*
G36*
G01X2176318Y-3514436D02*
G01X2155998Y-3513974D01*
G01X2152766Y-3513051D01*
G01X2143529Y-3511204D01*
G01X2139373Y-3510280D01*
G01X2134754Y-3508894D01*
G01X2131060Y-3507509D01*
G01X2128289Y-3506124D01*
G01X2125056Y-3504276D01*
G01X2120900Y-3501967D01*
G01X2117206Y-3499658D01*
G01X2111664Y-3495040D01*
G01X2108431Y-3491807D01*
G01X2105660Y-3488574D01*
G01X2103351Y-3486266D01*
G01X2101042Y-3483033D01*
G01X2098271Y-3478876D01*
G01X2095962Y-3475182D01*
G01X2092267Y-3467793D01*
G01X2090882Y-3464098D01*
G01X2089496Y-3459942D01*
G01X2088111Y-3455324D01*
G01X2087187Y-3451167D01*
G01X2086264Y-3443778D01*
G01X2085802Y-3434080D01*
G01X2086264Y-3424382D01*
G01X2086726Y-3421149D01*
G01X2087187Y-3416993D01*
G01X2087464Y-3415607D01*
G01X2147686Y-3415607D01*
G01X2148147Y-3417916D01*
G01X2177242Y-3418378D01*
G01X2206336Y-3417454D01*
G01X2206336Y-3413298D01*
G01X2204951Y-3407294D01*
G01X2203104Y-3402214D01*
G01X2201256Y-3398520D01*
G01X2198947Y-3394826D01*
G01X2195253Y-3390669D01*
G01X2190634Y-3387898D01*
G01X2186940Y-3386513D01*
G01X2179089Y-3386051D01*
G01X2171238Y-3386513D01*
G01X2167544Y-3387436D01*
G01X2163387Y-3389284D01*
G01X2159693Y-3391593D01*
G01X2156922Y-3394364D01*
G01X2154613Y-3397134D01*
G01X2152304Y-3400367D01*
G01X2150456Y-3404062D01*
G01X2149071Y-3408218D01*
G01X2148147Y-3412374D01*
G01X2147686Y-3415607D01*
G01X2147686Y-3415607D01*
G01X2087464Y-3415607D01*
G01X2088111Y-3412374D01*
G01X2089958Y-3404986D01*
G01X2091344Y-3400829D01*
G01X2095038Y-3392516D01*
G01X2097347Y-3388360D01*
G01X2100118Y-3384204D01*
G01X2102427Y-3380971D01*
G01X2106122Y-3376353D01*
G01X2110740Y-3371734D01*
G01X2115358Y-3368040D01*
G01X2118591Y-3365269D01*
G01X2121824Y-3362960D01*
G01X2125056Y-3361113D01*
G01X2128751Y-3359266D01*
G01X2131984Y-3357880D01*
G01X2135678Y-3356494D01*
G01X2143991Y-3353724D01*
G01X2149071Y-3352338D01*
G01X2153689Y-3351414D01*
G01X2162002Y-3350491D01*
G01X2175394Y-3350029D01*
G01X2188787Y-3350491D01*
G01X2192020Y-3350953D01*
G01X2198024Y-3351414D01*
G01X2203566Y-3352338D01*
G01X2208184Y-3353262D01*
G01X2214187Y-3354647D01*
G01X2219729Y-3356494D01*
G01X2224809Y-3358342D01*
G01X2228504Y-3360189D01*
G01X2231736Y-3362036D01*
G01X2235431Y-3364346D01*
G01X2239587Y-3367578D01*
G01X2243282Y-3370349D01*
G01X2250209Y-3377276D01*
G01X2252980Y-3380971D01*
G01X2257598Y-3387898D01*
G01X2259446Y-3391131D01*
G01X2261293Y-3395287D01*
G01X2263140Y-3400367D01*
G01X2264987Y-3406833D01*
G01X2266373Y-3411451D01*
G01X2267296Y-3417916D01*
G01X2268220Y-3425306D01*
G01X2268682Y-3436851D01*
G01X2268682Y-3447011D01*
G01X2208184Y-3447011D01*
G01X2162810Y-3447473D01*
G01X2147686Y-3448858D01*
G01X2148609Y-3453938D01*
G01X2149994Y-3458556D01*
G01X2151380Y-3462251D01*
G01X2153689Y-3466869D01*
G01X2155998Y-3469640D01*
G01X2160154Y-3473796D01*
G01X2162926Y-3475644D01*
G01X2169391Y-3478414D01*
G01X2174933Y-3479338D01*
G01X2183246Y-3478876D01*
G01X2189249Y-3477491D01*
G01X2193406Y-3475644D01*
G01X2196638Y-3473796D01*
G01X2199871Y-3471487D01*
G01X2203566Y-3467793D01*
G01X2205528Y-3466061D01*
G01X2208646Y-3465484D01*
G01X2244206Y-3468716D01*
G01X2253442Y-3469640D01*
G01X2263602Y-3470564D01*
G01X2264294Y-3471487D01*
G01X2263602Y-3473334D01*
G01X2261293Y-3476567D01*
G01X2257598Y-3482109D01*
G01X2252056Y-3489036D01*
G01X2245129Y-3495964D01*
G01X2242820Y-3497811D01*
G01X2240511Y-3499196D01*
G01X2238202Y-3501044D01*
G01X2234969Y-3503353D01*
G01X2231274Y-3505200D01*
G01X2224809Y-3507971D01*
G01X2221114Y-3509356D01*
G01X2215573Y-3510742D01*
G01X2210954Y-3512127D01*
G01X2204489Y-3513051D01*
G01X2196176Y-3513974D01*
G01X2176318Y-3514436D01*
G37*
G36*
G01X2407227Y-3515360D02*
G01X2399376Y-3514898D01*
G01X2395220Y-3514436D01*
G01X2388293Y-3513974D01*
G01X2380904Y-3513051D01*
G01X2375362Y-3512127D01*
G01X2367049Y-3510280D01*
G01X2363354Y-3509356D01*
G01X2358274Y-3507971D01*
G01X2353656Y-3506124D01*
G01X2349962Y-3504738D01*
G01X2347191Y-3503353D01*
G01X2343958Y-3501506D01*
G01X2340264Y-3499658D01*
G01X2336569Y-3497349D01*
G01X2331951Y-3494116D01*
G01X2328256Y-3491346D01*
G01X2319020Y-3482109D01*
G01X2315326Y-3477491D01*
G01X2312554Y-3474258D01*
G01X2309784Y-3470102D01*
G01X2307474Y-3466407D01*
G01X2302856Y-3458094D01*
G01X2301009Y-3453938D01*
G01X2299162Y-3448858D01*
G01X2297314Y-3442854D01*
G01X2295929Y-3438236D01*
G01X2294082Y-3429000D01*
G01X2293158Y-3422534D01*
G01X2292234Y-3404986D01*
G01X2292234Y-3402676D01*
G01X2292333Y-3401291D01*
G01X2359198Y-3401291D01*
G01X2359660Y-3404986D01*
G01X2360122Y-3410989D01*
G01X2360584Y-3417916D01*
G01X2361507Y-3424382D01*
G01X2362893Y-3431309D01*
G01X2364278Y-3435466D01*
G01X2365664Y-3439160D01*
G01X2367511Y-3443316D01*
G01X2369358Y-3446549D01*
G01X2372129Y-3450244D01*
G01X2374900Y-3453476D01*
G01X2376747Y-3455324D01*
G01X2379980Y-3457633D01*
G01X2383674Y-3459942D01*
G01X2386907Y-3461327D01*
G01X2390602Y-3462713D01*
G01X2394296Y-3463636D01*
G01X2394296Y-3463636D01*
G01X2396606Y-3464098D01*
G01X2402609Y-3464560D01*
G01X2411384Y-3464098D01*
G01X2416926Y-3463174D01*
G01X2420620Y-3462251D01*
G01X2424314Y-3460866D01*
G01X2428471Y-3459018D01*
G01X2431242Y-3457171D01*
G01X2434474Y-3454862D01*
G01X2438631Y-3451167D01*
G01X2441402Y-3447011D01*
G01X2443711Y-3442854D01*
G01X2446020Y-3437774D01*
G01X2447406Y-3433618D01*
G01X2449253Y-3425306D01*
G01X2450176Y-3416993D01*
G01X2450638Y-3403138D01*
G01X2450176Y-3387436D01*
G01X2449253Y-3380971D01*
G01X2447867Y-3374506D01*
G01X2446482Y-3369887D01*
G01X2445096Y-3366193D01*
G01X2443249Y-3362036D01*
G01X2441402Y-3358804D01*
G01X2439554Y-3356033D01*
G01X2432627Y-3349106D01*
G01X2430318Y-3347258D01*
G01X2427086Y-3345411D01*
G01X2422929Y-3343564D01*
G01X2418773Y-3342178D01*
G01X2415078Y-3341254D01*
G01X2406304Y-3340793D01*
G01X2397529Y-3341254D01*
G01X2394296Y-3341716D01*
G01X2390602Y-3342640D01*
G01X2386446Y-3344487D01*
G01X2381827Y-3346796D01*
G01X2378594Y-3349106D01*
G01X2375824Y-3350953D01*
G01X2373053Y-3353262D01*
G01X2370282Y-3356956D01*
G01X2367511Y-3361113D01*
G01X2365664Y-3364807D01*
G01X2363816Y-3369426D01*
G01X2362431Y-3373582D01*
G01X2360584Y-3383742D01*
G01X2359660Y-3397596D01*
G01X2359198Y-3401291D01*
G01X2292333Y-3401291D01*
G01X2292696Y-3396211D01*
G01X2293158Y-3386513D01*
G01X2294082Y-3379124D01*
G01X2295006Y-3374506D01*
G01X2295467Y-3371273D01*
G01X2296391Y-3366654D01*
G01X2297776Y-3362498D01*
G01X2298700Y-3358804D01*
G01X2300086Y-3354647D01*
G01X2301933Y-3350029D01*
G01X2303780Y-3345873D01*
G01X2307936Y-3337560D01*
G01X2310707Y-3333404D01*
G01X2313016Y-3329709D01*
G01X2315326Y-3326938D01*
G01X2320867Y-3320473D01*
G01X2325486Y-3315854D01*
G01X2332413Y-3310313D01*
G01X2335646Y-3308004D01*
G01X2339802Y-3305233D01*
G01X2343958Y-3302924D01*
G01X2347653Y-3301076D01*
G01X2354118Y-3298306D01*
G01X2357813Y-3296920D01*
G01X2366126Y-3294149D01*
G01X2369820Y-3293226D01*
G01X2379056Y-3291378D01*
G01X2387369Y-3290454D01*
G01X2403533Y-3289993D01*
G01X2419696Y-3290454D01*
G01X2423391Y-3290916D01*
G01X2428933Y-3291378D01*
G01X2438169Y-3293226D01*
G01X2444634Y-3294611D01*
G01X2451100Y-3296458D01*
G01X2456180Y-3298306D01*
G01X2459874Y-3299691D01*
G01X2463569Y-3301538D01*
G01X2467726Y-3303847D01*
G01X2471420Y-3305694D01*
G01X2475114Y-3308004D01*
G01X2481580Y-3312622D01*
G01X2484813Y-3315393D01*
G01X2487122Y-3317240D01*
G01X2489893Y-3320011D01*
G01X2492664Y-3323244D01*
G01X2495896Y-3326476D01*
G01X2498206Y-3330171D01*
G01X2500053Y-3332480D01*
G01X2502362Y-3335713D01*
G01X2506056Y-3342178D01*
G01X2509751Y-3350491D01*
G01X2511598Y-3355571D01*
G01X2512984Y-3359727D01*
G01X2514831Y-3367116D01*
G01X2516678Y-3377276D01*
G01X2517602Y-3384666D01*
G01X2518064Y-3399444D01*
G01X2517602Y-3414222D01*
G01X2517140Y-3417916D01*
G01X2516678Y-3423458D01*
G01X2515754Y-3429924D01*
G01X2514831Y-3434542D01*
G01X2513907Y-3438698D01*
G01X2512522Y-3444702D01*
G01X2510674Y-3450706D01*
G01X2508827Y-3455324D01*
G01X2506980Y-3459480D01*
G01X2505133Y-3463174D01*
G01X2503286Y-3466407D01*
G01X2500976Y-3470564D01*
G01X2498667Y-3473796D01*
G01X2497282Y-3476106D01*
G01X2495434Y-3478414D01*
G01X2490816Y-3483956D01*
G01X2485274Y-3489498D01*
G01X2480656Y-3493193D01*
G01X2476962Y-3495964D01*
G01X2474653Y-3497811D01*
G01X2471420Y-3499658D01*
G01X2463107Y-3504276D01*
G01X2458951Y-3506124D01*
G01X2454333Y-3507971D01*
G01X2448329Y-3509818D01*
G01X2443711Y-3511204D01*
G01X2435398Y-3513051D01*
G01X2428009Y-3513974D01*
G01X2416002Y-3514898D01*
G01X2407227Y-3515360D01*
G37*
G36*
G01X952500Y-3413760D02*
G01X919711Y-3413298D01*
G01X919249Y-3383280D01*
G01X919249Y-3353724D01*
G01X984827Y-3353724D01*
G01X984827Y-3413760D01*
G01X952500Y-3413760D01*
G37*
G36*
G01X952038Y-3511666D02*
G01X919711Y-3511204D01*
G01X919249Y-3483033D01*
G01X919711Y-3453014D01*
G01X920173Y-3450706D01*
G01X984827Y-3450706D01*
G01X984827Y-3478876D01*
G01X984366Y-3509356D01*
G01X983904Y-3511666D01*
G01X952038Y-3511666D01*
G37*
G36*
G01X1218507Y-3511666D02*
G01X1126606Y-3511204D01*
G01X1126144Y-3402214D01*
G01X1126144Y-3293687D01*
G01X1307176Y-3293687D01*
G01X1307176Y-3339869D01*
G01X1194493Y-3339869D01*
G01X1194493Y-3374967D01*
G01X1298864Y-3374967D01*
G01X1298864Y-3418378D01*
G01X1194493Y-3418378D01*
G01X1194493Y-3461789D01*
G01X1250373Y-3461789D01*
G01X1308562Y-3462251D01*
G01X1310871Y-3462713D01*
G01X1310871Y-3484880D01*
G01X1310409Y-3509356D01*
G01X1309947Y-3511666D01*
G01X1218507Y-3511666D01*
G37*
G36*
G01X1349664Y-3511666D02*
G01X1349664Y-3397134D01*
G01X1326573Y-3397134D01*
G01X1326573Y-3353724D01*
G01X1349664Y-3353724D01*
G01X1349664Y-3347258D01*
G01X1350126Y-3336636D01*
G01X1351049Y-3331094D01*
G01X1351973Y-3324629D01*
G01X1352896Y-3320473D01*
G01X1354282Y-3315854D01*
G01X1356129Y-3311698D01*
G01X1358900Y-3307080D01*
G01X1361671Y-3303386D01*
G01X1363980Y-3301076D01*
G01X1366289Y-3299229D01*
G01X1369060Y-3297382D01*
G01X1372293Y-3295534D01*
G01X1375987Y-3293687D01*
G01X1379682Y-3292302D01*
G01X1389842Y-3290454D01*
G01X1406467Y-3289993D01*
G01X1423093Y-3290454D01*
G01X1433253Y-3291378D01*
G01X1442489Y-3292302D01*
G01X1448031Y-3292764D01*
G01X1451033Y-3293110D01*
G01X1451726Y-3294149D01*
G01X1449878Y-3303386D01*
G01X1448031Y-3313546D01*
G01X1446184Y-3322782D01*
G01X1445722Y-3326938D01*
G01X1445376Y-3328901D01*
G01X1444336Y-3329247D01*
G01X1434176Y-3328324D01*
G01X1429558Y-3327862D01*
G01X1424940Y-3328324D01*
G01X1421707Y-3328786D01*
G01X1417551Y-3330171D01*
G01X1413856Y-3333404D01*
G01X1411547Y-3337098D01*
G01X1410624Y-3346334D01*
G01X1410624Y-3353724D01*
G01X1439256Y-3353724D01*
G01X1439256Y-3397134D01*
G01X1410624Y-3397134D01*
G01X1410624Y-3452091D01*
G01X1410162Y-3509356D01*
G01X1409700Y-3511666D01*
G01X1349664Y-3511666D01*
G37*
G36*
G01X1508991Y-3514436D02*
G01X1494213Y-3513974D01*
G01X1490056Y-3513051D01*
G01X1484053Y-3511666D01*
G01X1476664Y-3508894D01*
G01X1472507Y-3506586D01*
G01X1468351Y-3503814D01*
G01X1465118Y-3501044D01*
G01X1460500Y-3496426D01*
G01X1458191Y-3493193D01*
G01X1455882Y-3489498D01*
G01X1454034Y-3486266D01*
G01X1452649Y-3482109D01*
G01X1451726Y-3477953D01*
G01X1451264Y-3471949D01*
G01X1451726Y-3463174D01*
G01X1451899Y-3462251D01*
G01X1511762Y-3462251D01*
G01X1511762Y-3465484D01*
G01X1512686Y-3469640D01*
G01X1514533Y-3474258D01*
G01X1517304Y-3477491D01*
G01X1520074Y-3479338D01*
G01X1523307Y-3480262D01*
G01X1523307Y-3480262D01*
G01X1525616Y-3480724D01*
G01X1531158Y-3481186D01*
G01X1539471Y-3480262D01*
G01X1544089Y-3478876D01*
G01X1547784Y-3477491D01*
G01X1551940Y-3475182D01*
G01X1556096Y-3471949D01*
G01X1559329Y-3469178D01*
G01X1561638Y-3465946D01*
G01X1563947Y-3461327D01*
G01X1565333Y-3457633D01*
G01X1565794Y-3447934D01*
G01X1565333Y-3438236D01*
G01X1564294Y-3437428D01*
G01X1562100Y-3437774D01*
G01X1556558Y-3439622D01*
G01X1550554Y-3441469D01*
G01X1544089Y-3443316D01*
G01X1539471Y-3444702D01*
G01X1535776Y-3445626D01*
G01X1531158Y-3447011D01*
G01X1526078Y-3448858D01*
G01X1520998Y-3451167D01*
G01X1517766Y-3453476D01*
G01X1515456Y-3455324D01*
G01X1513147Y-3458556D01*
G01X1511762Y-3462251D01*
G01X1451899Y-3462251D01*
G01X1453111Y-3455786D01*
G01X1454958Y-3451167D01*
G01X1456806Y-3447473D01*
G01X1458653Y-3444240D01*
G01X1460962Y-3441007D01*
G01X1463733Y-3437774D01*
G01X1466042Y-3435927D01*
G01X1471584Y-3432233D01*
G01X1475278Y-3430386D01*
G01X1479434Y-3428538D01*
G01X1483591Y-3427153D01*
G01X1488209Y-3425767D01*
G01X1493289Y-3424382D01*
G01X1499754Y-3422996D01*
G01X1504373Y-3421611D01*
G01X1514533Y-3419764D01*
G01X1522846Y-3417916D01*
G01X1527464Y-3416993D01*
G01X1533929Y-3415607D01*
G01X1546860Y-3412374D01*
G01X1551016Y-3410989D01*
G01X1555634Y-3409604D01*
G01X1559791Y-3408218D01*
G01X1563486Y-3406833D01*
G01X1565217Y-3405563D01*
G01X1565794Y-3402676D01*
G01X1564871Y-3396211D01*
G01X1562100Y-3391131D01*
G01X1558867Y-3388360D01*
G01X1555634Y-3386974D01*
G01X1545936Y-3386051D01*
G01X1535776Y-3386513D01*
G01X1528387Y-3388360D01*
G01X1524693Y-3389746D01*
G01X1521922Y-3391131D01*
G01X1519613Y-3392978D01*
G01X1517304Y-3396211D01*
G01X1515456Y-3399906D01*
G01X1514071Y-3403138D01*
G01X1513032Y-3404062D01*
G01X1511762Y-3404062D01*
G01X1501602Y-3403138D01*
G01X1493289Y-3402214D01*
G01X1474816Y-3400367D01*
G01X1466504Y-3399444D01*
G01X1460500Y-3398982D01*
G01X1455882Y-3398982D01*
G01X1456344Y-3397134D01*
G01X1457267Y-3393902D01*
G01X1458191Y-3390207D01*
G01X1459576Y-3386051D01*
G01X1461424Y-3381894D01*
G01X1463733Y-3377276D01*
G01X1466042Y-3374044D01*
G01X1467427Y-3371734D01*
G01X1469736Y-3369426D01*
G01X1472507Y-3367116D01*
G01X1474816Y-3364807D01*
G01X1478049Y-3362498D01*
G01X1481744Y-3360189D01*
G01X1484976Y-3358342D01*
G01X1489133Y-3356494D01*
G01X1495136Y-3354647D01*
G01X1504373Y-3352338D01*
G01X1510838Y-3351414D01*
G01X1520998Y-3350491D01*
G01X1540394Y-3350029D01*
G01X1559791Y-3350491D01*
G01X1563947Y-3350953D01*
G01X1569951Y-3351414D01*
G01X1576416Y-3352338D01*
G01X1581034Y-3353262D01*
G01X1589347Y-3355109D01*
G01X1593504Y-3356494D01*
G01X1597660Y-3358342D01*
G01X1600893Y-3360189D01*
G01X1606434Y-3363884D01*
G01X1609206Y-3366193D01*
G01X1611514Y-3368502D01*
G01X1614286Y-3371734D01*
G01X1617056Y-3375891D01*
G01X1619366Y-3380047D01*
G01X1621213Y-3385127D01*
G01X1623060Y-3391131D01*
G01X1624446Y-3395749D01*
G01X1625369Y-3405909D01*
G01X1626293Y-3490884D01*
G01X1626754Y-3494116D01*
G01X1627678Y-3497811D01*
G01X1629064Y-3501967D01*
G01X1630449Y-3505662D01*
G01X1632296Y-3509356D01*
G01X1633220Y-3511666D01*
G01X1605049Y-3511666D01*
G01X1583690Y-3511319D01*
G01X1575954Y-3510280D01*
G01X1574107Y-3507509D01*
G01X1572260Y-3503814D01*
G01X1570874Y-3500120D01*
G01X1570413Y-3496426D01*
G01X1570066Y-3494578D01*
G01X1569027Y-3493654D01*
G01X1567757Y-3493654D01*
G01X1566718Y-3494578D01*
G01X1564409Y-3496887D01*
G01X1562100Y-3498734D01*
G01X1558867Y-3501044D01*
G01X1554711Y-3503814D01*
G01X1551478Y-3505662D01*
G01X1548707Y-3507047D01*
G01X1544551Y-3508894D01*
G01X1534853Y-3512127D01*
G01X1524693Y-3513974D01*
G01X1508991Y-3514436D01*
G37*
G36*
G01X2536767Y-4553296D02*
G01X2521527Y-4552834D01*
G01X2518294Y-4552373D01*
G01X2514138Y-4551911D01*
G01X2501207Y-4550064D01*
G01X2497051Y-4549140D01*
G01X2491509Y-4547754D01*
G01X2486891Y-4545907D01*
G01X2482734Y-4544060D01*
G01X2479040Y-4542213D01*
G01X2475346Y-4539904D01*
G01X2472113Y-4537133D01*
G01X2466571Y-4531591D01*
G01X2463800Y-4527896D01*
G01X2461953Y-4525126D01*
G01X2459182Y-4518660D01*
G01X2457796Y-4514042D01*
G01X2456873Y-4509424D01*
G01X2456411Y-4500649D01*
G01X2456411Y-4493260D01*
G01X2459182Y-4493260D01*
G01X2463338Y-4493722D01*
G01X2470727Y-4494646D01*
G01X2503978Y-4498340D01*
G01X2507211Y-4498802D01*
G01X2511367Y-4499264D01*
G01X2515062Y-4500649D01*
G01X2516909Y-4503420D01*
G01X2518756Y-4507114D01*
G01X2522451Y-4510809D01*
G01X2527069Y-4513580D01*
G01X2530764Y-4514966D01*
G01X2536767Y-4515427D01*
G01X2544618Y-4514966D01*
G01X2550160Y-4513580D01*
G01X2556626Y-4510347D01*
G01X2559396Y-4507576D01*
G01X2561706Y-4503882D01*
G01X2563091Y-4500649D01*
G01X2564014Y-4497416D01*
G01X2564938Y-4489104D01*
G01X2565400Y-4474326D01*
G01X2565054Y-4464396D01*
G01X2564014Y-4461394D01*
G01X2561706Y-4463242D01*
G01X2554778Y-4470169D01*
G01X2552469Y-4472016D01*
G01X2549698Y-4473864D01*
G01X2545542Y-4476173D01*
G01X2540924Y-4478482D01*
G01X2537229Y-4479867D01*
G01X2529840Y-4481714D01*
G01X2521527Y-4482638D01*
G01X2518294Y-4483100D01*
G01X2511829Y-4482176D01*
G01X2507673Y-4481714D01*
G01X2502131Y-4480791D01*
G01X2497051Y-4479406D01*
G01X2493356Y-4478020D01*
G01X2489200Y-4476173D01*
G01X2484582Y-4473402D01*
G01X2481349Y-4471093D01*
G01X2478116Y-4468322D01*
G01X2474422Y-4465551D01*
G01X2472113Y-4463242D01*
G01X2466571Y-4456314D01*
G01X2464724Y-4453544D01*
G01X2462414Y-4449849D01*
G01X2460106Y-4445693D01*
G01X2458258Y-4441074D01*
G01X2456411Y-4435994D01*
G01X2455026Y-4431838D01*
G01X2453178Y-4421678D01*
G01X2452254Y-4413366D01*
G01X2451793Y-4405053D01*
G01X2512753Y-4405053D01*
G01X2513214Y-4417060D01*
G01X2515062Y-4424449D01*
G01X2516909Y-4429067D01*
G01X2519218Y-4432300D01*
G01X2521066Y-4434609D01*
G01X2523836Y-4436918D01*
G01X2526607Y-4438766D01*
G01X2530302Y-4440151D01*
G01X2530302Y-4440151D01*
G01X2533534Y-4441074D01*
G01X2537229Y-4441536D01*
G01X2542771Y-4441074D01*
G01X2547851Y-4439689D01*
G01X2552469Y-4437380D01*
G01X2555702Y-4435071D01*
G01X2558011Y-4432762D01*
G01X2559858Y-4430453D01*
G01X2561244Y-4428144D01*
G01X2562629Y-4425373D01*
G01X2564014Y-4421216D01*
G01X2564938Y-4417060D01*
G01X2565400Y-4408286D01*
G01X2564938Y-4399511D01*
G01X2564476Y-4396278D01*
G01X2563553Y-4392584D01*
G01X2562167Y-4388889D01*
G01X2560320Y-4385194D01*
G01X2558011Y-4381500D01*
G01X2555702Y-4378729D01*
G01X2553393Y-4376882D01*
G01X2550160Y-4374573D01*
G01X2546466Y-4372726D01*
G01X2542309Y-4371802D01*
G01X2535382Y-4371802D01*
G01X2529378Y-4373187D01*
G01X2525222Y-4375034D01*
G01X2521989Y-4377344D01*
G01X2519680Y-4379653D01*
G01X2517371Y-4382424D01*
G01X2515524Y-4386118D01*
G01X2514138Y-4390274D01*
G01X2513214Y-4393969D01*
G01X2512753Y-4405053D01*
G01X2451793Y-4405053D01*
G01X2452254Y-4396740D01*
G01X2453178Y-4387504D01*
G01X2454102Y-4381962D01*
G01X2455487Y-4375034D01*
G01X2456873Y-4370878D01*
G01X2457796Y-4367646D01*
G01X2459182Y-4364413D01*
G01X2463338Y-4356100D01*
G01X2465647Y-4352867D01*
G01X2467494Y-4350096D01*
G01X2469804Y-4347326D01*
G01X2475346Y-4341784D01*
G01X2479040Y-4339013D01*
G01X2481349Y-4337166D01*
G01X2484582Y-4335318D01*
G01X2488276Y-4333471D01*
G01X2491971Y-4332086D01*
G01X2496127Y-4330700D01*
G01X2501207Y-4329314D01*
G01X2505826Y-4328391D01*
G01X2515524Y-4327929D01*
G01X2525222Y-4328391D01*
G01X2528916Y-4328853D01*
G01X2534458Y-4329776D01*
G01X2540462Y-4331624D01*
G01X2545542Y-4333471D01*
G01X2549698Y-4335780D01*
G01X2552931Y-4337627D01*
G01X2555240Y-4339474D01*
G01X2558011Y-4341784D01*
G01X2561244Y-4345016D01*
G01X2564014Y-4348249D01*
G01X2568171Y-4352406D01*
G01X2568864Y-4350096D01*
G01X2569094Y-4342246D01*
G01X2569094Y-4331624D01*
G01X2626360Y-4331624D01*
G01X2626360Y-4409671D01*
G01X2625898Y-4491874D01*
G01X2624974Y-4498340D01*
G01X2624051Y-4502958D01*
G01X2622666Y-4508038D01*
G01X2620818Y-4513118D01*
G01X2617124Y-4520507D01*
G01X2615276Y-4523740D01*
G01X2613891Y-4526049D01*
G01X2612044Y-4528358D01*
G01X2606502Y-4534824D01*
G01X2599113Y-4540366D01*
G01X2596342Y-4542213D01*
G01X2592647Y-4544060D01*
G01X2588491Y-4545907D01*
G01X2583411Y-4547754D01*
G01X2578793Y-4549140D01*
G01X2570480Y-4550987D01*
G01X2563091Y-4551911D01*
G01X2552931Y-4552834D01*
G01X2536767Y-4553296D01*
G37*
G36*
G01X2743200Y-4553296D02*
G01X2727498Y-4552834D01*
G01X2724266Y-4552373D01*
G01X2720109Y-4551911D01*
G01X2710411Y-4550526D01*
G01X2705331Y-4549602D01*
G01X2700713Y-4548216D01*
G01X2697018Y-4547293D01*
G01X2692862Y-4545907D01*
G01X2688706Y-4544060D01*
G01X2684549Y-4541751D01*
G01X2680393Y-4538980D01*
G01X2677160Y-4536209D01*
G01X2674851Y-4533900D01*
G01X2671156Y-4529282D01*
G01X2668847Y-4526049D01*
G01X2667000Y-4522354D01*
G01X2665614Y-4518660D01*
G01X2664229Y-4514504D01*
G01X2663306Y-4510809D01*
G01X2662844Y-4507576D01*
G01X2662382Y-4502034D01*
G01X2662844Y-4495569D01*
G01X2663767Y-4493837D01*
G01X2665614Y-4493260D01*
G01X2669309Y-4493722D01*
G01X2685934Y-4495569D01*
G01X2693324Y-4496493D01*
G01X2709949Y-4498340D01*
G01X2713182Y-4498802D01*
G01X2718262Y-4499264D01*
G01X2720917Y-4500187D01*
G01X2722418Y-4502034D01*
G01X2724727Y-4506653D01*
G01X2728422Y-4510809D01*
G01X2733502Y-4513580D01*
G01X2737658Y-4514966D01*
G01X2742738Y-4515427D01*
G01X2750589Y-4514966D01*
G01X2757054Y-4513580D01*
G01X2760749Y-4511733D01*
G01X2763520Y-4509886D01*
G01X2766291Y-4506653D01*
G01X2768600Y-4502958D01*
G01X2769986Y-4498340D01*
G01X2770909Y-4493722D01*
G01X2771371Y-4477096D01*
G01X2771371Y-4461856D01*
G01X2769524Y-4462780D01*
G01X2766753Y-4465089D01*
G01X2763520Y-4468322D01*
G01X2759826Y-4471093D01*
G01X2756593Y-4473402D01*
G01X2752898Y-4475711D01*
G01X2749204Y-4477558D01*
G01X2741814Y-4480329D01*
G01X2735811Y-4481714D01*
G01X2727498Y-4482638D01*
G01X2721956Y-4482638D01*
G01X2718724Y-4482176D01*
G01X2713644Y-4481714D01*
G01X2709026Y-4480791D01*
G01X2704869Y-4479867D01*
G01X2700713Y-4478482D01*
G01X2692400Y-4474326D01*
G01X2687782Y-4471093D01*
G01X2684087Y-4468322D01*
G01X2676236Y-4460471D01*
G01X2673466Y-4456776D01*
G01X2671156Y-4453544D01*
G01X2668847Y-4449849D01*
G01X2667000Y-4446616D01*
G01X2664229Y-4440151D01*
G01X2662844Y-4436456D01*
G01X2661458Y-4430914D01*
G01X2660073Y-4426296D01*
G01X2659149Y-4419831D01*
G01X2658702Y-4405514D01*
G01X2718724Y-4405514D01*
G01X2719186Y-4415213D01*
G01X2720109Y-4419831D01*
G01X2721494Y-4424911D01*
G01X2723342Y-4429067D01*
G01X2725651Y-4432762D01*
G01X2729346Y-4436456D01*
G01X2733040Y-4438766D01*
G01X2736734Y-4440151D01*
G01X2736734Y-4440151D01*
G01X2739506Y-4441074D01*
G01X2744586Y-4441536D01*
G01X2751513Y-4440613D01*
G01X2756131Y-4438766D01*
G01X2759364Y-4436918D01*
G01X2762596Y-4434147D01*
G01X2766291Y-4429991D01*
G01X2768600Y-4426296D01*
G01X2769986Y-4422602D01*
G01X2770909Y-4418907D01*
G01X2771371Y-4409209D01*
G01X2770909Y-4398587D01*
G01X2769986Y-4393969D01*
G01X2768600Y-4389351D01*
G01X2766291Y-4384733D01*
G01X2763982Y-4381500D01*
G01X2762134Y-4379191D01*
G01X2759826Y-4376882D01*
G01X2757054Y-4375034D01*
G01X2753360Y-4373187D01*
G01X2749666Y-4371802D01*
G01X2745971Y-4371340D01*
G01X2742276Y-4371802D01*
G01X2737658Y-4372726D01*
G01X2733040Y-4374111D01*
G01X2730269Y-4375496D01*
G01X2727960Y-4377344D01*
G01X2725651Y-4379653D01*
G01X2723342Y-4382886D01*
G01X2721494Y-4387042D01*
G01X2720109Y-4392122D01*
G01X2719186Y-4396740D01*
G01X2718724Y-4405514D01*
G01X2658702Y-4405514D01*
G01X2658687Y-4405053D01*
G01X2659149Y-4390274D01*
G01X2660073Y-4383809D01*
G01X2660996Y-4379191D01*
G01X2662382Y-4372726D01*
G01X2664229Y-4367184D01*
G01X2666076Y-4362566D01*
G01X2667924Y-4358871D01*
G01X2670233Y-4355176D01*
G01X2672542Y-4351944D01*
G01X2678084Y-4345016D01*
G01X2680393Y-4342707D01*
G01X2685011Y-4339013D01*
G01X2687782Y-4337166D01*
G01X2691014Y-4335318D01*
G01X2694709Y-4333471D01*
G01X2702098Y-4330700D01*
G01X2707178Y-4329314D01*
G01X2711796Y-4328391D01*
G01X2721494Y-4327929D01*
G01X2731193Y-4328391D01*
G01X2737658Y-4329314D01*
G01X2742276Y-4330238D01*
G01X2747356Y-4331624D01*
G01X2751513Y-4333471D01*
G01X2756131Y-4335780D01*
G01X2759364Y-4338089D01*
G01X2766291Y-4343631D01*
G01X2769524Y-4346864D01*
G01X2772294Y-4350558D01*
G01X2774604Y-4352406D01*
G01X2775643Y-4350096D01*
G01X2775989Y-4342246D01*
G01X2775989Y-4331624D01*
G01X2832331Y-4331624D01*
G01X2832331Y-4411980D01*
G01X2831869Y-4494646D01*
G01X2830946Y-4500187D01*
G01X2829560Y-4506191D01*
G01X2827713Y-4511733D01*
G01X2825866Y-4515889D01*
G01X2824018Y-4519584D01*
G01X2821247Y-4524202D01*
G01X2818476Y-4528358D01*
G01X2816167Y-4531129D01*
G01X2811549Y-4535747D01*
G01X2804160Y-4541289D01*
G01X2801389Y-4543136D01*
G01X2794924Y-4545907D01*
G01X2790767Y-4547293D01*
G01X2786149Y-4548678D01*
G01X2781069Y-4550064D01*
G01X2776451Y-4550987D01*
G01X2769986Y-4551911D01*
G01X2759826Y-4552834D01*
G01X2743200Y-4553296D01*
G37*
G36*
G01X2039851Y-4489566D02*
G01X2039851Y-4339013D01*
G01X2107276Y-4339013D01*
G01X2107738Y-4363489D01*
G01X2118822Y-4363951D01*
G01X2132676Y-4363489D01*
G01X2139142Y-4362566D01*
G01X2144222Y-4361180D01*
G01X2147916Y-4359794D01*
G01X2150687Y-4357947D01*
G01X2155306Y-4353329D01*
G01X2157153Y-4350558D01*
G01X2158538Y-4346402D01*
G01X2159462Y-4342246D01*
G01X2159462Y-4339936D01*
G01X2159000Y-4337166D01*
G01X2158076Y-4332086D01*
G01X2156229Y-4327467D01*
G01X2153458Y-4323773D01*
G01X2149764Y-4320078D01*
G01X2145146Y-4317769D01*
G01X2140989Y-4316384D01*
G01X2128982Y-4315460D01*
G01X2117436Y-4314998D01*
G01X2107276Y-4314998D01*
G01X2107276Y-4339013D01*
G01X2107276Y-4339013D01*
G01X2039851Y-4339013D01*
G01X2039851Y-4271587D01*
G01X2101734Y-4271587D01*
G01X2165004Y-4272049D01*
G01X2171469Y-4272973D01*
G01X2176087Y-4273896D01*
G01X2182553Y-4275282D01*
G01X2188094Y-4277129D01*
G01X2195484Y-4280824D01*
G01X2199640Y-4283133D01*
G01X2202873Y-4285442D01*
G01X2207491Y-4289136D01*
G01X2210724Y-4292369D01*
G01X2213494Y-4296064D01*
G01X2215342Y-4298834D01*
G01X2219036Y-4305300D01*
G01X2220422Y-4308994D01*
G01X2221807Y-4313151D01*
G01X2223193Y-4318231D01*
G01X2224116Y-4322849D01*
G01X2224578Y-4327006D01*
G01X2225040Y-4333933D01*
G01X2225040Y-4339474D01*
G01X2224116Y-4350558D01*
G01X2223193Y-4355176D01*
G01X2221807Y-4361180D01*
G01X2219036Y-4369493D01*
G01X2217189Y-4373649D01*
G01X2215342Y-4376882D01*
G01X2211647Y-4382424D01*
G01X2209338Y-4385194D01*
G01X2202411Y-4392122D01*
G01X2199640Y-4394431D01*
G01X2196869Y-4396278D01*
G01X2193636Y-4398126D01*
G01X2189942Y-4399973D01*
G01X2186709Y-4401358D01*
G01X2179320Y-4404129D01*
G01X2176087Y-4405053D01*
G01X2166851Y-4406900D01*
G01X2157614Y-4407824D01*
G01X2131753Y-4408286D01*
G01X2107276Y-4408286D01*
G01X2107276Y-4489566D01*
G01X2039851Y-4489566D01*
G37*
G36*
G01X2332644Y-4492336D02*
G01X2313247Y-4491874D01*
G01X2308167Y-4490951D01*
G01X2301702Y-4490027D01*
G01X2295698Y-4488642D01*
G01X2290156Y-4486794D01*
G01X2285076Y-4484947D01*
G01X2280458Y-4482638D01*
G01X2276764Y-4480329D01*
G01X2273993Y-4478944D01*
G01X2271684Y-4477096D01*
G01X2269374Y-4474787D01*
G01X2264756Y-4471093D01*
G01X2261524Y-4467860D01*
G01X2255982Y-4460471D01*
G01X2252749Y-4455853D01*
G01X2250440Y-4452158D01*
G01X2248593Y-4448002D01*
G01X2244898Y-4438766D01*
G01X2243513Y-4434609D01*
G01X2241666Y-4424449D01*
G01X2241204Y-4413827D01*
G01X2241666Y-4400434D01*
G01X2242589Y-4393969D01*
G01X2242774Y-4393046D01*
G01X2303087Y-4393046D01*
G01X2303549Y-4395816D01*
G01X2332644Y-4396278D01*
G01X2361738Y-4395354D01*
G01X2361738Y-4393046D01*
G01X2360814Y-4387966D01*
G01X2359429Y-4382424D01*
G01X2357582Y-4378267D01*
G01X2355734Y-4375034D01*
G01X2354349Y-4372726D01*
G01X2351578Y-4369493D01*
G01X2346960Y-4366722D01*
G01X2342804Y-4364874D01*
G01X2338647Y-4363951D01*
G01X2334953Y-4363489D01*
G01X2331258Y-4363489D01*
G01X2326640Y-4364413D01*
G01X2321560Y-4365798D01*
G01X2317866Y-4367646D01*
G01X2314633Y-4369954D01*
G01X2310476Y-4373649D01*
G01X2307706Y-4377806D01*
G01X2305858Y-4381500D01*
G01X2304473Y-4385656D01*
G01X2303549Y-4389351D01*
G01X2303087Y-4393046D01*
G01X2303087Y-4393046D01*
G01X2242774Y-4393046D01*
G01X2243513Y-4389351D01*
G01X2245360Y-4381962D01*
G01X2246746Y-4377806D01*
G01X2248593Y-4373649D01*
G01X2250902Y-4369031D01*
G01X2253673Y-4364413D01*
G01X2258291Y-4357947D01*
G01X2261062Y-4354714D01*
G01X2269374Y-4346402D01*
G01X2273069Y-4343631D01*
G01X2277687Y-4340398D01*
G01X2281382Y-4338089D01*
G01X2285076Y-4336242D01*
G01X2289694Y-4334394D01*
G01X2294774Y-4332547D01*
G01X2298931Y-4331162D01*
G01X2308167Y-4329314D01*
G01X2315556Y-4328391D01*
G01X2329873Y-4327929D01*
G01X2344189Y-4328391D01*
G01X2347422Y-4328853D01*
G01X2353426Y-4329314D01*
G01X2358967Y-4330238D01*
G01X2362200Y-4330700D01*
G01X2365894Y-4331624D01*
G01X2375131Y-4334394D01*
G01X2378826Y-4335780D01*
G01X2382058Y-4337166D01*
G01X2385291Y-4339013D01*
G01X2388062Y-4340860D01*
G01X2391294Y-4342707D01*
G01X2394527Y-4345016D01*
G01X2400069Y-4349634D01*
G01X2402378Y-4351944D01*
G01X2406073Y-4356562D01*
G01X2408844Y-4359794D01*
G01X2411614Y-4364413D01*
G01X2413924Y-4368107D01*
G01X2415771Y-4371802D01*
G01X2417618Y-4376420D01*
G01X2419466Y-4381962D01*
G01X2420851Y-4386580D01*
G01X2422698Y-4396740D01*
G01X2423622Y-4406900D01*
G01X2424084Y-4416598D01*
G01X2424084Y-4424911D01*
G01X2363586Y-4424911D01*
G01X2318212Y-4425373D01*
G01X2303087Y-4426758D01*
G01X2303549Y-4429991D01*
G01X2304473Y-4434147D01*
G01X2305858Y-4439227D01*
G01X2309091Y-4445693D01*
G01X2311862Y-4448926D01*
G01X2315556Y-4451696D01*
G01X2317866Y-4453544D01*
G01X2320636Y-4454929D01*
G01X2324331Y-4456314D01*
G01X2330796Y-4457238D01*
G01X2338647Y-4456776D01*
G01X2344651Y-4455391D01*
G01X2348807Y-4453544D01*
G01X2352040Y-4451696D01*
G01X2354811Y-4449387D01*
G01X2359429Y-4444769D01*
G01X2361046Y-4443730D01*
G01X2364047Y-4443384D01*
G01X2389447Y-4445693D01*
G01X2407920Y-4447540D01*
G01X2414386Y-4448002D01*
G01X2419466Y-4448926D01*
G01X2418542Y-4451234D01*
G01X2416233Y-4454929D01*
G01X2413924Y-4458162D01*
G01X2412538Y-4460471D01*
G01X2410691Y-4462780D01*
G01X2406073Y-4468322D01*
G01X2401454Y-4472940D01*
G01X2396836Y-4476634D01*
G01X2393604Y-4478944D01*
G01X2390371Y-4480791D01*
G01X2382058Y-4484947D01*
G01X2377440Y-4486794D01*
G01X2373746Y-4488180D01*
G01X2365433Y-4490027D01*
G01X2358967Y-4490951D01*
G01X2351578Y-4491874D01*
G01X2332644Y-4492336D01*
G37*
G36*
G01X939800Y-4391660D02*
G01X907011Y-4391198D01*
G01X906549Y-4361180D01*
G01X906549Y-4331624D01*
G01X972127Y-4331624D01*
G01X972127Y-4391660D01*
G01X939800Y-4391660D01*
G37*
G36*
G01X939338Y-4489566D02*
G01X907011Y-4489104D01*
G01X906549Y-4460933D01*
G01X907011Y-4430914D01*
G01X907473Y-4428606D01*
G01X972127Y-4428606D01*
G01X972127Y-4456776D01*
G01X971666Y-4487256D01*
G01X971204Y-4489566D01*
G01X939338Y-4489566D01*
G37*
G36*
G01X1115291Y-4489566D02*
G01X1115291Y-4336704D01*
G01X1182716Y-4336704D01*
G01X1183178Y-4358871D01*
G01X1198880Y-4359333D01*
G01X1216429Y-4358871D01*
G01X1221971Y-4357947D01*
G01X1228436Y-4356562D01*
G01X1233516Y-4354714D01*
G01X1236287Y-4352867D01*
G01X1238596Y-4351020D01*
G01X1240906Y-4348249D01*
G01X1242753Y-4344554D01*
G01X1243676Y-4339474D01*
G01X1243214Y-4332086D01*
G01X1241367Y-4326082D01*
G01X1239058Y-4322849D01*
G01X1236287Y-4320078D01*
G01X1232131Y-4317769D01*
G01X1228436Y-4316384D01*
G01X1219200Y-4315460D01*
G01X1200266Y-4314998D01*
G01X1182716Y-4314998D01*
G01X1182716Y-4336704D01*
G01X1182716Y-4336704D01*
G01X1115291Y-4336704D01*
G01X1115291Y-4271587D01*
G01X1181331Y-4271587D01*
G01X1248756Y-4272049D01*
G01X1256146Y-4272973D01*
G01X1262611Y-4273896D01*
G01X1267229Y-4274820D01*
G01X1273233Y-4276206D01*
G01X1278313Y-4278053D01*
G01X1282469Y-4279900D01*
G01X1285702Y-4281747D01*
G01X1288473Y-4283133D01*
G01X1290782Y-4284980D01*
G01X1293091Y-4287289D01*
G01X1296324Y-4290060D01*
G01X1300018Y-4294216D01*
G01X1302789Y-4298373D01*
G01X1305098Y-4302067D01*
G01X1306946Y-4305762D01*
G01X1308331Y-4309456D01*
G01X1309716Y-4314074D01*
G01X1310640Y-4318231D01*
G01X1311564Y-4326544D01*
G01X1312026Y-4330238D01*
G01X1311102Y-4337627D01*
G01X1310640Y-4342246D01*
G01X1309716Y-4347787D01*
G01X1308331Y-4352867D01*
G01X1304636Y-4361180D01*
G01X1300942Y-4367646D01*
G01X1296324Y-4373187D01*
G01X1294014Y-4375496D01*
G01X1291706Y-4377344D01*
G01X1289396Y-4379653D01*
G01X1286164Y-4381962D01*
G01X1282469Y-4384271D01*
G01X1279236Y-4386118D01*
G01X1275542Y-4387966D01*
G01X1270462Y-4389813D01*
G01X1264458Y-4391660D01*
G01X1262149Y-4392584D01*
G01X1261687Y-4393507D01*
G01X1264920Y-4395354D01*
G01X1269076Y-4397202D01*
G01X1272771Y-4399049D01*
G01X1276004Y-4400896D01*
G01X1278313Y-4402744D01*
G01X1285240Y-4409671D01*
G01X1288934Y-4414289D01*
G01X1291706Y-4417984D01*
G01X1294938Y-4422602D01*
G01X1297247Y-4426296D01*
G01X1306484Y-4444769D01*
G01X1310178Y-4451234D01*
G01X1321262Y-4473402D01*
G01X1324956Y-4479867D01*
G01X1328651Y-4487256D01*
G01X1329574Y-4489566D01*
G01X1292629Y-4489566D01*
G01X1253836Y-4488642D01*
G01X1251066Y-4485409D01*
G01X1248756Y-4480791D01*
G01X1246447Y-4477096D01*
G01X1242753Y-4469707D01*
G01X1239058Y-4463242D01*
G01X1237211Y-4459547D01*
G01X1232593Y-4451234D01*
G01X1230284Y-4446616D01*
G01X1227974Y-4442922D01*
G01X1223818Y-4434609D01*
G01X1221509Y-4430914D01*
G01X1217814Y-4423526D01*
G01X1215967Y-4420293D01*
G01X1213658Y-4416136D01*
G01X1209040Y-4409671D01*
G01X1206269Y-4406438D01*
G01X1203498Y-4404591D01*
G01X1200727Y-4403206D01*
G01X1197494Y-4401820D01*
G01X1189182Y-4400896D01*
G01X1182716Y-4400896D01*
G01X1182716Y-4489566D01*
G01X1115291Y-4489566D01*
G37*
G36*
G01X1383607Y-4553296D02*
G01X1371600Y-4552834D01*
G01X1367906Y-4552373D01*
G01X1354051Y-4550987D01*
G01X1349894Y-4550526D01*
G01X1344814Y-4549602D01*
G01X1343083Y-4548216D01*
G01X1342506Y-4545907D01*
G01X1341120Y-4533438D01*
G01X1340196Y-4526049D01*
G01X1339273Y-4517736D01*
G01X1338811Y-4512194D01*
G01X1339157Y-4509193D01*
G01X1340196Y-4508500D01*
G01X1348509Y-4510347D01*
G01X1354974Y-4511271D01*
G01X1362364Y-4511733D01*
G01X1372524Y-4511271D01*
G01X1378527Y-4509886D01*
G01X1382222Y-4508500D01*
G01X1384993Y-4506653D01*
G01X1389611Y-4502034D01*
G01X1391920Y-4498802D01*
G01X1393767Y-4495107D01*
G01X1395153Y-4491874D01*
G01X1395614Y-4488642D01*
G01X1394229Y-4485409D01*
G01X1392382Y-4481253D01*
G01X1390534Y-4476634D01*
G01X1388687Y-4472478D01*
G01X1384993Y-4463242D01*
G01X1383146Y-4459086D01*
G01X1381760Y-4455391D01*
G01X1377604Y-4445693D01*
G01X1375756Y-4441536D01*
G01X1373909Y-4436918D01*
G01X1372062Y-4432762D01*
G01X1368367Y-4423526D01*
G01X1364673Y-4415213D01*
G01X1360978Y-4405976D01*
G01X1359131Y-4401820D01*
G01X1357746Y-4398126D01*
G01X1353589Y-4388427D01*
G01X1351742Y-4384271D01*
G01X1349894Y-4379653D01*
G01X1348047Y-4375496D01*
G01X1344353Y-4366260D01*
G01X1340658Y-4357947D01*
G01X1336964Y-4348711D01*
G01X1335116Y-4344554D01*
G01X1333731Y-4340860D01*
G01X1332346Y-4337627D01*
G01X1330960Y-4333933D01*
G01X1330498Y-4331624D01*
G01X1393306Y-4331624D01*
G01X1394229Y-4333933D01*
G01X1396076Y-4339013D01*
G01X1399771Y-4351020D01*
G01X1403004Y-4360718D01*
G01X1403927Y-4364413D01*
G01X1405313Y-4368569D01*
G01X1408084Y-4377806D01*
G01X1409469Y-4381962D01*
G01X1410854Y-4387042D01*
G01X1412702Y-4392584D01*
G01X1420091Y-4416598D01*
G01X1423324Y-4426296D01*
G01X1424247Y-4429991D01*
G01X1425633Y-4433224D01*
G01X1426556Y-4433339D01*
G01X1427480Y-4431838D01*
G01X1429327Y-4426296D01*
G01X1444106Y-4374573D01*
G01X1445953Y-4368569D01*
G01X1447338Y-4364413D01*
G01X1448262Y-4360718D01*
G01X1449647Y-4355638D01*
G01X1451033Y-4351482D01*
G01X1451956Y-4347787D01*
G01X1453342Y-4342707D01*
G01X1454727Y-4338551D01*
G01X1455651Y-4334394D01*
G01X1456113Y-4331624D01*
G01X1486131Y-4331624D01*
G01X1508414Y-4331970D01*
G01X1515226Y-4333009D01*
G01X1511069Y-4344093D01*
G01X1509684Y-4348249D01*
G01X1506913Y-4355638D01*
G01X1505066Y-4360256D01*
G01X1501371Y-4370416D01*
G01X1499524Y-4375034D01*
G01X1498138Y-4379191D01*
G01X1489826Y-4401358D01*
G01X1488440Y-4405514D01*
G01X1485669Y-4412904D01*
G01X1483822Y-4417522D01*
G01X1480127Y-4427682D01*
G01X1478280Y-4432300D01*
G01X1476894Y-4436456D01*
G01X1468582Y-4458624D01*
G01X1467196Y-4462780D01*
G01X1458884Y-4484947D01*
G01X1457036Y-4489566D01*
G01X1455189Y-4495107D01*
G01X1451494Y-4504344D01*
G01X1449647Y-4509424D01*
G01X1447800Y-4513118D01*
G01X1445953Y-4517274D01*
G01X1444106Y-4520969D01*
G01X1442258Y-4524202D01*
G01X1439949Y-4528358D01*
G01X1438102Y-4531591D01*
G01X1434407Y-4536209D01*
G01X1432560Y-4538056D01*
G01X1430251Y-4539904D01*
G01X1427942Y-4542213D01*
G01X1424247Y-4544522D01*
G01X1420091Y-4546831D01*
G01X1412702Y-4549602D01*
G01X1408084Y-4550987D01*
G01X1403927Y-4551911D01*
G01X1396538Y-4552834D01*
G01X1383607Y-4553296D01*
G37*
G36*
G01X1578494Y-4492336D02*
G01X1563254Y-4491874D01*
G01X1560022Y-4490951D01*
G01X1555404Y-4490027D01*
G01X1551247Y-4488642D01*
G01X1546629Y-4486794D01*
G01X1542011Y-4484486D01*
G01X1537854Y-4481714D01*
G01X1534622Y-4478944D01*
G01X1530004Y-4474326D01*
G01X1527694Y-4471093D01*
G01X1525386Y-4467398D01*
G01X1523538Y-4463704D01*
G01X1522153Y-4459547D01*
G01X1521229Y-4455853D01*
G01X1520767Y-4449387D01*
G01X1521229Y-4441998D01*
G01X1521460Y-4440613D01*
G01X1581727Y-4440613D01*
G01X1582189Y-4446616D01*
G01X1584036Y-4452158D01*
G01X1586807Y-4455391D01*
G01X1589578Y-4457238D01*
G01X1592811Y-4458162D01*
G01X1592811Y-4458162D01*
G01X1595120Y-4458624D01*
G01X1600200Y-4459086D01*
G01X1606204Y-4458624D01*
G01X1610360Y-4457700D01*
G01X1615440Y-4456314D01*
G01X1620058Y-4454006D01*
G01X1623291Y-4451696D01*
G01X1625600Y-4450311D01*
G01X1627909Y-4448464D01*
G01X1630680Y-4444769D01*
G01X1632989Y-4440613D01*
G01X1634374Y-4436918D01*
G01X1635298Y-4431838D01*
G01X1635760Y-4427220D01*
G01X1636222Y-4421678D01*
G01X1635760Y-4416136D01*
G01X1635067Y-4415213D01*
G01X1633913Y-4415213D01*
G01X1630218Y-4416136D01*
G01X1626062Y-4417522D01*
G01X1612207Y-4421678D01*
G01X1606666Y-4423064D01*
G01X1595582Y-4426758D01*
G01X1591426Y-4428606D01*
G01X1587731Y-4430914D01*
G01X1584498Y-4433686D01*
G01X1582651Y-4436456D01*
G01X1581727Y-4440613D01*
G01X1521460Y-4440613D01*
G01X1522153Y-4436456D01*
G01X1523538Y-4431376D01*
G01X1525386Y-4427220D01*
G01X1527694Y-4423064D01*
G01X1530466Y-4418907D01*
G01X1533236Y-4415674D01*
G01X1535546Y-4413827D01*
G01X1538316Y-4411980D01*
G01X1541549Y-4410133D01*
G01X1548938Y-4406438D01*
G01X1553094Y-4405053D01*
G01X1562331Y-4402282D01*
G01X1578956Y-4398587D01*
G01X1584036Y-4397664D01*
G01X1588654Y-4396740D01*
G01X1592349Y-4395816D01*
G01X1600662Y-4393969D01*
G01X1605280Y-4393046D01*
G01X1611746Y-4391660D01*
G01X1617749Y-4389813D01*
G01X1621906Y-4388427D01*
G01X1625600Y-4387504D01*
G01X1629294Y-4386118D01*
G01X1633451Y-4384733D01*
G01X1635414Y-4384156D01*
G01X1635760Y-4383347D01*
G01X1635298Y-4379653D01*
G01X1634374Y-4374111D01*
G01X1631604Y-4369031D01*
G01X1628371Y-4366260D01*
G01X1625138Y-4364874D01*
G01X1614516Y-4363951D01*
G01X1602509Y-4364874D01*
G01X1596506Y-4366722D01*
G01X1591426Y-4369493D01*
G01X1587269Y-4373649D01*
G01X1584960Y-4377806D01*
G01X1583574Y-4381038D01*
G01X1582536Y-4381962D01*
G01X1581266Y-4381962D01*
G01X1553556Y-4379191D01*
G01X1545244Y-4378267D01*
G01X1536007Y-4377344D01*
G01X1530004Y-4376882D01*
G01X1525386Y-4376882D01*
G01X1526309Y-4373649D01*
G01X1527694Y-4369031D01*
G01X1529080Y-4364874D01*
G01X1530927Y-4359794D01*
G01X1532774Y-4356100D01*
G01X1535084Y-4352406D01*
G01X1537854Y-4349173D01*
G01X1543396Y-4343631D01*
G01X1547091Y-4340860D01*
G01X1554480Y-4336242D01*
G01X1561869Y-4333471D01*
G01X1566026Y-4332086D01*
G01X1570182Y-4331162D01*
G01X1580342Y-4329314D01*
G01X1590502Y-4328391D01*
G01X1609898Y-4327929D01*
G01X1629294Y-4328391D01*
G01X1633451Y-4328853D01*
G01X1639454Y-4329314D01*
G01X1645920Y-4330238D01*
G01X1650538Y-4331162D01*
G01X1658851Y-4333009D01*
G01X1663007Y-4334394D01*
G01X1667164Y-4336242D01*
G01X1670396Y-4338089D01*
G01X1675938Y-4341784D01*
G01X1678709Y-4344093D01*
G01X1683327Y-4348711D01*
G01X1685174Y-4351020D01*
G01X1687022Y-4354253D01*
G01X1688869Y-4357947D01*
G01X1690254Y-4361642D01*
G01X1693026Y-4369954D01*
G01X1693949Y-4373649D01*
G01X1694873Y-4381962D01*
G01X1695334Y-4423987D01*
G01X1695796Y-4467860D01*
G01X1696720Y-4473402D01*
G01X1698106Y-4478482D01*
G01X1699953Y-4483100D01*
G01X1701800Y-4487256D01*
G01X1702724Y-4489566D01*
G01X1674553Y-4489566D01*
G01X1653194Y-4489219D01*
G01X1645458Y-4488180D01*
G01X1643611Y-4485409D01*
G01X1642226Y-4482176D01*
G01X1640840Y-4478482D01*
G01X1639916Y-4474326D01*
G01X1639570Y-4472478D01*
G01X1638531Y-4471554D01*
G01X1637261Y-4471554D01*
G01X1636222Y-4472478D01*
G01X1633913Y-4474787D01*
G01X1630218Y-4477558D01*
G01X1625600Y-4480791D01*
G01X1622367Y-4483100D01*
G01X1619134Y-4484947D01*
G01X1614516Y-4486794D01*
G01X1608974Y-4488642D01*
G01X1604356Y-4490027D01*
G01X1594196Y-4491874D01*
G01X1578494Y-4492336D01*
G37*
G36*
G01X1731356Y-4489566D02*
G01X1731356Y-4331624D01*
G01X1787698Y-4331624D01*
G01X1787698Y-4354714D01*
G01X1789546Y-4353791D01*
G01X1792316Y-4351944D01*
G01X1794164Y-4349634D01*
G01X1798782Y-4345016D01*
G01X1803400Y-4341322D01*
G01X1806633Y-4338551D01*
G01X1809866Y-4336242D01*
G01X1813098Y-4334394D01*
G01X1817716Y-4332547D01*
G01X1822796Y-4330700D01*
G01X1826953Y-4329314D01*
G01X1833418Y-4328391D01*
G01X1843116Y-4327929D01*
G01X1852814Y-4328391D01*
G01X1856047Y-4328853D01*
G01X1861127Y-4329776D01*
G01X1866669Y-4331624D01*
G01X1871287Y-4333471D01*
G01X1875444Y-4335780D01*
G01X1878676Y-4337627D01*
G01X1880986Y-4339474D01*
G01X1885604Y-4344093D01*
G01X1887913Y-4347326D01*
G01X1890222Y-4351020D01*
G01X1892069Y-4354253D01*
G01X1893454Y-4357486D01*
G01X1894840Y-4361180D01*
G01X1896226Y-4366260D01*
G01X1897149Y-4370878D01*
G01X1898073Y-4378267D01*
G01X1898534Y-4434609D01*
G01X1898534Y-4489566D01*
G01X1837574Y-4489566D01*
G01X1837574Y-4444307D01*
G01X1837113Y-4395816D01*
G01X1836189Y-4390274D01*
G01X1834804Y-4386118D01*
G01X1832956Y-4382424D01*
G01X1830647Y-4379653D01*
G01X1826953Y-4377344D01*
G01X1823258Y-4375496D01*
G01X1817254Y-4375034D01*
G01X1809866Y-4375958D01*
G01X1805709Y-4377806D01*
G01X1802938Y-4379191D01*
G01X1799706Y-4381962D01*
G01X1796934Y-4386118D01*
G01X1795087Y-4389813D01*
G01X1793702Y-4393969D01*
G01X1792778Y-4397664D01*
G01X1792316Y-4441998D01*
G01X1791854Y-4487256D01*
G01X1791393Y-4489566D01*
G01X1731356Y-4489566D01*
G37*
G54D10*
G01X4867402Y-1940560D02*
G01X4864354Y-1934210D01*
G01X4858004Y-1928114D01*
G01X4851908Y-1925066D01*
G01X4839462Y-1925066D01*
G01X4833366Y-1928114D01*
G01X4827016Y-1934210D01*
G01X4823968Y-1940560D01*
G01X4820920Y-1949704D01*
G01X4820920Y-1965198D01*
G01X4823968Y-1974596D01*
G01X4827016Y-1980692D01*
G01X4833366Y-1987042D01*
G01X4839462Y-1990090D01*
G01X4851908Y-1990090D01*
G01X4858004Y-1987042D01*
G01X4864354Y-1980692D01*
G01X4867402Y-1974596D01*
G01X4897628Y-1937512D02*
G01X4903724Y-1934210D01*
G01X4912868Y-1925066D01*
G01X4912868Y-1990090D01*
G01X4808220Y-2598166D02*
G01X4808220Y-2663190D01*
G01X4808220Y-2598166D02*
G01X4836160Y-2598166D01*
G01X4845304Y-2601214D01*
G01X4848352Y-2604262D01*
G01X4851654Y-2610612D01*
G01X4851654Y-2616708D01*
G01X4848352Y-2622804D01*
G01X4845304Y-2625852D01*
G01X4836160Y-2629154D01*
G01X4808220Y-2629154D01*
G01X4829810Y-2629154D02*
G01X4851654Y-2663190D01*
G01X4881880Y-2610612D02*
G01X4887976Y-2607310D01*
G01X4897120Y-2598166D01*
G01X4897120Y-2663190D01*
G01X6014466Y-2494280D02*
G01X6060948Y-2494280D01*
G01X6070092Y-2491232D01*
G01X6076442Y-2484882D01*
G01X6079490Y-2475738D01*
G01X6079490Y-2469388D01*
G01X6076442Y-2460244D01*
G01X6070092Y-2454148D01*
G01X6060948Y-2450846D01*
G01X6014466Y-2450846D01*
G01X6029960Y-2417572D02*
G01X6026912Y-2417572D01*
G01X6020562Y-2414524D01*
G01X6017514Y-2411476D01*
G01X6014466Y-2405380D01*
G01X6014466Y-2392934D01*
G01X6017514Y-2386584D01*
G01X6020562Y-2383536D01*
G01X6026912Y-2380488D01*
G01X6033008Y-2380488D01*
G01X6039104Y-2383536D01*
G01X6048502Y-2389886D01*
G01X6079490Y-2420620D01*
G01X6079490Y-2377440D01*
G01X898271Y-2293493D02*
G01X898271Y-2358517D01*
G01X898271Y-2358517D02*
G01X935355Y-2358517D01*
G01X965581Y-2293493D02*
G01X965581Y-2358517D01*
G01X965581Y-2293493D02*
G01X1005713Y-2293493D01*
G01X965581Y-2324481D02*
G01X990219Y-2324481D01*
G01X965581Y-2358517D02*
G01X1005713Y-2358517D01*
G01X1035939Y-2293493D02*
G01X1035939Y-2358517D01*
G01X1035939Y-2293493D02*
G01X1057529Y-2293493D01*
G01X1066673Y-2296541D01*
G01X1073023Y-2302637D01*
G01X1076071Y-2308987D01*
G01X1079119Y-2318131D01*
G01X1079119Y-2333625D01*
G01X1076071Y-2343023D01*
G01X1073023Y-2349119D01*
G01X1066673Y-2355469D01*
G01X1057529Y-2358517D01*
G01X1035939Y-2358517D01*
G01X1109345Y-2305939D02*
G01X1115441Y-2302637D01*
G01X1124585Y-2293493D01*
G01X1124585Y-2358517D01*
G01X4753460Y-2263986D02*
G01X4753460Y-2310468D01*
G01X4756508Y-2319612D01*
G01X4762858Y-2325962D01*
G01X4772002Y-2329010D01*
G01X4778352Y-2329010D01*
G01X4787496Y-2325962D01*
G01X4793592Y-2319612D01*
G01X4796894Y-2310468D01*
G01X4796894Y-2263986D01*
G01X4827120Y-2276432D02*
G01X4833216Y-2273130D01*
G01X4842360Y-2263986D01*
G01X4842360Y-2329010D01*
G04 Text End*

G04 PolygonModel Start*
G54D11*
G01X4785281Y-2191857D02*
G01X4705284Y-2191857D01*
G01X4841326Y-2191903D02*
G01X4921324Y-2191903D01*
G01X4785281Y-2049889D02*
G01X4705284Y-2049889D01*
G01X4841326Y-2049937D02*
G01X4921324Y-2049937D01*
G01X4674309Y-2160875D02*
G01X4674309Y-2080870D01*
G01X4952302Y-2080923D02*
G01X4952302Y-2160925D01*
G01X4921319Y-2049937D02*
G02X4952302Y-2080923I0J-30983D01*
G01X4952302Y-2160920D02*
G02X4921319Y-2191903I-30983J0D01*
G01X4705289Y-2191857D02*
G02X4674309Y-2160875I3J30983D01*
G01X4674309Y-2080877D02*
G02X4705289Y-2049889I30983J5D01*
G54D10*
G01X4843221Y-2860060D02*
G01X4939109Y-2860060D01*
G01X4939109Y-2727940D01*
G01X4843221Y-2727940D01*
G01X4757979Y-2860060D02*
G01X4662091Y-2860060D01*
G01X4662091Y-2727940D01*
G01X4757979Y-2727940D01*
G54D11*
G01X934400Y-2464600D02*
G01X894400Y-2504600D01*
G01X884400Y-2514600D01*
G01X894400Y-2524625D01*
G01X934400Y-2564625D01*
G01X934400Y-2464600D02*
G01X934400Y-2564625D01*
G01X958723Y-2616327D02*
G01X1113663Y-2616327D01*
G01X1113663Y-2413127D01*
G01X958723Y-2413127D01*
G01X879983Y-2618867D02*
G01X732663Y-2618867D01*
G01X692023Y-2578227D01*
G01X692023Y-2451227D01*
G01X730123Y-2413127D01*
G01X882523Y-2413127D01*
G01X4887913Y-2575006D02*
G01X4887913Y-2589195D01*
G01X4820420Y-2389193D02*
G01X4887913Y-2389193D01*
G01X4887913Y-2403389D01*
G01X4687913Y-2403389D02*
G01X4687913Y-2389193D01*
G01X4755411Y-2389193D01*
G01X4687913Y-2589195D02*
G01X4687913Y-2575006D01*
G01X4755411Y-2589195D02*
G01X4687913Y-2589195D01*
G01X4887913Y-2589195D02*
G01X4820420Y-2589195D01*

G04 Circle Start*
G01X4654553Y-2438433D02*
G03X4667253Y-2438433I6350J0D01*
G03X4654553Y-2438433I-6350J0D01*
G04 Circle End*

M02*

